{"glyphs":{"0":{"ha":572,"x_min":46,"x_max":527,"o":"m 286 11 l 286 11 q 206 11 153 -31 q 99 -74 73 -156 q 46 -238 46 -357 l 46 -357 q 46 -479 71 -561 q 96 -643 149 -684 q 202 -725 286 -725 l 286 -725 q 365 -725 419 -682 q 473 -640 500 -558 q 527 -477 527 -357 l 527 -357 q 527 -266 513 -197 q 498 -128 469 -82 q 439 -36 394 -12 q 348 11 286 11 z m 286 -77 l 286 -77 q 329 -77 356 -100 q 383 -124 397 -163 q 411 -203 416 -253 q 420 -303 420 -357 l 420 -357 q 420 -410 415 -459 q 410 -509 396 -549 q 382 -590 356 -613 q 329 -636 286 -636 l 286 -636 q 241 -636 215 -613 q 188 -590 175 -550 q 161 -510 157 -460 q 152 -410 152 -357 l 152 -357 q 152 -298 158 -247 q 163 -196 177 -158 q 191 -120 218 -98 q 244 -77 286 -77 z"},"1":{"ha":572,"x_min":81,"x_max":373,"o":"m 373 -714 l 373 0 l 268 0 l 268 -474 q 268 -510 269 -544 q 270 -578 271 -602 l 271 -602 q 265 -596 253 -584 q 241 -573 229 -563 l 229 -563 l 135 -486 l 81 -554 l 285 -714 l 373 -714 z"},"2":{"ha":572,"x_min":46,"x_max":526,"o":"m 526 0 l 46 0 l 46 -82 l 231 -269 q 285 -323 320 -364 q 355 -405 374 -442 q 392 -480 392 -524 l 392 -524 q 392 -560 378 -584 q 364 -609 338 -622 q 312 -635 277 -635 l 277 -635 q 228 -635 190 -617 q 152 -599 109 -565 l 109 -565 l 51 -635 q 85 -663 120 -683 q 155 -703 195 -714 q 235 -725 280 -725 l 280 -725 q 345 -725 395 -702 q 444 -679 472 -636 q 499 -594 499 -533 l 499 -533 q 499 -476 476 -427 q 452 -378 410 -330 q 368 -282 312 -228 l 312 -228 l 180 -99 l 180 -94 l 526 -94 l 526 0 z"},"3":{"ha":572,"x_min":43,"x_max":521,"o":"m 243 11 l 243 11 q 184 11 134 1 q 84 -9 43 -28 l 43 -28 l 43 -123 q 89 -101 141 -88 q 192 -76 239 -76 l 239 -76 q 326 -76 368 -109 q 409 -143 409 -208 l 409 -208 q 409 -246 389 -272 q 369 -299 327 -312 q 285 -325 218 -325 l 218 -325 l 153 -325 l 153 -412 l 219 -412 q 278 -412 317 -427 q 355 -442 374 -470 q 392 -498 392 -535 l 392 -535 q 392 -582 361 -609 q 329 -637 269 -637 l 269 -637 q 217 -637 178 -621 q 139 -606 98 -579 l 98 -579 l 47 -652 q 94 -686 150 -705 q 205 -725 272 -725 l 272 -725 q 337 -725 388 -706 q 439 -687 469 -648 q 499 -609 499 -549 l 499 -549 q 499 -503 481 -467 q 463 -432 430 -409 q 396 -386 349 -376 l 349 -376 l 349 -372 q 433 -362 477 -318 q 521 -275 521 -204 l 521 -204 q 521 -131 486 -83 q 451 -36 388 -12 q 325 11 243 11 z"},"4":{"ha":572,"x_min":20,"x_max":554,"o":"m 455 0 l 352 0 l 352 -158 l 20 -158 l 20 -242 l 349 -717 l 455 -717 l 455 -248 l 554 -248 l 554 -158 l 455 -158 l 455 0 z m 310 -522 l 120 -248 l 352 -248 l 352 -442 q 352 -463 353 -490 q 353 -517 354 -545 q 355 -574 357 -600 l 357 -600 l 353 -600 q 345 -580 335 -561 q 324 -542 310 -522 l 310 -522 z"},"5":{"ha":572,"x_min":59,"x_max":519,"o":"m 247 11 l 247 11 q 189 11 141 1 q 92 -9 59 -28 l 59 -28 l 59 -124 q 99 -103 151 -90 q 202 -78 246 -78 l 246 -78 q 299 -78 336 -94 q 372 -110 392 -142 q 411 -174 411 -220 l 411 -220 q 411 -287 369 -321 q 327 -355 242 -355 l 242 -355 q 215 -355 185 -351 q 155 -347 124 -340 l 124 -340 l 76 -369 l 102 -714 l 469 -714 l 469 -620 l 195 -620 l 179 -433 q 205 -438 230 -440 q 255 -443 282 -443 l 282 -443 q 350 -443 404 -419 q 457 -395 488 -348 q 519 -301 519 -231 l 519 -231 q 519 -152 486 -98 q 453 -44 392 -16 q 331 11 247 11 z"},"6":{"ha":572,"x_min":48,"x_max":528,"o":"m 297 11 l 297 11 q 235 11 189 -12 q 142 -36 111 -78 q 80 -121 64 -178 q 48 -236 48 -304 l 48 -304 q 48 -382 60 -447 q 72 -512 97 -563 q 122 -615 162 -650 q 202 -686 257 -705 q 312 -724 385 -724 l 385 -724 q 409 -724 433 -722 q 457 -720 475 -716 l 475 -716 l 475 -627 q 457 -633 435 -636 q 413 -639 389 -639 l 389 -639 q 308 -639 257 -608 q 206 -578 181 -518 q 155 -458 151 -368 l 151 -368 l 157 -368 q 174 -395 198 -413 q 222 -432 253 -442 q 284 -452 322 -452 l 322 -452 q 387 -452 433 -425 q 479 -398 504 -348 q 528 -299 528 -232 l 528 -232 q 528 -159 501 -104 q 474 -49 422 -19 q 370 11 297 11 z m 295 -76 l 295 -76 q 356 -76 390 -116 q 424 -156 424 -231 l 424 -231 q 424 -296 393 -332 q 361 -369 298 -369 l 298 -369 q 256 -369 224 -351 q 192 -334 174 -306 q 155 -278 155 -248 l 155 -248 q 155 -216 165 -185 q 174 -155 192 -130 q 210 -105 236 -90 q 262 -76 295 -76 z"},"7":{"ha":572,"x_min":39,"x_max":528,"o":"m 244 0 l 129 0 l 415 -620 l 39 -620 l 39 -714 l 528 -714 l 528 -638 l 244 0 z"},"8":{"ha":572,"x_min":46,"x_max":526,"o":"m 288 11 l 288 11 q 217 11 163 -9 q 108 -30 77 -72 q 46 -115 46 -181 l 46 -181 q 46 -224 63 -259 q 80 -295 113 -323 q 145 -352 190 -373 l 190 -373 q 151 -397 124 -423 q 96 -450 82 -482 q 68 -515 68 -554 l 68 -554 q 68 -613 99 -650 q 129 -688 180 -706 q 230 -724 286 -724 l 286 -724 q 344 -724 394 -706 q 443 -688 474 -650 q 504 -613 504 -553 l 504 -553 q 504 -515 489 -483 q 474 -452 445 -426 q 415 -400 370 -378 l 370 -378 q 413 -356 448 -329 q 483 -303 505 -268 q 526 -233 526 -184 l 526 -184 q 526 -121 494 -77 q 462 -33 409 -11 q 355 11 288 11 z m 286 -71 l 286 -71 q 346 -71 385 -99 q 424 -128 424 -185 l 424 -185 q 424 -215 410 -239 q 395 -263 365 -283 q 335 -304 291 -322 l 291 -322 l 273 -329 q 231 -311 203 -289 q 175 -267 162 -241 q 148 -216 148 -183 l 148 -183 q 148 -133 184 -102 q 219 -71 286 -71 z m 289 -420 l 289 -420 q 327 -436 352 -454 q 376 -473 389 -496 q 402 -519 402 -548 l 402 -548 q 402 -596 368 -619 q 333 -642 285 -642 l 285 -642 q 233 -642 202 -616 q 171 -591 171 -548 l 171 -548 q 171 -514 187 -491 q 202 -468 229 -452 q 255 -436 289 -420 z"},"9":{"ha":572,"x_min":43,"x_max":523,"o":"m 186 11 l 186 11 q 168 11 140 9 q 112 6 95 2 l 95 2 l 95 -86 q 115 -80 137 -77 q 159 -74 182 -74 l 182 -74 q 243 -74 287 -91 q 331 -108 360 -142 q 388 -176 403 -226 q 417 -277 420 -344 l 420 -344 l 414 -344 q 397 -319 374 -300 q 350 -281 319 -271 q 288 -261 247 -261 l 247 -261 q 183 -261 138 -288 q 92 -315 68 -364 q 43 -414 43 -480 l 43 -480 q 43 -554 71 -609 q 99 -664 152 -694 q 204 -724 276 -724 l 276 -724 q 336 -724 383 -700 q 429 -677 461 -634 q 492 -592 508 -535 q 523 -479 523 -413 l 523 -413 q 523 -335 512 -268 q 500 -202 475 -150 q 449 -98 410 -62 q 370 -26 315 -7 q 259 11 186 11 z m 273 -345 l 273 -345 q 315 -345 347 -362 q 379 -380 398 -407 q 416 -435 416 -466 l 416 -466 q 416 -497 407 -527 q 398 -558 380 -582 q 362 -607 336 -621 q 310 -636 277 -636 l 277 -636 q 216 -636 182 -596 q 148 -557 148 -482 l 148 -482 q 148 -416 180 -380 q 211 -345 273 -345 z"},"\r":{"ha":309,"x_min":0,"x_max":0,"o":""}," ":{"ha":309,"x_min":0,"x_max":0,"o":""},"ഀ":{"ha":0,"x_min":-435,"x_max":-120,"o":"m -435 -719 l -435 -719 q -435 -780 -392 -822 q -350 -864 -278 -864 l -278 -864 q -205 -864 -162 -822 q -120 -781 -120 -719 l -120 -719 q -120 -657 -162 -615 q -205 -573 -278 -573 l -278 -573 q -351 -573 -393 -615 q -435 -657 -435 -719 z m -352 -719 l -352 -719 q -352 -690 -334 -667 q -316 -645 -278 -645 l -278 -645 q -239 -645 -221 -667 q -203 -690 -203 -720 l -203 -720 q -203 -748 -221 -770 q -240 -793 -278 -793 l -278 -793 q -316 -793 -334 -770 q -352 -748 -352 -719 z"},"ഁ":{"ha":0,"x_min":-458,"x_max":-98,"o":"m -278 -647 l -278 -647 q -366 -647 -412 -689 q -458 -731 -458 -806 l -458 -806 q -458 -822 -456 -836 q -454 -851 -450 -863 l -450 -863 l -375 -847 q -378 -837 -379 -827 q -380 -817 -380 -809 l -380 -809 q -380 -774 -365 -754 q -351 -735 -327 -727 q -304 -720 -278 -720 l -278 -720 q -252 -720 -228 -728 q -205 -736 -190 -756 q -176 -776 -176 -811 l -176 -811 q -176 -819 -177 -828 q -178 -837 -181 -847 l -181 -847 l -105 -862 q -102 -850 -100 -835 q -98 -821 -98 -807 l -98 -807 q -98 -732 -145 -689 q -193 -647 -278 -647 z m -279 -757 l -279 -757 q -305 -757 -318 -771 q -332 -786 -332 -809 l -332 -809 q -332 -831 -318 -846 q -305 -861 -279 -861 l -279 -861 q -253 -861 -239 -846 q -225 -831 -225 -809 l -225 -809 q -225 -786 -239 -771 q -253 -757 -279 -757 z"},"ം":{"ha":467,"x_min":31,"x_max":436,"o":"m 233 12 l 233 12 q 171 12 126 -12 q 80 -36 56 -79 q 31 -122 31 -177 l 31 -177 q 31 -233 57 -275 q 82 -318 128 -342 q 174 -366 233 -366 l 233 -366 q 294 -366 339 -342 q 384 -319 410 -277 q 436 -235 436 -177 l 436 -177 q 436 -120 410 -77 q 384 -35 339 -11 q 293 12 233 12 z m 233 -288 l 233 -288 q 189 -288 160 -260 q 130 -233 130 -176 l 130 -176 q 130 -121 160 -93 q 190 -66 233 -66 l 233 -66 q 277 -66 307 -93 q 337 -121 337 -177 l 337 -177 q 337 -233 308 -260 q 278 -288 233 -288 z"},"ഃ":{"ha":345,"x_min":32,"x_max":314,"o":"m 32 -437 l 32 -437 q 32 -492 71 -530 q 109 -568 172 -568 l 172 -568 q 237 -568 276 -530 q 314 -493 314 -437 l 314 -437 q 314 -381 276 -343 q 237 -305 173 -305 l 173 -305 q 108 -305 70 -343 q 32 -381 32 -437 z m 112 -438 l 112 -438 q 112 -411 128 -393 q 143 -376 173 -376 l 173 -376 q 203 -376 219 -393 q 234 -411 234 -438 l 234 -438 q 234 -463 219 -480 q 203 -497 172 -497 l 172 -497 q 143 -497 128 -480 q 112 -463 112 -438 z m 32 -120 l 32 -120 q 32 -176 71 -214 q 109 -252 172 -252 l 172 -252 q 237 -252 276 -214 q 314 -176 314 -120 l 314 -120 q 314 -64 276 -26 q 237 12 173 12 l 173 12 q 108 12 70 -26 q 32 -64 32 -120 z m 112 -121 l 112 -121 q 112 -95 128 -77 q 143 -59 173 -59 l 173 -59 q 203 -59 219 -76 q 234 -94 234 -121 l 234 -121 q 234 -146 219 -163 q 203 -181 172 -181 l 172 -181 q 143 -181 128 -163 q 112 -146 112 -121 z"},"ഄ":{"ha":600,"x_min":33,"x_max":566,"o":"m 48 -325 l 48 -325 l 147 -307 q 141 -287 138 -264 q 135 -241 135 -219 l 135 -219 q 135 -152 173 -113 q 211 -74 299 -74 l 299 -74 q 389 -74 427 -113 q 464 -152 464 -219 l 464 -219 q 464 -241 462 -264 q 459 -287 453 -307 l 453 -307 l 551 -325 q 557 -305 562 -276 q 566 -247 566 -215 l 566 -215 q 566 -150 540 -99 q 514 -49 456 -20 q 397 9 299 9 l 299 9 q 203 9 145 -20 q 86 -49 60 -99 q 33 -150 33 -215 l 33 -215 q 33 -247 38 -276 q 43 -305 48 -325 z m 256 -175 l 256 -407 l 345 -407 l 345 -175 l 256 -175 z"},"അ":{"ha":1543,"x_min":38,"x_max":1505,"o":"m 378 -568 l 378 -568 q 426 -568 479 -559 q 531 -551 576 -532 l 576 -532 q 583 -529 590 -523 q 597 -518 604 -515 l 604 -515 q 652 -502 681 -479 q 709 -456 723 -428 q 737 -401 737 -369 l 737 -369 q 737 -345 729 -324 q 720 -303 701 -286 q 681 -269 649 -254 l 649 -254 l 651 -259 q 695 -243 722 -212 q 748 -181 748 -137 l 748 -137 q 748 -97 728 -63 q 708 -29 665 -8 q 621 12 550 12 l 550 12 q 469 12 416 -21 q 363 -54 338 -110 q 312 -167 312 -236 l 312 -236 q 312 -292 330 -343 q 347 -395 384 -439 q 421 -483 480 -517 l 480 -517 q 486 -520 491 -523 q 496 -526 502 -529 l 502 -529 q 539 -547 586 -557 q 632 -568 689 -568 l 689 -568 q 758 -568 804 -552 q 849 -537 881 -511 q 913 -485 937 -453 l 937 -453 l 973 -239 l 973 0 l 868 0 l 868 -272 q 868 -346 857 -385 q 845 -425 817 -449 l 817 -449 q 795 -469 764 -480 q 733 -491 680 -491 l 680 -491 q 652 -491 627 -487 q 601 -484 581 -478 l 581 -478 q 535 -465 503 -438 q 470 -411 450 -376 q 430 -342 421 -306 q 412 -271 412 -239 l 412 -239 q 412 -154 448 -110 q 483 -66 549 -66 l 549 -66 q 598 -66 622 -85 q 646 -104 646 -141 l 646 -141 q 646 -175 620 -194 q 593 -214 536 -214 l 536 -214 l 514 -214 l 514 -294 l 530 -294 q 588 -294 612 -314 q 635 -335 635 -370 l 635 -370 q 635 -411 605 -438 q 574 -466 508 -477 l 508 -477 q 473 -486 443 -488 q 413 -490 386 -490 l 386 -490 q 304 -490 251 -462 q 198 -434 172 -385 q 145 -337 145 -275 l 145 -275 q 145 -225 159 -185 q 173 -145 199 -114 q 225 -83 262 -57 l 262 -57 l 197 10 q 154 -19 118 -59 q 82 -99 60 -153 q 38 -208 38 -278 l 38 -278 q 38 -338 58 -390 q 78 -443 119 -483 q 160 -523 225 -545 q 289 -568 378 -568 z m 1283 12 l 1283 12 q 1215 12 1171 -17 q 1126 -47 1104 -95 q 1082 -143 1082 -199 l 1082 -199 q 1082 -293 1133 -349 q 1184 -406 1274 -406 l 1274 -406 q 1331 -406 1374 -376 q 1416 -347 1441 -301 q 1466 -256 1469 -205 l 1469 -205 l 1435 -208 q 1428 -238 1410 -265 q 1391 -292 1363 -309 q 1334 -327 1296 -327 l 1296 -327 q 1237 -327 1211 -292 q 1184 -257 1184 -199 l 1184 -199 q 1184 -161 1195 -131 q 1205 -101 1228 -84 q 1250 -68 1286 -68 l 1286 -68 q 1323 -68 1350 -86 q 1376 -104 1390 -143 q 1404 -182 1404 -245 l 1404 -245 q 1404 -257 1403 -271 q 1401 -286 1399 -301 l 1399 -301 q 1398 -308 1398 -316 q 1397 -325 1395 -333 l 1395 -333 q 1388 -370 1361 -405 q 1334 -440 1286 -463 q 1237 -486 1163 -486 l 1163 -486 q 1120 -486 1087 -477 q 1054 -468 1028 -446 l 1028 -446 q 1012 -431 1000 -410 q 987 -389 980 -357 q 973 -326 973 -276 l 973 -276 l 973 -206 l 911 -459 q 937 -490 971 -515 q 1004 -540 1051 -554 q 1098 -568 1165 -568 l 1165 -568 q 1249 -568 1313 -543 q 1376 -519 1419 -474 q 1462 -430 1484 -370 q 1505 -311 1505 -241 l 1505 -241 q 1505 -152 1477 -96 q 1448 -40 1398 -14 q 1348 12 1283 12 z"},"ആ":{"ha":1701,"x_min":38,"x_max":1674,"o":"m 378 -568 l 378 -568 q 426 -568 479 -559 q 531 -551 576 -532 l 576 -532 q 583 -529 590 -523 q 597 -518 604 -515 l 604 -515 q 652 -502 681 -479 q 709 -456 723 -428 q 737 -401 737 -369 l 737 -369 q 737 -345 729 -324 q 720 -303 701 -286 q 681 -269 649 -254 l 649 -254 l 651 -259 q 695 -243 722 -212 q 748 -181 748 -137 l 748 -137 q 748 -97 728 -63 q 708 -29 665 -8 q 621 12 550 12 l 550 12 q 469 12 416 -21 q 363 -54 338 -110 q 312 -167 312 -236 l 312 -236 q 312 -292 330 -343 q 347 -395 384 -439 q 421 -483 480 -517 l 480 -517 q 486 -520 491 -523 q 496 -526 502 -529 l 502 -529 q 539 -547 586 -557 q 632 -568 689 -568 l 689 -568 q 758 -568 804 -552 q 849 -537 881 -511 q 913 -485 937 -453 l 937 -453 l 973 -239 l 973 0 l 868 0 l 868 -272 q 868 -346 857 -385 q 845 -425 817 -449 l 817 -449 q 795 -469 764 -480 q 733 -491 680 -491 l 680 -491 q 652 -491 627 -487 q 601 -484 581 -478 l 581 -478 q 535 -465 503 -438 q 470 -411 450 -376 q 430 -342 421 -306 q 412 -271 412 -239 l 412 -239 q 412 -154 448 -110 q 483 -66 549 -66 l 549 -66 q 598 -66 622 -85 q 646 -104 646 -141 l 646 -141 q 646 -175 620 -194 q 593 -214 536 -214 l 536 -214 l 514 -214 l 514 -294 l 530 -294 q 588 -294 612 -314 q 635 -335 635 -370 l 635 -370 q 635 -411 605 -438 q 574 -466 508 -477 l 508 -477 q 473 -486 443 -488 q 413 -490 386 -490 l 386 -490 q 304 -490 251 -462 q 198 -434 172 -385 q 145 -337 145 -275 l 145 -275 q 145 -225 159 -185 q 173 -145 199 -114 q 225 -83 262 -57 l 262 -57 l 197 10 q 154 -19 118 -59 q 82 -99 60 -153 q 38 -208 38 -278 l 38 -278 q 38 -338 58 -390 q 78 -443 119 -483 q 160 -523 225 -545 q 289 -568 378 -568 z m 1154 -568 l 1154 -568 q 1242 -568 1308 -538 q 1373 -509 1414 -456 q 1455 -403 1471 -333 l 1471 -333 q 1477 -307 1480 -280 q 1483 -254 1483 -225 l 1483 -225 q 1483 -144 1456 -91 q 1429 -38 1380 -13 q 1331 12 1263 12 l 1263 12 q 1195 12 1152 -14 q 1109 -41 1088 -84 q 1067 -127 1067 -174 l 1067 -174 q 1067 -274 1139 -331 q 1210 -388 1341 -388 l 1341 -388 q 1354 -388 1367 -387 q 1379 -387 1392 -385 l 1392 -385 l 1424 -382 q 1502 -370 1558 -330 q 1614 -290 1644 -229 q 1674 -168 1674 -94 l 1674 -94 q 1674 -28 1654 27 q 1633 81 1593 120 q 1553 159 1493 180 q 1432 201 1352 201 l 1352 201 q 1301 201 1257 193 q 1213 184 1180 173 l 1180 173 l 1212 93 q 1242 105 1276 112 q 1310 118 1352 118 l 1352 118 q 1414 118 1456 101 q 1497 84 1523 55 q 1549 26 1560 -12 q 1571 -51 1571 -94 l 1571 -94 q 1571 -145 1558 -183 q 1544 -221 1518 -248 q 1492 -275 1454 -292 l 1454 -292 l 1416 -299 q 1398 -304 1379 -306 q 1360 -309 1342 -309 l 1342 -309 q 1286 -309 1248 -293 q 1209 -278 1190 -248 q 1170 -219 1170 -173 l 1170 -173 q 1170 -147 1180 -122 q 1189 -98 1211 -83 q 1232 -68 1267 -68 l 1267 -68 q 1324 -68 1354 -107 q 1383 -146 1383 -226 l 1383 -226 q 1383 -256 1379 -284 q 1375 -313 1367 -339 l 1367 -339 l 1361 -361 q 1346 -398 1319 -426 q 1292 -454 1252 -470 q 1211 -486 1153 -486 l 1153 -486 q 1118 -486 1086 -477 q 1053 -468 1027 -446 l 1027 -446 q 1011 -431 999 -410 q 987 -389 980 -357 q 973 -325 973 -274 l 973 -274 l 973 -206 l 908 -456 q 935 -491 971 -516 q 1006 -541 1052 -554 q 1097 -568 1154 -568 z"},"ഇ":{"ha":1007,"x_min":39,"x_max":968,"o":"m 340 -568 l 340 -568 q 402 -568 445 -555 q 488 -543 518 -521 q 548 -499 569 -471 l 569 -471 l 544 -476 q 579 -528 624 -548 q 669 -568 727 -568 l 727 -568 q 789 -568 835 -546 q 880 -524 910 -486 q 939 -449 954 -402 q 968 -355 968 -306 l 968 -306 q 968 -218 943 -158 q 917 -98 868 -61 l 868 -61 q 840 -41 805 -27 q 769 -13 721 -6 q 672 0 604 0 l 604 0 l 275 0 q 232 0 212 3 q 192 6 180 12 l 180 12 q 165 19 159 31 q 153 42 153 57 l 153 57 q 153 71 158 83 q 162 94 174 101 l 174 101 q 186 110 208 115 q 229 119 272 119 l 272 119 l 947 119 l 947 201 l 263 201 q 209 201 171 193 q 132 184 106 169 l 106 169 q 77 151 63 124 q 48 97 48 63 l 48 63 q 48 27 62 -1 q 75 -30 105 -49 l 105 -49 q 120 -59 140 -66 q 159 -73 186 -76 q 213 -80 252 -80 l 252 -80 l 580 -80 q 655 -80 700 -88 q 745 -96 772 -111 q 798 -127 817 -148 l 817 -148 q 844 -178 853 -217 q 862 -257 862 -301 l 862 -301 q 862 -348 848 -390 q 833 -432 802 -459 q 770 -486 720 -486 l 720 -486 q 691 -486 670 -477 q 648 -469 634 -450 l 634 -450 q 618 -430 612 -399 q 605 -368 605 -305 l 605 -305 l 605 -129 l 501 -129 l 501 -306 q 501 -368 490 -400 q 478 -432 457 -452 l 457 -452 q 438 -470 410 -479 q 381 -488 335 -488 l 335 -488 q 294 -488 263 -479 q 231 -471 207 -456 q 182 -441 165 -419 q 147 -398 136 -372 l 136 -372 q 135 -367 136 -361 q 136 -356 134 -352 l 134 -352 q 132 -342 131 -331 q 129 -320 129 -308 l 129 -308 q 129 -253 151 -223 q 172 -194 215 -194 l 215 -194 q 256 -194 275 -217 q 294 -241 294 -274 l 294 -274 q 294 -295 286 -311 q 278 -328 262 -338 q 245 -348 218 -348 l 218 -348 q 176 -348 149 -327 q 121 -306 100 -284 l 100 -284 l 60 -328 q 77 -349 104 -370 q 130 -391 165 -405 q 199 -420 238 -420 l 238 -420 q 292 -420 326 -399 q 360 -379 376 -346 q 392 -313 392 -274 l 392 -274 q 392 -234 374 -198 q 355 -162 316 -140 q 277 -118 216 -118 l 216 -118 q 163 -118 123 -141 q 83 -165 61 -208 q 39 -252 39 -314 l 39 -314 q 39 -385 75 -442 q 111 -500 178 -534 q 245 -568 340 -568 z"},"ഈ":{"ha":1786,"x_min":39,"x_max":1748,"o":"m 340 -568 l 340 -568 q 402 -568 445 -555 q 488 -543 518 -521 q 548 -499 569 -471 l 569 -471 l 544 -476 q 579 -528 624 -548 q 669 -568 727 -568 l 727 -568 q 789 -568 835 -546 q 880 -524 910 -486 q 939 -449 954 -402 q 968 -355 968 -306 l 968 -306 q 968 -218 943 -158 q 917 -98 868 -61 l 868 -61 q 840 -41 805 -27 q 769 -13 721 -6 q 672 0 604 0 l 604 0 l 275 0 q 232 0 212 3 q 192 6 180 12 l 180 12 q 165 19 159 31 q 153 42 153 57 l 153 57 q 153 71 158 83 q 162 94 174 101 l 174 101 q 186 110 208 115 q 229 119 272 119 l 272 119 l 947 119 l 947 201 l 263 201 q 209 201 171 193 q 132 184 106 169 l 106 169 q 77 151 63 124 q 48 97 48 63 l 48 63 q 48 27 62 -1 q 75 -30 105 -49 l 105 -49 q 120 -59 140 -66 q 159 -73 186 -76 q 213 -80 252 -80 l 252 -80 l 580 -80 q 655 -80 700 -88 q 745 -96 772 -111 q 798 -127 817 -148 l 817 -148 q 844 -178 853 -217 q 862 -257 862 -301 l 862 -301 q 862 -348 848 -390 q 833 -432 802 -459 q 770 -486 720 -486 l 720 -486 q 691 -486 670 -477 q 648 -469 634 -450 l 634 -450 q 618 -430 612 -399 q 605 -368 605 -305 l 605 -305 l 605 -129 l 501 -129 l 501 -306 q 501 -368 490 -400 q 478 -432 457 -452 l 457 -452 q 438 -470 410 -479 q 381 -488 335 -488 l 335 -488 q 294 -488 263 -479 q 231 -471 207 -456 q 182 -441 165 -419 q 147 -398 136 -372 l 136 -372 q 135 -367 136 -361 q 136 -356 134 -352 l 134 -352 q 132 -342 131 -331 q 129 -320 129 -308 l 129 -308 q 129 -253 151 -223 q 172 -194 215 -194 l 215 -194 q 256 -194 275 -217 q 294 -241 294 -274 l 294 -274 q 294 -295 286 -311 q 278 -328 262 -338 q 245 -348 218 -348 l 218 -348 q 176 -348 149 -327 q 121 -306 100 -284 l 100 -284 l 60 -328 q 77 -349 104 -370 q 130 -391 165 -405 q 199 -420 238 -420 l 238 -420 q 292 -420 326 -399 q 360 -379 376 -346 q 392 -313 392 -274 l 392 -274 q 392 -234 374 -198 q 355 -162 316 -140 q 277 -118 216 -118 l 216 -118 q 163 -118 123 -141 q 83 -165 61 -208 q 39 -252 39 -314 l 39 -314 q 39 -385 75 -442 q 111 -500 178 -534 q 245 -568 340 -568 z m 1536 -568 l 1536 -568 q 1603 -568 1650 -535 q 1697 -503 1723 -443 q 1748 -384 1748 -306 l 1748 -306 q 1748 -205 1716 -134 q 1683 -63 1620 -25 q 1556 12 1463 12 l 1463 12 q 1389 12 1336 -1 q 1283 -15 1232 -41 l 1232 -41 l 1278 -119 q 1319 -96 1360 -83 q 1400 -70 1456 -70 l 1456 -70 q 1527 -70 1568 -101 q 1609 -132 1626 -185 q 1642 -238 1642 -305 l 1642 -305 q 1642 -400 1612 -443 q 1581 -487 1531 -487 l 1531 -487 q 1503 -487 1484 -476 q 1465 -465 1454 -446 l 1454 -446 q 1445 -430 1443 -407 q 1440 -385 1440 -344 l 1440 -344 l 1440 -259 l 1336 -259 l 1336 -333 q 1336 -375 1333 -403 q 1329 -431 1319 -447 l 1319 -447 q 1306 -468 1287 -477 q 1268 -487 1245 -487 l 1245 -487 q 1195 -487 1171 -454 q 1146 -421 1146 -374 l 1146 -374 q 1146 -342 1150 -319 q 1154 -296 1161 -276 l 1161 -276 l 1062 -255 q 1052 -283 1047 -317 q 1042 -351 1042 -378 l 1042 -378 q 1042 -430 1063 -473 q 1084 -516 1128 -542 q 1172 -568 1239 -568 l 1239 -568 q 1294 -568 1331 -547 q 1367 -526 1392 -489 l 1392 -489 l 1379 -490 q 1409 -532 1447 -550 q 1485 -568 1536 -568 z"},"ഉ":{"ha":712,"x_min":39,"x_max":674,"o":"m 356 -568 l 356 -568 q 445 -568 506 -544 q 566 -520 604 -480 q 641 -440 658 -391 q 674 -342 674 -292 l 674 -292 q 674 -220 654 -167 q 633 -114 592 -79 l 592 -79 q 558 -50 515 -32 q 472 -15 415 -7 q 357 0 280 0 l 280 0 l 274 0 q 232 0 212 3 q 192 6 180 12 l 180 12 q 165 19 159 31 q 153 42 153 57 l 153 57 q 153 71 158 83 q 162 94 174 101 l 174 101 q 186 110 208 115 q 229 119 272 119 l 272 119 l 654 119 l 654 201 l 263 201 q 209 201 171 193 q 132 184 106 169 l 106 169 q 77 151 63 124 q 48 97 48 63 l 48 63 q 48 27 62 -1 q 75 -30 105 -49 l 105 -49 q 128 -64 161 -72 q 194 -80 252 -80 l 252 -80 l 260 -80 q 339 -80 390 -87 q 441 -95 474 -110 q 506 -126 527 -150 l 527 -150 q 549 -175 559 -210 q 568 -246 568 -291 l 568 -291 q 568 -327 557 -362 q 545 -397 520 -425 q 494 -454 452 -471 q 409 -488 347 -488 l 347 -488 q 302 -488 267 -479 q 231 -470 205 -454 q 179 -438 162 -415 q 144 -393 134 -366 l 134 -366 q 133 -362 135 -358 q 136 -355 135 -352 l 135 -352 q 132 -342 131 -331 q 129 -321 129 -308 l 129 -308 q 129 -253 151 -223 q 172 -194 215 -194 l 215 -194 q 256 -194 275 -217 q 294 -241 294 -274 l 294 -274 q 294 -295 286 -311 q 278 -328 262 -338 q 245 -348 218 -348 l 218 -348 q 176 -348 149 -327 q 121 -306 100 -284 l 100 -284 l 60 -328 q 77 -349 104 -370 q 130 -391 165 -405 q 199 -420 238 -420 l 238 -420 q 292 -420 326 -399 q 360 -379 376 -346 q 392 -313 392 -274 l 392 -274 q 392 -234 374 -198 q 355 -162 316 -140 q 277 -118 216 -118 l 216 -118 q 163 -118 123 -141 q 83 -165 61 -208 q 39 -252 39 -314 l 39 -314 q 39 -366 60 -412 q 80 -458 121 -493 q 161 -528 220 -548 q 279 -568 356 -568 z"},"ഊ":{"ha":1491,"x_min":39,"x_max":1453,"o":"m 356 -568 l 356 -568 q 445 -568 506 -544 q 566 -520 604 -480 q 641 -440 658 -391 q 674 -342 674 -292 l 674 -292 q 674 -220 654 -167 q 633 -114 592 -79 l 592 -79 q 558 -50 515 -32 q 472 -15 415 -7 q 357 0 280 0 l 280 0 l 274 0 q 232 0 212 3 q 192 6 180 12 l 180 12 q 165 19 159 31 q 153 42 153 57 l 153 57 q 153 71 158 83 q 162 94 174 101 l 174 101 q 186 110 208 115 q 229 119 272 119 l 272 119 l 654 119 l 654 201 l 263 201 q 209 201 171 193 q 132 184 106 169 l 106 169 q 77 151 63 124 q 48 97 48 63 l 48 63 q 48 27 62 -1 q 75 -30 105 -49 l 105 -49 q 128 -64 161 -72 q 194 -80 252 -80 l 252 -80 l 260 -80 q 339 -80 390 -87 q 441 -95 474 -110 q 506 -126 527 -150 l 527 -150 q 549 -175 559 -210 q 568 -246 568 -291 l 568 -291 q 568 -327 557 -362 q 545 -397 520 -425 q 494 -454 452 -471 q 409 -488 347 -488 l 347 -488 q 302 -488 267 -479 q 231 -470 205 -454 q 179 -438 162 -415 q 144 -393 134 -366 l 134 -366 q 133 -362 135 -358 q 136 -355 135 -352 l 135 -352 q 132 -342 131 -331 q 129 -321 129 -308 l 129 -308 q 129 -253 151 -223 q 172 -194 215 -194 l 215 -194 q 256 -194 275 -217 q 294 -241 294 -274 l 294 -274 q 294 -295 286 -311 q 278 -328 262 -338 q 245 -348 218 -348 l 218 -348 q 176 -348 149 -327 q 121 -306 100 -284 l 100 -284 l 60 -328 q 77 -349 104 -370 q 130 -391 165 -405 q 199 -420 238 -420 l 238 -420 q 292 -420 326 -399 q 360 -379 376 -346 q 392 -313 392 -274 l 392 -274 q 392 -234 374 -198 q 355 -162 316 -140 q 277 -118 216 -118 l 216 -118 q 163 -118 123 -141 q 83 -165 61 -208 q 39 -252 39 -314 l 39 -314 q 39 -366 60 -412 q 80 -458 121 -493 q 161 -528 220 -548 q 279 -568 356 -568 z m 1241 -568 l 1241 -568 q 1308 -568 1355 -535 q 1402 -503 1428 -443 q 1453 -384 1453 -306 l 1453 -306 q 1453 -205 1421 -134 q 1388 -63 1325 -25 q 1261 12 1168 12 l 1168 12 q 1094 12 1041 -1 q 988 -15 937 -41 l 937 -41 l 983 -119 q 1024 -96 1065 -83 q 1105 -70 1161 -70 l 1161 -70 q 1232 -70 1273 -101 q 1314 -132 1331 -185 q 1347 -238 1347 -305 l 1347 -305 q 1347 -400 1317 -443 q 1286 -487 1236 -487 l 1236 -487 q 1208 -487 1189 -476 q 1170 -465 1159 -446 l 1159 -446 q 1150 -430 1148 -407 q 1145 -385 1145 -344 l 1145 -344 l 1145 -259 l 1041 -259 l 1041 -333 q 1041 -375 1038 -403 q 1034 -431 1024 -447 l 1024 -447 q 1011 -468 992 -477 q 973 -487 950 -487 l 950 -487 q 900 -487 876 -454 q 851 -421 851 -374 l 851 -374 q 851 -342 855 -319 q 859 -296 866 -276 l 866 -276 l 767 -255 q 757 -283 752 -317 q 747 -351 747 -378 l 747 -378 q 747 -430 768 -473 q 789 -516 833 -542 q 877 -568 944 -568 l 944 -568 q 999 -568 1036 -547 q 1072 -526 1097 -489 l 1097 -489 l 1084 -490 q 1114 -532 1152 -550 q 1190 -568 1241 -568 z"},"ഋ":{"ha":912,"x_min":36,"x_max":876,"o":"m 682 -568 l 682 -568 q 771 -568 824 -512 q 876 -457 876 -356 l 876 -356 q 876 -286 850 -233 q 823 -181 774 -143 l 774 -143 q 732 -111 671 -96 q 609 -82 510 -82 l 510 -82 l 400 -82 q 338 -82 294 -86 q 249 -91 217 -102 q 185 -113 158 -129 l 158 -129 q 99 -167 68 -224 q 36 -282 36 -354 l 36 -354 q 36 -420 61 -468 q 86 -516 132 -542 q 177 -568 241 -568 l 241 -568 q 302 -568 342 -545 q 381 -522 400 -484 q 419 -446 419 -401 l 419 -401 q 419 -356 400 -320 q 381 -285 344 -264 q 306 -244 250 -244 l 250 -244 q 204 -244 170 -258 q 135 -272 111 -293 q 86 -315 69 -335 l 69 -335 l 95 -408 q 110 -388 128 -368 q 145 -348 170 -334 q 195 -321 233 -321 l 233 -321 q 278 -321 299 -344 q 320 -367 320 -404 l 320 -404 q 320 -441 299 -465 q 277 -490 235 -490 l 235 -490 q 201 -490 178 -474 q 154 -458 143 -429 q 131 -400 131 -361 l 131 -361 q 131 -346 133 -333 q 134 -320 138 -308 l 138 -308 l 132 -293 q 148 -252 175 -225 q 201 -199 239 -184 q 276 -170 325 -164 q 374 -159 433 -159 l 433 -159 l 474 -159 q 537 -159 588 -165 q 638 -171 676 -185 q 714 -200 740 -226 q 766 -252 781 -293 l 781 -293 l 775 -307 q 778 -320 780 -332 q 781 -344 781 -354 l 781 -354 q 781 -399 770 -429 q 758 -459 736 -474 q 713 -490 681 -490 l 681 -490 q 637 -490 615 -465 q 592 -441 592 -404 l 592 -404 q 592 -367 614 -344 q 635 -321 679 -321 l 679 -321 q 717 -321 742 -333 q 767 -346 785 -365 q 803 -385 818 -404 l 818 -404 l 843 -333 q 827 -314 803 -293 q 778 -272 744 -258 q 709 -244 662 -244 l 662 -244 q 606 -244 569 -264 q 531 -285 512 -321 q 493 -358 493 -403 l 493 -403 q 493 -446 514 -484 q 534 -522 576 -545 q 618 -568 682 -568 z m 460 224 l 460 224 q 334 224 250 205 q 165 185 123 143 q 81 100 81 30 l 81 30 q 81 -15 107 -46 q 133 -78 177 -97 q 220 -116 276 -124 q 332 -133 392 -133 l 392 -133 l 515 -133 q 578 -133 636 -124 q 693 -116 737 -97 q 780 -78 806 -45 q 831 -13 831 33 l 831 33 q 831 93 794 136 q 757 179 676 202 q 594 224 460 224 z m 459 141 l 459 141 q 555 141 614 129 q 672 116 699 92 q 726 67 726 32 l 726 32 q 726 -4 705 -25 q 683 -46 646 -57 q 609 -69 562 -73 q 514 -77 461 -77 l 461 -77 l 448 -77 q 376 -77 317 -68 q 257 -60 222 -36 q 187 -13 187 31 l 187 31 q 187 69 214 94 q 240 118 300 130 q 360 141 459 141 z"},"ഌ":{"ha":1206,"x_min":41,"x_max":1168,"o":"m 370 -568 l 370 -568 q 456 -568 510 -541 q 563 -515 605 -464 l 605 -464 l 622 -395 l 636 -228 l 636 0 l 532 0 l 532 -295 q 532 -359 521 -394 q 510 -429 488 -449 l 488 -449 q 467 -468 440 -477 q 413 -486 369 -486 l 369 -486 q 299 -486 247 -455 q 195 -424 166 -368 q 137 -313 137 -239 l 137 -239 l 137 -231 q 137 -175 152 -138 q 166 -102 191 -84 q 215 -67 248 -67 l 248 -67 q 272 -67 290 -77 q 307 -88 317 -109 q 327 -130 327 -160 l 327 -160 q 327 -206 304 -230 q 280 -255 239 -255 l 239 -255 q 201 -255 167 -234 q 132 -214 101 -181 l 101 -181 l 87 -254 q 116 -288 162 -311 q 208 -334 261 -334 l 261 -334 q 311 -334 349 -314 q 386 -294 407 -257 q 427 -220 427 -168 l 427 -168 q 427 -112 406 -71 q 384 -31 344 -9 q 304 12 248 12 l 248 12 q 194 12 146 -14 q 98 -40 70 -96 q 41 -152 41 -241 l 41 -241 q 41 -348 85 -420 q 129 -493 204 -530 q 278 -568 370 -568 z m 946 12 l 946 12 q 878 12 834 -17 q 789 -47 767 -95 q 745 -143 745 -199 l 745 -199 q 745 -293 796 -349 q 847 -406 936 -406 l 936 -406 q 993 -406 1036 -376 q 1079 -347 1104 -301 q 1129 -256 1131 -205 l 1131 -205 l 1097 -208 q 1091 -238 1073 -265 q 1054 -292 1026 -309 q 997 -327 959 -327 l 959 -327 q 900 -327 873 -292 q 846 -257 846 -199 l 846 -199 q 846 -161 857 -131 q 868 -101 890 -84 q 912 -68 948 -68 l 948 -68 q 986 -68 1012 -86 q 1038 -104 1053 -143 q 1067 -182 1067 -245 l 1067 -245 q 1067 -257 1066 -271 q 1064 -286 1061 -301 l 1061 -301 q 1060 -308 1060 -316 q 1060 -325 1058 -333 l 1058 -333 q 1051 -370 1024 -405 q 996 -440 948 -463 q 899 -486 826 -486 l 826 -486 q 783 -486 750 -477 q 717 -468 691 -446 l 691 -446 q 674 -431 662 -410 q 649 -389 643 -357 q 636 -326 636 -276 l 636 -276 l 636 -206 l 574 -459 q 600 -490 634 -515 q 667 -540 714 -554 q 760 -568 828 -568 l 828 -568 q 912 -568 976 -543 q 1039 -519 1082 -474 q 1125 -430 1147 -370 q 1168 -311 1168 -241 l 1168 -241 q 1168 -152 1140 -96 q 1111 -40 1061 -14 q 1011 12 946 12 z"},"എ":{"ha":1309,"x_min":31,"x_max":1266,"o":"m 240 -351 l 240 -351 q 311 -351 357 -324 q 403 -298 426 -257 q 448 -217 448 -172 l 448 -172 q 448 -135 436 -105 q 424 -76 408 -61 l 408 -61 l 387 -80 l 889 -80 l 886 0 l 341 0 l 305 -54 q 323 -73 335 -97 q 347 -122 347 -159 l 347 -159 q 347 -209 320 -240 q 293 -271 240 -271 l 240 -271 q 206 -271 182 -256 q 158 -242 146 -217 q 133 -193 133 -163 l 133 -163 q 133 -127 148 -99 q 162 -71 188 -49 l 188 -49 l 122 8 q 81 -25 56 -68 q 31 -111 31 -167 l 31 -167 q 31 -222 57 -263 q 83 -304 130 -327 q 177 -351 240 -351 z m 928 -568 l 928 -568 q 1010 -568 1072 -542 q 1134 -517 1178 -466 q 1221 -416 1244 -342 q 1266 -269 1266 -173 l 1266 -173 q 1266 -102 1250 -31 q 1233 40 1200 106 q 1167 172 1115 228 l 1115 228 l 1038 173 q 1081 124 1108 69 q 1134 14 1146 -47 q 1158 -109 1158 -175 l 1158 -175 q 1158 -235 1147 -291 q 1135 -347 1108 -391 q 1081 -435 1037 -461 q 992 -487 926 -487 l 926 -487 q 846 -487 793 -443 q 740 -400 714 -322 q 688 -244 688 -139 l 688 -139 q 688 -114 689 -92 q 690 -70 692 -49 l 692 -49 q 692 -44 693 -39 q 693 -35 693 -29 l 693 -29 q 698 36 716 76 q 734 115 760 133 q 785 150 812 150 l 812 150 q 840 150 853 131 l 853 131 q 858 123 861 110 q 864 96 864 73 l 864 73 l 864 -401 l 968 -401 l 968 53 q 968 103 959 134 q 950 165 930 186 l 930 186 q 911 206 883 217 q 855 228 816 228 l 816 228 q 747 228 694 188 q 641 147 612 64 q 582 -19 582 -144 l 582 -144 q 582 -238 604 -316 q 626 -394 670 -450 q 714 -507 779 -537 q 843 -568 928 -568 z"},"ഏ":{"ha":1313,"x_min":31,"x_max":1281,"o":"m 240 -351 l 240 -351 q 311 -351 357 -324 q 403 -298 426 -257 q 448 -217 448 -172 l 448 -172 q 448 -135 436 -105 q 424 -76 408 -61 l 408 -61 l 384 -80 l 887 -80 l 886 0 l 341 0 l 305 -54 q 323 -73 335 -97 q 347 -122 347 -159 l 347 -159 q 347 -209 320 -240 q 293 -271 240 -271 l 240 -271 q 206 -271 182 -256 q 158 -241 146 -217 q 133 -193 133 -163 l 133 -163 q 133 -127 148 -99 q 162 -72 188 -49 l 188 -49 l 122 8 q 81 -25 56 -68 q 31 -111 31 -167 l 31 -167 q 31 -222 57 -263 q 83 -304 130 -327 q 177 -351 240 -351 z m 972 -568 l 972 -568 q 1053 -568 1111 -548 q 1168 -529 1203 -495 q 1238 -462 1255 -420 q 1271 -378 1271 -333 l 1271 -333 q 1271 -285 1255 -248 q 1238 -212 1211 -185 q 1184 -158 1149 -141 l 1149 -141 l 1151 -147 q 1212 -124 1247 -81 q 1281 -38 1281 34 l 1281 34 q 1281 100 1255 143 q 1229 186 1184 207 q 1138 228 1078 228 l 1078 228 q 1061 228 1036 226 q 1011 224 996 220 l 996 220 l 1013 141 q 1025 144 1041 146 q 1057 147 1066 147 l 1066 147 q 1102 147 1127 133 q 1151 119 1163 93 q 1175 67 1175 31 l 1175 31 q 1175 -25 1140 -62 q 1105 -99 1033 -99 l 1033 -99 l 1033 -178 q 1076 -188 1105 -206 q 1134 -224 1150 -255 q 1165 -286 1165 -331 l 1165 -331 q 1165 -370 1146 -405 q 1127 -441 1085 -463 q 1042 -486 970 -486 l 970 -486 q 869 -486 807 -441 q 744 -397 716 -319 q 688 -241 688 -139 l 688 -139 q 688 -115 689 -92 q 690 -69 692 -49 l 692 -49 q 692 -44 693 -39 q 693 -35 693 -29 l 693 -29 q 698 36 716 76 q 734 115 760 133 q 785 150 812 150 l 812 150 q 840 150 853 131 l 853 131 q 858 123 861 110 q 864 96 864 73 l 864 73 l 864 -401 l 968 -401 l 968 53 q 968 103 959 134 q 950 165 930 186 l 930 186 q 911 206 883 217 q 855 228 816 228 l 816 228 q 747 228 694 188 q 641 147 612 64 q 582 -19 582 -145 l 582 -145 q 582 -238 607 -315 q 631 -393 680 -449 q 728 -506 801 -537 q 874 -568 972 -568 z"},"ഐ":{"ha":2046,"x_min":37,"x_max":2002,"o":"m 245 12 l 245 12 q 190 12 143 -14 q 95 -40 66 -95 q 37 -150 37 -235 l 37 -235 q 37 -312 63 -373 q 89 -435 136 -478 q 183 -522 247 -545 q 310 -568 386 -568 l 386 -568 q 466 -568 525 -546 q 583 -524 622 -484 q 660 -445 679 -393 q 697 -341 697 -281 l 697 -281 q 697 -212 677 -158 q 656 -104 621 -62 q 585 -21 538 10 l 538 10 l 475 -57 q 507 -80 533 -110 q 559 -140 575 -180 q 590 -221 590 -273 l 590 -273 q 590 -338 566 -385 q 542 -433 495 -459 q 448 -486 379 -486 l 379 -486 q 308 -486 253 -452 q 197 -419 166 -361 q 134 -304 134 -231 l 134 -231 q 134 -174 149 -137 q 163 -101 188 -84 q 213 -67 245 -67 l 245 -67 q 269 -67 287 -77 q 305 -88 315 -109 q 325 -130 325 -160 l 325 -160 q 325 -205 301 -230 q 277 -255 237 -255 l 237 -255 q 199 -255 164 -235 q 129 -215 99 -181 l 99 -181 l 84 -254 q 113 -288 159 -311 q 204 -334 257 -334 l 257 -334 q 309 -334 347 -314 q 384 -294 405 -257 q 425 -220 425 -168 l 425 -168 q 425 -112 403 -71 q 381 -31 341 -9 q 301 12 245 12 z m 977 -351 l 977 -351 q 1048 -351 1094 -324 q 1140 -298 1163 -257 q 1185 -217 1185 -172 l 1185 -172 q 1185 -135 1173 -105 q 1161 -76 1145 -61 l 1145 -61 l 1124 -80 l 1626 -80 l 1623 0 l 1078 0 l 1042 -54 q 1060 -73 1072 -97 q 1084 -122 1084 -159 l 1084 -159 q 1084 -209 1057 -240 q 1030 -271 977 -271 l 977 -271 q 943 -271 919 -256 q 895 -242 883 -217 q 870 -193 870 -163 l 870 -163 q 870 -127 885 -99 q 899 -71 925 -49 l 925 -49 l 859 8 q 818 -25 793 -68 q 768 -111 768 -167 l 768 -167 q 768 -222 794 -263 q 820 -304 867 -327 q 914 -351 977 -351 z m 1665 -568 l 1665 -568 q 1747 -568 1809 -542 q 1871 -517 1915 -466 q 1958 -416 1981 -342 q 2003 -269 2003 -173 l 2003 -173 q 2003 -102 1987 -31 q 1970 40 1937 106 q 1904 172 1852 228 l 1852 228 l 1775 173 q 1818 124 1845 69 q 1871 14 1883 -47 q 1895 -109 1895 -175 l 1895 -175 q 1895 -235 1884 -291 q 1872 -347 1845 -391 q 1818 -435 1774 -461 q 1729 -487 1663 -487 l 1663 -487 q 1583 -487 1530 -443 q 1477 -400 1451 -322 q 1425 -244 1425 -139 l 1425 -139 q 1425 -114 1426 -92 q 1427 -70 1429 -49 l 1429 -49 q 1429 -44 1430 -39 q 1430 -35 1430 -29 l 1430 -29 q 1435 36 1453 76 q 1471 115 1497 133 q 1522 150 1549 150 l 1549 150 q 1577 150 1590 131 l 1590 131 q 1595 123 1598 110 q 1601 96 1601 73 l 1601 73 l 1601 -401 l 1705 -401 l 1705 53 q 1705 103 1696 134 q 1687 165 1667 186 l 1667 186 q 1648 206 1620 217 q 1592 228 1553 228 l 1553 228 q 1484 228 1431 188 q 1378 147 1349 64 q 1319 -19 1319 -144 l 1319 -144 q 1319 -238 1341 -316 q 1363 -394 1407 -450 q 1451 -507 1516 -537 q 1580 -568 1665 -568 z"},"ഒ":{"ha":781,"x_min":38,"x_max":743,"o":"m 462 -568 l 462 -568 q 562 -568 621 -547 q 680 -526 706 -489 q 732 -453 732 -405 l 732 -405 q 732 -378 722 -353 q 712 -329 690 -309 q 668 -290 632 -275 l 632 -275 l 629 -281 q 685 -264 714 -227 q 743 -191 743 -141 l 743 -141 q 743 -70 695 -29 q 646 11 558 11 l 558 11 q 526 11 500 8 q 474 4 454 0 l 454 0 l 472 -79 q 489 -75 506 -72 q 523 -69 543 -69 l 543 -69 q 591 -69 615 -87 q 639 -105 639 -148 l 639 -148 q 639 -165 632 -180 q 625 -196 610 -209 l 610 -209 q 595 -221 572 -228 q 549 -236 503 -236 l 503 -236 l 482 -236 l 482 -316 l 504 -316 q 538 -316 564 -323 q 590 -330 606 -345 l 606 -345 q 617 -355 622 -367 q 627 -380 627 -398 l 627 -398 q 627 -438 588 -462 q 549 -486 457 -486 l 457 -486 q 385 -486 326 -468 q 267 -450 225 -417 q 182 -385 159 -339 q 135 -294 135 -238 l 135 -238 l 135 -229 q 135 -174 150 -138 q 164 -102 189 -84 q 213 -67 246 -67 l 246 -67 q 270 -67 288 -77 q 306 -88 316 -109 q 326 -130 326 -160 l 326 -160 q 326 -206 302 -230 q 278 -255 238 -255 l 238 -255 q 203 -255 171 -238 q 139 -221 111 -191 l 111 -191 l 110 -278 q 138 -301 177 -317 q 215 -334 258 -334 l 258 -334 q 310 -334 348 -314 q 385 -294 406 -257 q 426 -220 426 -168 l 426 -168 q 426 -112 404 -71 q 382 -31 342 -9 q 301 12 246 12 l 246 12 q 191 12 144 -14 q 96 -40 67 -94 q 38 -148 38 -232 l 38 -232 q 38 -308 68 -370 q 97 -433 152 -477 q 207 -522 286 -545 q 364 -568 462 -568 z"},"ഓ":{"ha":1302,"x_min":38,"x_max":1261,"o":"m 462 -568 l 462 -568 q 562 -568 621 -547 q 680 -526 706 -489 q 732 -453 732 -405 l 732 -405 q 732 -378 722 -353 q 712 -329 690 -309 q 668 -290 632 -275 l 632 -275 l 629 -281 q 685 -264 714 -227 q 743 -191 743 -141 l 743 -141 q 743 -70 695 -29 q 646 11 558 11 l 558 11 q 526 11 500 8 q 474 4 454 0 l 454 0 l 472 -79 q 489 -75 506 -72 q 523 -69 543 -69 l 543 -69 q 591 -69 615 -87 q 639 -105 639 -148 l 639 -148 q 639 -165 632 -180 q 625 -196 610 -209 l 610 -209 q 595 -221 572 -228 q 549 -236 503 -236 l 503 -236 l 482 -236 l 482 -316 l 504 -316 q 538 -316 564 -323 q 590 -330 606 -345 l 606 -345 q 617 -355 622 -367 q 627 -380 627 -398 l 627 -398 q 627 -438 588 -462 q 549 -486 457 -486 l 457 -486 q 385 -486 326 -468 q 267 -450 225 -417 q 182 -385 159 -339 q 135 -294 135 -238 l 135 -238 l 135 -229 q 135 -174 150 -138 q 164 -102 189 -84 q 213 -67 246 -67 l 246 -67 q 270 -67 288 -77 q 306 -88 316 -109 q 326 -130 326 -160 l 326 -160 q 326 -206 302 -230 q 278 -255 238 -255 l 238 -255 q 203 -255 171 -238 q 139 -221 111 -191 l 111 -191 l 110 -278 q 138 -301 177 -317 q 215 -334 258 -334 l 258 -334 q 310 -334 348 -314 q 385 -294 406 -257 q 426 -220 426 -168 l 426 -168 q 426 -112 404 -71 q 382 -31 342 -9 q 301 12 246 12 l 246 12 q 191 12 144 -14 q 96 -40 67 -94 q 38 -148 38 -232 l 38 -232 q 38 -308 68 -370 q 97 -433 152 -477 q 207 -522 286 -545 q 364 -568 462 -568 z m 1261 -280 l 1261 -280 q 1261 -222 1249 -169 q 1237 -117 1209 -76 q 1181 -35 1135 -11 q 1089 12 1019 12 l 1019 12 q 964 12 924 -5 q 884 -22 858 -49 q 831 -77 816 -109 q 801 -142 794 -173 l 794 -173 l 899 -192 q 906 -166 919 -137 q 932 -108 956 -88 q 980 -68 1019 -68 l 1019 -68 q 1068 -68 1098 -95 q 1127 -122 1141 -169 q 1154 -217 1154 -279 l 1154 -279 q 1154 -341 1141 -388 q 1127 -435 1098 -461 q 1069 -488 1023 -488 l 1023 -488 q 986 -488 962 -468 q 937 -449 923 -421 q 909 -393 902 -366 l 902 -366 l 798 -385 q 807 -418 824 -450 q 841 -482 868 -509 q 895 -536 935 -552 q 975 -568 1029 -568 l 1029 -568 q 1095 -568 1139 -544 q 1183 -521 1210 -480 q 1237 -440 1249 -388 q 1261 -337 1261 -280 z"},"ഔ":{"ha":1555,"x_min":38,"x_max":1517,"o":"m 462 -568 l 462 -568 q 562 -568 621 -547 q 680 -526 706 -489 q 732 -453 732 -405 l 732 -405 q 732 -378 722 -353 q 712 -329 690 -309 q 668 -290 632 -275 l 632 -275 l 629 -281 q 685 -264 714 -227 q 743 -191 743 -141 l 743 -141 q 743 -70 695 -29 q 646 11 558 11 l 558 11 q 526 11 500 8 q 474 4 454 0 l 454 0 l 472 -79 q 489 -75 506 -72 q 523 -69 543 -69 l 543 -69 q 591 -69 615 -87 q 639 -105 639 -148 l 639 -148 q 639 -165 632 -180 q 625 -196 610 -209 l 610 -209 q 595 -221 572 -228 q 549 -236 503 -236 l 503 -236 l 482 -236 l 482 -316 l 504 -316 q 538 -316 564 -323 q 590 -330 606 -345 l 606 -345 q 617 -355 622 -367 q 627 -380 627 -398 l 627 -398 q 627 -438 588 -462 q 549 -486 457 -486 l 457 -486 q 385 -486 326 -468 q 267 -450 225 -417 q 182 -385 159 -339 q 135 -294 135 -238 l 135 -238 l 135 -229 q 135 -174 150 -138 q 164 -102 189 -84 q 213 -67 246 -67 l 246 -67 q 270 -67 288 -77 q 306 -88 316 -109 q 326 -130 326 -160 l 326 -160 q 326 -206 302 -230 q 278 -255 238 -255 l 238 -255 q 203 -255 171 -238 q 139 -221 111 -191 l 111 -191 l 110 -278 q 138 -301 177 -317 q 215 -334 258 -334 l 258 -334 q 310 -334 348 -314 q 385 -294 406 -257 q 426 -220 426 -168 l 426 -168 q 426 -112 404 -71 q 382 -31 342 -9 q 301 12 246 12 l 246 12 q 191 12 144 -14 q 96 -40 67 -94 q 38 -148 38 -232 l 38 -232 q 38 -308 68 -370 q 97 -433 152 -477 q 207 -522 286 -545 q 364 -568 462 -568 z m 1304 -568 l 1304 -568 q 1371 -568 1418 -535 q 1465 -503 1491 -443 q 1516 -384 1516 -306 l 1516 -306 q 1516 -205 1484 -134 q 1451 -63 1388 -25 q 1324 12 1231 12 l 1231 12 q 1157 12 1104 -1 q 1051 -15 1000 -41 l 1000 -41 l 1046 -119 q 1087 -96 1128 -83 q 1168 -70 1224 -70 l 1224 -70 q 1295 -70 1336 -101 q 1377 -132 1394 -185 q 1410 -238 1410 -305 l 1410 -305 q 1410 -400 1380 -443 q 1349 -487 1299 -487 l 1299 -487 q 1271 -487 1252 -476 q 1233 -465 1222 -446 l 1222 -446 q 1213 -430 1211 -407 q 1208 -385 1208 -344 l 1208 -344 l 1208 -259 l 1104 -259 l 1104 -333 q 1104 -375 1101 -403 q 1097 -431 1087 -447 l 1087 -447 q 1074 -468 1055 -477 q 1036 -487 1013 -487 l 1013 -487 q 963 -487 939 -454 q 914 -421 914 -374 l 914 -374 q 914 -342 918 -319 q 922 -296 929 -276 l 929 -276 l 830 -255 q 820 -283 815 -317 q 810 -351 810 -378 l 810 -378 q 810 -430 831 -473 q 852 -516 896 -542 q 940 -568 1007 -568 l 1007 -568 q 1062 -568 1099 -547 q 1135 -526 1160 -489 l 1160 -489 l 1147 -490 q 1177 -532 1215 -550 q 1253 -568 1304 -568 z"},"ക":{"ha":1071,"x_min":31,"x_max":1040,"o":"m 220 12 l 220 12 q 128 12 80 -32 q 31 -77 31 -155 l 31 -155 q 31 -203 53 -237 q 75 -272 110 -293 l 110 -293 q 135 -307 165 -316 q 195 -326 237 -330 q 279 -334 340 -334 l 340 -334 l 743 -334 q 830 -334 884 -323 q 937 -313 975 -287 l 975 -287 q 1004 -266 1022 -234 q 1040 -203 1040 -155 l 1040 -155 q 1040 -76 992 -32 q 943 12 857 12 l 857 12 q 832 12 807 10 q 782 7 759 0 l 759 0 l 780 -77 q 793 -73 811 -70 q 829 -68 845 -68 l 845 -68 q 891 -68 914 -90 q 937 -112 937 -154 l 937 -154 q 937 -181 927 -198 q 916 -216 899 -227 l 899 -227 q 873 -244 837 -248 q 800 -253 740 -253 l 740 -253 l 328 -253 q 264 -253 230 -248 q 196 -243 170 -227 l 170 -227 q 154 -217 144 -199 q 133 -181 133 -157 l 133 -157 q 133 -127 145 -107 q 156 -87 178 -77 q 200 -68 230 -68 l 230 -68 q 260 -68 292 -78 q 323 -88 358 -115 l 358 -115 l 412 -50 q 381 -28 352 -14 q 322 -1 291 6 q 259 12 220 12 z m 540 -568 l 540 -568 q 625 -568 679 -530 q 733 -493 759 -428 q 784 -363 784 -280 l 784 -280 q 784 -186 755 -120 q 726 -55 672 -21 q 617 12 541 12 l 541 12 q 483 12 437 -7 q 391 -26 359 -63 l 359 -63 q 327 -101 310 -156 q 293 -211 293 -280 l 293 -280 q 293 -414 359 -491 q 425 -568 540 -568 z m 540 -488 l 540 -488 q 467 -488 432 -436 q 396 -384 396 -279 l 396 -279 q 396 -209 412 -162 q 428 -115 460 -91 q 492 -68 538 -68 l 538 -68 q 585 -68 617 -91 q 648 -114 665 -161 q 681 -208 681 -279 l 681 -279 q 681 -350 665 -396 q 649 -443 618 -465 q 586 -488 540 -488 z"},"ഖ":{"ha":1032,"x_min":38,"x_max":963,"o":"m 387 -568 l 387 -568 q 467 -568 526 -546 q 585 -524 623 -485 q 661 -446 680 -394 q 698 -342 698 -283 l 698 -283 q 698 -230 686 -189 q 673 -149 652 -115 q 631 -82 604 -52 l 604 -52 l 594 0 l 524 0 l 485 -56 q 514 -84 538 -114 q 562 -144 577 -183 q 591 -222 591 -273 l 591 -273 q 591 -339 566 -386 q 541 -434 494 -460 q 446 -486 380 -486 l 380 -486 q 309 -486 254 -453 q 198 -420 167 -364 q 135 -308 135 -238 l 135 -238 l 135 -229 q 135 -174 150 -138 q 164 -102 189 -84 q 213 -67 246 -67 l 246 -67 q 270 -67 288 -77 q 306 -88 316 -109 q 326 -130 326 -160 l 326 -160 q 326 -205 302 -230 q 278 -255 238 -255 l 238 -255 q 203 -255 171 -238 q 139 -221 111 -191 l 111 -191 l 110 -278 q 138 -301 177 -317 q 215 -334 258 -334 l 258 -334 q 310 -334 348 -314 q 385 -294 406 -257 q 426 -220 426 -168 l 426 -168 q 426 -112 404 -71 q 382 -31 342 -9 q 302 12 246 12 l 246 12 q 191 12 144 -14 q 96 -40 67 -95 q 38 -150 38 -235 l 38 -235 q 38 -338 84 -412 q 129 -487 208 -527 q 287 -568 387 -568 z m 859 -556 l 963 -556 l 963 0 l 560 0 l 585 -80 l 859 -80 l 859 -556 z"},"ഗ":{"ha":920,"x_min":38,"x_max":882,"o":"m 634 -568 l 634 -568 q 710 -568 766 -534 q 821 -501 852 -439 q 882 -378 882 -295 l 882 -295 q 882 -230 865 -176 q 847 -122 814 -76 q 780 -31 731 9 l 731 9 l 662 -56 q 698 -85 723 -119 q 748 -154 762 -196 q 776 -239 776 -291 l 776 -291 q 776 -351 758 -395 q 740 -439 708 -462 q 676 -486 633 -486 l 633 -486 q 597 -486 575 -473 q 553 -461 540 -441 l 540 -441 q 525 -418 519 -378 q 513 -339 513 -261 l 513 -261 l 513 -248 q 513 -202 507 -166 q 501 -130 490 -102 q 478 -75 458 -52 l 458 -52 q 431 -22 390 -5 q 348 12 288 12 l 288 12 q 212 12 156 -21 q 99 -54 69 -116 q 38 -178 38 -263 l 38 -263 q 38 -331 56 -384 q 73 -438 107 -483 q 141 -528 190 -569 l 190 -569 l 258 -503 q 223 -474 198 -439 q 172 -405 158 -362 q 144 -319 144 -267 l 144 -267 q 144 -204 162 -160 q 179 -117 211 -93 q 243 -70 283 -70 l 283 -70 q 324 -70 346 -82 q 367 -94 381 -114 l 381 -114 q 397 -138 402 -179 q 406 -220 406 -291 l 406 -291 l 406 -309 q 406 -378 420 -424 q 434 -470 462 -502 l 462 -502 q 491 -534 531 -551 q 571 -568 634 -568 z"},"ഘ":{"ha":1366,"x_min":31,"x_max":1297,"o":"m 240 -568 l 240 -568 q 311 -568 357 -542 q 403 -516 426 -475 q 448 -435 448 -390 l 448 -390 q 448 -354 436 -324 q 424 -295 408 -280 l 408 -280 l 387 -300 l 591 -300 l 603 -219 l 341 -219 l 305 -273 q 323 -291 335 -316 q 347 -342 347 -378 l 347 -378 q 347 -428 320 -458 q 293 -488 240 -488 l 240 -488 q 205 -488 182 -474 q 158 -460 146 -435 q 133 -411 133 -382 l 133 -382 q 133 -346 148 -318 q 162 -291 188 -268 l 188 -268 l 122 -211 q 81 -244 56 -287 q 31 -330 31 -386 l 31 -386 q 31 -440 57 -481 q 83 -522 130 -545 q 177 -568 240 -568 z m 1193 -556 l 1297 -556 l 1297 0 l 545 0 l 545 -310 q 545 -386 563 -430 q 580 -475 610 -504 l 610 -504 q 642 -536 689 -552 q 735 -568 796 -568 l 796 -568 q 858 -568 904 -552 q 950 -537 981 -506 l 981 -506 q 1014 -473 1029 -426 q 1044 -380 1044 -316 l 1044 -316 l 1044 -219 l 649 -219 l 649 -80 l 1193 -80 l 1193 -556 z m 795 -488 l 795 -488 q 718 -488 684 -446 q 649 -405 649 -322 l 649 -322 l 649 -300 l 940 -300 l 940 -321 q 940 -408 905 -448 q 870 -488 795 -488 z"},"ങ":{"ha":1098,"x_min":41,"x_max":1061,"o":"m 370 -568 l 370 -568 q 456 -568 510 -541 q 563 -515 605 -464 l 605 -464 l 621 -388 l 636 -228 l 636 0 l 532 0 l 532 -295 q 532 -359 521 -394 q 510 -429 488 -449 l 488 -449 q 467 -468 440 -477 q 413 -486 369 -486 l 369 -486 q 299 -486 247 -455 q 195 -424 166 -368 q 137 -313 137 -239 l 137 -239 l 137 -231 q 137 -175 152 -138 q 166 -102 191 -84 q 215 -67 248 -67 l 248 -67 q 272 -67 290 -77 q 307 -88 317 -109 q 327 -130 327 -160 l 327 -160 q 327 -206 304 -230 q 280 -255 239 -255 l 239 -255 q 201 -255 167 -234 q 132 -214 101 -181 l 101 -181 l 87 -254 q 116 -288 162 -311 q 208 -334 261 -334 l 261 -334 q 311 -334 349 -314 q 386 -294 407 -257 q 427 -220 427 -168 l 427 -168 q 427 -112 406 -71 q 384 -31 344 -9 q 304 12 248 12 l 248 12 q 194 12 146 -14 q 98 -40 70 -96 q 41 -152 41 -241 l 41 -241 q 41 -348 85 -420 q 129 -493 204 -530 q 278 -568 370 -568 z m 830 -568 l 830 -568 q 902 -568 951 -547 q 1000 -527 1025 -491 q 1050 -456 1050 -412 l 1050 -412 q 1050 -381 1040 -355 q 1030 -330 1008 -310 q 986 -291 950 -275 l 950 -275 l 947 -281 q 1004 -264 1033 -227 q 1061 -191 1061 -141 l 1061 -141 q 1061 -70 1013 -29 q 964 11 875 11 l 875 11 q 841 11 817 8 q 792 4 771 0 l 771 0 l 789 -79 q 809 -75 825 -72 q 840 -69 860 -69 l 860 -69 q 909 -69 933 -87 q 956 -105 956 -148 l 956 -148 q 956 -165 950 -180 q 943 -196 928 -209 l 928 -209 q 912 -221 889 -228 q 866 -236 817 -236 l 817 -236 l 788 -236 l 788 -316 l 816 -316 q 852 -316 880 -322 q 907 -329 923 -345 l 923 -345 q 934 -355 940 -369 q 945 -384 945 -402 l 945 -402 q 945 -444 914 -465 q 883 -487 829 -487 l 829 -487 q 780 -487 745 -472 q 710 -457 687 -431 l 687 -431 q 671 -413 660 -388 q 648 -364 642 -327 q 636 -290 636 -233 l 636 -233 l 636 -78 l 542 -78 l 542 -243 l 570 -418 q 590 -463 627 -497 q 663 -531 715 -549 q 766 -568 830 -568 z"},"ച":{"ha":957,"x_min":18,"x_max":889,"o":"m 785 -556 l 889 -556 l 889 0 l 18 0 l 18 -80 l 456 -80 l 396 -67 q 417 -81 437 -109 q 457 -138 457 -183 l 457 -183 q 457 -232 433 -261 q 409 -291 361 -291 l 361 -291 q 313 -291 289 -263 q 264 -235 264 -187 l 264 -187 q 264 -175 265 -166 q 266 -158 267 -151 l 267 -151 l 166 -140 q 164 -150 162 -166 q 160 -183 160 -198 l 160 -198 q 160 -277 215 -324 q 269 -371 363 -371 l 363 -371 q 418 -371 455 -355 q 492 -340 515 -314 q 537 -288 548 -256 q 558 -225 558 -192 l 558 -192 q 558 -164 551 -140 q 544 -117 532 -97 q 520 -78 505 -63 l 505 -63 l 480 -80 l 785 -80 l 785 -556 z"},"ഛ":{"ha":1387,"x_min":18,"x_max":1348,"o":"m 363 -371 l 363 -371 q 418 -371 455 -355 q 492 -340 515 -314 q 537 -288 548 -256 q 558 -225 558 -192 l 558 -192 q 558 -164 551 -140 q 544 -117 532 -97 q 520 -78 505 -63 l 505 -63 l 480 -80 l 783 -80 l 817 0 l 18 0 l 18 -80 l 456 -80 l 396 -67 q 417 -81 437 -109 q 457 -138 457 -183 l 457 -183 q 457 -232 433 -261 q 409 -291 361 -291 l 361 -291 q 313 -291 289 -263 q 264 -235 264 -187 l 264 -187 q 264 -175 265 -166 q 266 -158 267 -151 l 267 -151 l 166 -140 q 164 -150 162 -166 q 160 -183 160 -198 l 160 -198 q 160 -277 215 -324 q 269 -371 363 -371 z m 999 -568 l 999 -568 q 1087 -568 1153 -543 q 1218 -519 1262 -474 q 1305 -430 1327 -370 q 1348 -310 1348 -240 l 1348 -240 q 1348 -152 1320 -96 q 1292 -40 1242 -14 q 1192 12 1128 12 l 1128 12 q 1059 12 1014 -17 q 969 -47 948 -95 q 926 -143 926 -199 l 926 -199 q 926 -293 977 -349 q 1028 -406 1117 -406 l 1117 -406 q 1174 -406 1217 -376 q 1260 -347 1285 -301 q 1310 -256 1312 -205 l 1312 -205 l 1278 -208 q 1271 -238 1253 -265 q 1234 -292 1206 -309 q 1177 -327 1139 -327 l 1139 -327 q 1081 -327 1054 -292 q 1027 -257 1027 -199 l 1027 -199 q 1027 -161 1038 -131 q 1048 -101 1071 -84 q 1094 -68 1130 -68 l 1130 -68 q 1167 -68 1193 -86 q 1219 -104 1233 -143 q 1247 -182 1247 -245 l 1247 -245 q 1247 -251 1246 -270 q 1244 -290 1241 -309 l 1241 -309 q 1240 -314 1240 -321 q 1240 -329 1238 -333 l 1238 -333 q 1229 -374 1200 -409 q 1171 -444 1122 -465 q 1073 -486 1004 -486 l 1004 -486 q 931 -486 879 -461 q 827 -436 800 -389 q 772 -342 772 -275 l 772 -275 q 772 -223 787 -184 q 801 -145 825 -114 q 849 -84 878 -57 l 878 -57 l 839 0 l 795 0 l 777 -37 q 748 -64 723 -100 q 697 -136 681 -181 q 665 -226 665 -280 l 665 -280 q 665 -336 685 -388 q 704 -440 745 -480 q 785 -521 848 -544 q 911 -568 999 -568 z"},"ജ":{"ha":959,"x_min":37,"x_max":920,"o":"m 303 -568 l 303 -568 q 360 -568 403 -557 q 446 -547 480 -525 q 513 -503 541 -468 l 541 -468 l 508 -479 q 540 -520 584 -544 q 628 -568 697 -568 l 697 -568 q 775 -568 824 -539 q 873 -511 897 -467 q 920 -423 920 -375 l 920 -375 q 920 -334 909 -303 q 898 -273 877 -250 q 855 -227 821 -209 l 821 -209 l 640 -175 l 561 -167 q 533 -163 495 -161 q 456 -160 427 -160 l 427 -160 l 242 -160 q 205 -160 186 -157 q 167 -155 156 -150 l 156 -150 q 144 -143 139 -134 q 134 -126 134 -114 l 134 -114 q 134 -93 145 -82 q 156 -71 173 -67 q 189 -63 205 -63 l 205 -63 q 248 -63 288 -71 q 327 -80 364 -93 q 401 -107 438 -121 l 438 -121 q 464 -131 490 -140 q 515 -150 540 -158 q 565 -167 589 -174 q 613 -182 635 -187 l 635 -187 q 659 -195 674 -202 q 688 -210 699 -216 q 709 -223 720 -226 q 731 -230 749 -230 l 749 -230 q 786 -230 819 -219 q 852 -208 873 -182 q 893 -157 893 -115 l 893 -115 q 893 -54 853 -21 q 812 12 739 12 l 739 12 q 680 12 646 -7 q 611 -27 596 -57 q 581 -88 581 -120 l 581 -120 q 581 -151 599 -173 q 617 -195 642 -204 l 642 -204 l 714 -218 q 704 -212 693 -200 q 681 -188 673 -170 q 664 -152 664 -126 l 664 -126 q 664 -89 684 -73 q 704 -57 737 -57 l 737 -57 q 774 -57 790 -74 q 805 -91 805 -115 l 805 -115 q 805 -138 795 -150 q 785 -163 769 -169 q 753 -175 735 -175 l 735 -175 q 710 -175 689 -165 q 668 -156 645 -138 l 645 -138 l 641 -152 q 629 -140 612 -126 q 594 -113 572 -99 q 550 -86 520 -73 l 520 -73 q 463 -47 411 -27 q 358 -8 307 2 q 256 12 202 12 l 202 12 q 159 12 121 1 q 83 -11 60 -38 q 37 -66 37 -113 l 37 -113 q 37 -142 50 -166 q 62 -191 88 -207 l 88 -207 q 110 -220 143 -227 q 176 -234 233 -234 l 233 -234 l 569 -234 q 624 -234 662 -237 q 700 -241 727 -249 q 754 -257 771 -270 l 771 -270 q 796 -287 807 -311 q 818 -336 818 -369 l 818 -369 q 818 -397 806 -424 q 793 -452 764 -470 q 735 -489 686 -489 l 686 -489 q 655 -489 633 -480 q 611 -471 597 -455 l 597 -455 q 580 -435 574 -404 q 567 -374 567 -317 l 567 -317 l 567 -260 l 469 -260 l 469 -318 q 469 -365 460 -401 q 451 -437 421 -462 l 421 -462 q 403 -476 376 -485 q 348 -494 300 -494 l 300 -494 q 250 -494 211 -486 q 172 -478 147 -455 l 147 -455 q 143 -451 141 -444 q 138 -437 136 -431 l 136 -431 q 130 -417 128 -406 q 126 -396 126 -382 l 126 -382 q 126 -341 146 -324 q 166 -308 198 -308 l 198 -308 q 224 -308 238 -317 q 252 -326 259 -340 q 265 -355 265 -369 l 265 -369 q 265 -397 248 -413 q 230 -429 195 -429 l 195 -429 q 160 -429 133 -414 q 105 -400 87 -384 l 87 -384 l 75 -419 q 100 -446 139 -462 q 177 -479 220 -479 l 220 -479 q 266 -479 295 -463 q 324 -448 338 -422 q 352 -397 352 -367 l 352 -367 q 352 -334 337 -305 q 321 -276 288 -258 q 254 -241 199 -241 l 199 -241 q 125 -241 84 -278 q 42 -316 42 -386 l 42 -386 q 42 -438 72 -479 q 102 -521 160 -544 q 218 -568 303 -568 z"},"ഝ":{"ha":1705,"x_min":38,"x_max":1667,"o":"m 679 -568 l 679 -568 q 746 -568 795 -553 q 843 -539 879 -510 l 879 -510 q 920 -475 942 -422 q 963 -370 963 -279 l 963 -279 l 963 -255 q 963 -194 970 -160 q 977 -127 993 -106 l 993 -106 q 1006 -88 1026 -79 q 1046 -70 1075 -70 l 1075 -70 q 1102 -70 1122 -79 q 1142 -89 1155 -105 l 1155 -105 q 1172 -126 1180 -158 q 1187 -190 1187 -248 l 1187 -248 l 1187 -556 l 1291 -556 l 1291 -263 q 1291 -206 1296 -174 q 1300 -143 1314 -121 l 1314 -121 q 1330 -95 1355 -82 q 1379 -70 1411 -70 l 1411 -70 q 1454 -70 1488 -95 q 1522 -120 1542 -164 q 1561 -208 1561 -265 l 1561 -265 q 1561 -320 1547 -362 q 1533 -405 1507 -439 q 1481 -473 1448 -499 l 1448 -499 l 1519 -566 q 1563 -529 1597 -486 q 1630 -443 1649 -389 q 1667 -335 1667 -264 l 1667 -264 q 1667 -187 1637 -124 q 1607 -62 1551 -25 q 1494 12 1412 12 l 1412 12 q 1347 12 1306 -12 q 1264 -36 1233 -78 l 1233 -78 l 1240 -77 q 1222 -50 1197 -30 q 1171 -10 1139 1 q 1106 12 1063 12 l 1063 12 q 1014 12 976 -3 q 937 -19 911 -49 l 911 -49 q 896 -67 884 -91 q 871 -115 865 -153 q 858 -192 858 -251 l 858 -251 l 858 -261 q 858 -310 851 -346 q 844 -383 830 -409 q 816 -436 794 -454 l 794 -454 q 773 -471 743 -480 q 712 -490 672 -490 l 672 -490 q 655 -490 632 -488 q 608 -486 583 -478 l 583 -478 l 556 -466 q 515 -447 484 -412 q 452 -377 434 -329 q 415 -282 415 -225 l 415 -225 q 415 -163 431 -129 q 446 -95 471 -81 q 496 -68 524 -68 l 524 -68 q 553 -68 578 -81 q 603 -95 618 -129 q 632 -163 632 -223 l 632 -223 q 632 -278 614 -326 q 596 -374 563 -411 q 530 -448 486 -468 l 486 -468 l 464 -477 q 442 -484 421 -487 q 399 -490 373 -490 l 373 -490 q 298 -490 248 -462 q 197 -434 171 -385 q 145 -337 145 -275 l 145 -275 q 145 -225 159 -185 q 173 -145 199 -114 q 225 -83 262 -57 l 262 -57 l 197 10 q 154 -19 118 -59 q 82 -99 60 -153 q 38 -208 38 -278 l 38 -278 q 38 -338 58 -390 q 78 -443 119 -483 q 159 -523 220 -545 q 281 -568 363 -568 l 363 -568 q 415 -568 458 -558 q 501 -549 542 -527 l 542 -527 l 567 -510 q 643 -468 691 -393 q 738 -319 738 -222 l 738 -222 q 738 -148 714 -95 q 689 -43 641 -15 q 593 12 524 12 l 524 12 q 456 12 408 -16 q 359 -44 334 -96 q 309 -149 309 -222 l 309 -222 q 309 -287 330 -340 q 351 -393 389 -435 q 427 -478 478 -507 l 478 -507 l 502 -525 q 547 -549 592 -558 q 636 -568 679 -568 z"},"ഞ":{"ha":1497,"x_min":41,"x_max":1459,"o":"m 370 -568 l 370 -568 q 456 -568 510 -541 q 563 -515 605 -464 l 605 -464 l 609 -438 l 636 -239 l 636 0 l 532 0 l 532 -295 q 532 -360 521 -394 q 510 -429 488 -449 l 488 -449 q 467 -468 441 -477 q 415 -486 369 -486 l 369 -486 q 299 -486 247 -455 q 195 -424 166 -368 q 137 -313 137 -239 l 137 -239 l 137 -231 q 137 -175 152 -138 q 166 -102 191 -84 q 215 -67 248 -67 l 248 -67 q 272 -67 290 -77 q 307 -88 317 -109 q 327 -130 327 -160 l 327 -160 q 327 -206 304 -230 q 280 -255 239 -255 l 239 -255 q 201 -255 167 -234 q 132 -214 101 -181 l 101 -181 l 87 -254 q 116 -288 162 -311 q 208 -334 261 -334 l 261 -334 q 311 -334 349 -314 q 386 -294 407 -257 q 427 -220 427 -168 l 427 -168 q 427 -112 406 -71 q 384 -31 344 -9 q 304 12 248 12 l 248 12 q 194 12 146 -14 q 98 -40 70 -96 q 41 -152 41 -241 l 41 -241 q 41 -348 85 -420 q 129 -493 204 -530 q 278 -568 370 -568 z m 820 -568 l 820 -568 q 872 -568 914 -558 q 955 -549 995 -527 l 995 -527 l 1021 -510 q 1093 -467 1140 -393 q 1186 -320 1186 -222 l 1186 -222 q 1186 -148 1162 -95 q 1137 -43 1089 -15 q 1041 12 972 12 l 972 12 q 903 12 855 -16 q 807 -44 782 -96 q 757 -149 757 -222 l 757 -222 q 757 -287 780 -340 q 803 -394 843 -436 q 882 -478 934 -508 l 934 -508 l 955 -524 q 997 -547 1045 -557 q 1092 -568 1150 -568 l 1150 -568 q 1230 -568 1288 -545 q 1346 -523 1384 -483 q 1422 -443 1441 -391 q 1459 -339 1459 -281 l 1459 -281 q 1459 -211 1439 -157 q 1418 -103 1382 -62 q 1346 -21 1299 10 l 1299 10 l 1236 -57 q 1268 -80 1294 -109 q 1320 -139 1336 -179 q 1352 -220 1352 -273 l 1352 -273 q 1352 -335 1328 -384 q 1304 -433 1257 -461 q 1209 -490 1140 -490 l 1140 -490 q 1109 -490 1084 -487 q 1059 -484 1035 -476 l 1035 -476 l 1008 -465 q 966 -446 933 -411 q 900 -376 882 -328 q 863 -281 863 -225 l 863 -225 q 863 -163 879 -129 q 894 -95 919 -81 q 944 -68 972 -68 l 972 -68 q 1001 -68 1026 -81 q 1050 -95 1065 -129 q 1080 -163 1080 -223 l 1080 -223 q 1080 -279 1063 -326 q 1046 -373 1015 -409 q 984 -446 943 -466 l 943 -466 l 918 -476 q 906 -481 892 -483 q 878 -486 862 -488 q 846 -490 825 -490 l 825 -490 q 773 -490 741 -477 q 709 -464 690 -446 l 690 -446 q 662 -420 649 -381 q 636 -343 636 -275 l 636 -275 l 636 -6 l 535 -6 l 535 -231 l 574 -460 q 600 -490 633 -515 q 666 -540 712 -554 q 757 -568 820 -568 z"},"ട":{"ha":577,"x_min":18,"x_max":552,"o":"m 276 -568 l 276 -568 q 367 -568 435 -548 q 503 -529 552 -502 l 552 -502 l 501 -427 q 458 -453 404 -469 q 350 -486 279 -486 l 279 -486 q 229 -486 199 -475 q 168 -464 153 -445 q 138 -426 138 -402 l 138 -402 q 138 -385 143 -373 q 148 -361 157 -353 l 157 -353 q 176 -334 213 -328 q 250 -323 301 -323 l 301 -323 l 315 -323 q 397 -323 443 -307 q 489 -291 515 -258 l 515 -258 q 531 -239 538 -214 q 544 -189 544 -160 l 544 -160 q 544 -110 517 -71 q 490 -32 435 -10 q 380 12 296 12 l 296 12 q 209 12 144 -7 q 78 -26 18 -59 l 18 -59 l 68 -134 q 100 -116 135 -101 q 169 -87 209 -79 q 249 -71 296 -71 l 296 -71 q 347 -71 379 -82 q 410 -93 425 -112 q 439 -132 439 -157 l 439 -157 q 439 -177 433 -192 q 427 -208 412 -218 l 412 -218 q 397 -229 370 -234 q 342 -240 288 -240 l 288 -240 l 276 -240 q 203 -240 148 -255 q 92 -270 64 -304 l 64 -304 q 49 -322 41 -346 q 33 -370 33 -401 l 33 -401 q 33 -449 59 -487 q 85 -525 139 -546 q 193 -568 276 -568 z"},"ഠ":{"ha":672,"x_min":38,"x_max":634,"o":"m 334 -568 l 334 -568 q 427 -568 495 -533 q 562 -498 598 -432 q 634 -367 634 -277 l 634 -277 q 634 -190 598 -125 q 562 -60 496 -24 q 429 12 336 12 l 336 12 q 235 12 169 -28 q 102 -69 70 -135 q 38 -202 38 -280 l 38 -280 q 38 -368 75 -432 q 111 -497 178 -532 q 244 -568 334 -568 z m 336 -70 l 336 -70 q 400 -70 442 -97 q 484 -124 506 -171 q 527 -219 527 -279 l 527 -279 q 527 -339 506 -386 q 484 -433 442 -459 q 400 -486 337 -486 l 337 -486 q 246 -486 196 -430 q 145 -374 145 -279 l 145 -279 q 145 -185 195 -127 q 244 -70 336 -70 z"},"ഡ":{"ha":1256,"x_min":38,"x_max":1217,"o":"m 613 12 l 613 12 q 564 12 526 -3 q 488 -18 461 -49 l 461 -49 q 446 -67 433 -90 q 420 -114 413 -152 q 406 -191 406 -252 l 406 -252 l 406 -287 q 406 -341 402 -380 q 397 -419 381 -442 l 381 -442 q 368 -463 346 -474 q 324 -486 283 -486 l 283 -486 q 243 -486 211 -463 q 179 -440 162 -396 q 144 -352 144 -290 l 144 -290 q 144 -238 158 -195 q 172 -152 197 -118 q 222 -84 257 -55 l 257 -55 l 190 12 q 141 -30 107 -74 q 73 -119 56 -173 q 38 -227 38 -294 l 38 -294 q 38 -379 69 -440 q 99 -502 156 -535 q 212 -568 288 -568 l 288 -568 q 348 -568 390 -551 q 431 -535 458 -504 l 458 -504 q 478 -482 490 -454 q 501 -426 507 -390 q 512 -355 512 -306 l 512 -306 l 512 -264 q 512 -196 519 -161 q 525 -126 542 -106 l 542 -106 q 555 -89 575 -79 q 595 -70 625 -70 l 625 -70 q 651 -70 672 -79 q 693 -89 706 -105 l 706 -105 q 723 -125 731 -157 q 738 -189 738 -246 l 738 -246 l 738 -556 l 842 -556 l 842 -261 q 842 -205 847 -174 q 851 -143 864 -121 l 864 -121 q 880 -95 905 -82 q 930 -70 961 -70 l 961 -70 q 1005 -70 1039 -94 q 1073 -119 1092 -163 q 1111 -208 1111 -266 l 1111 -266 q 1111 -320 1097 -362 q 1083 -405 1058 -439 q 1032 -473 998 -499 l 998 -499 l 1070 -566 q 1114 -529 1147 -486 q 1180 -443 1199 -388 q 1217 -334 1217 -263 l 1217 -263 q 1217 -186 1188 -123 q 1158 -61 1101 -24 q 1044 12 963 12 l 963 12 q 898 12 857 -11 q 816 -35 784 -77 l 784 -77 l 791 -77 q 761 -33 718 -10 q 675 12 613 12 z"},"ഢ":{"ha":1375,"x_min":38,"x_max":1334,"o":"m 613 12 l 613 12 q 564 12 526 -3 q 488 -18 461 -49 l 461 -49 q 446 -67 433 -90 q 420 -114 413 -153 q 406 -192 406 -253 l 406 -253 l 406 -287 q 406 -341 402 -380 q 397 -419 381 -442 l 381 -442 q 368 -463 346 -474 q 324 -486 283 -486 l 283 -486 q 243 -486 211 -463 q 179 -440 162 -396 q 144 -353 144 -291 l 144 -291 q 144 -239 158 -196 q 172 -153 197 -118 q 222 -84 257 -55 l 257 -55 l 190 12 q 140 -30 107 -75 q 73 -120 56 -173 q 38 -227 38 -295 l 38 -295 q 38 -380 69 -441 q 99 -502 156 -535 q 212 -568 288 -568 l 288 -568 q 348 -568 390 -551 q 431 -535 458 -504 l 458 -504 q 478 -482 490 -454 q 501 -426 507 -390 q 512 -355 512 -306 l 512 -306 l 512 -263 q 512 -196 519 -161 q 525 -127 542 -106 l 542 -106 q 555 -89 575 -79 q 595 -70 625 -70 l 625 -70 q 651 -70 672 -79 q 692 -89 706 -105 l 706 -105 q 723 -126 731 -157 q 738 -189 738 -247 l 738 -247 l 738 -556 l 842 -556 l 842 -278 l 791 -77 q 761 -34 718 -11 q 675 12 613 12 z m 1130 -568 l 1130 -568 q 1184 -568 1230 -542 q 1276 -517 1305 -461 q 1334 -406 1334 -315 l 1334 -315 q 1334 -210 1290 -137 q 1246 -64 1172 -26 q 1097 12 1004 12 l 1004 12 q 920 12 868 -13 q 816 -38 775 -85 l 775 -85 l 748 -308 l 748 -528 l 842 -528 l 842 -263 q 842 -195 854 -161 q 865 -127 886 -107 l 886 -107 q 907 -89 934 -79 q 961 -70 1006 -70 l 1006 -70 q 1076 -70 1128 -101 q 1180 -133 1209 -188 q 1237 -244 1237 -317 l 1237 -317 l 1237 -327 q 1237 -386 1223 -421 q 1208 -457 1183 -473 q 1158 -490 1127 -490 l 1127 -490 q 1103 -490 1086 -479 q 1068 -469 1058 -448 q 1048 -428 1048 -397 l 1048 -397 q 1048 -350 1072 -326 q 1095 -302 1135 -302 l 1135 -302 q 1176 -302 1210 -322 q 1243 -342 1274 -376 l 1274 -376 l 1288 -303 q 1259 -269 1214 -246 q 1169 -223 1115 -223 l 1115 -223 q 1064 -223 1026 -243 q 988 -263 968 -300 q 947 -338 947 -392 l 947 -392 q 947 -445 969 -484 q 990 -524 1031 -546 q 1072 -568 1130 -568 z"},"ണ":{"ha":1403,"x_min":41,"x_max":1364,"o":"m 370 -568 l 370 -568 q 456 -568 509 -541 q 562 -515 600 -470 l 600 -470 l 579 -478 q 612 -524 659 -546 q 705 -568 761 -568 l 761 -568 q 827 -568 869 -544 q 911 -521 939 -479 l 939 -479 l 927 -474 q 965 -526 1009 -547 q 1053 -568 1115 -568 l 1115 -568 q 1195 -568 1251 -532 q 1306 -496 1335 -434 q 1364 -372 1364 -294 l 1364 -294 q 1364 -228 1347 -174 q 1329 -120 1296 -75 q 1262 -31 1214 10 l 1214 10 l 1145 -56 q 1180 -85 1206 -119 q 1231 -154 1245 -196 q 1258 -239 1258 -291 l 1258 -291 q 1258 -350 1240 -393 q 1221 -437 1188 -461 q 1154 -486 1110 -486 l 1110 -486 q 1077 -486 1052 -474 q 1026 -462 1010 -436 l 1010 -436 q 997 -414 993 -383 q 988 -353 988 -292 l 988 -292 l 988 0 l 884 0 l 884 -315 q 884 -368 877 -400 q 870 -433 851 -453 l 851 -453 q 836 -469 814 -477 q 792 -486 760 -486 l 760 -486 q 731 -486 709 -476 q 687 -467 672 -450 l 672 -450 q 654 -430 646 -398 q 637 -366 637 -305 l 637 -305 l 637 0 l 533 0 l 533 -290 q 533 -358 522 -393 q 510 -429 488 -449 l 488 -449 q 467 -468 439 -477 q 410 -486 369 -486 l 369 -486 q 299 -486 247 -455 q 195 -424 166 -368 q 137 -313 137 -239 l 137 -239 l 137 -231 q 137 -175 152 -138 q 166 -102 191 -84 q 215 -67 248 -67 l 248 -67 q 272 -67 290 -77 q 307 -88 317 -109 q 327 -130 327 -160 l 327 -160 q 327 -206 304 -230 q 280 -255 239 -255 l 239 -255 q 201 -255 167 -234 q 132 -214 101 -181 l 101 -181 l 87 -254 q 116 -288 162 -311 q 208 -334 261 -334 l 261 -334 q 311 -334 349 -314 q 386 -294 407 -257 q 427 -220 427 -168 l 427 -168 q 427 -112 406 -71 q 384 -31 344 -9 q 304 12 248 12 l 248 12 q 194 12 146 -14 q 98 -40 70 -96 q 41 -152 41 -241 l 41 -241 q 41 -348 85 -420 q 129 -493 204 -530 q 278 -568 370 -568 z"},"ത":{"ha":1049,"x_min":38,"x_max":1011,"o":"m 524 12 l 524 12 q 456 12 408 -16 q 359 -44 334 -96 q 309 -149 309 -222 l 309 -222 q 309 -287 332 -340 q 355 -394 395 -436 q 434 -479 486 -508 l 486 -508 l 507 -524 q 549 -547 597 -557 q 644 -568 702 -568 l 702 -568 q 782 -568 841 -545 q 899 -523 937 -483 q 974 -443 993 -391 q 1011 -339 1011 -281 l 1011 -281 q 1011 -211 991 -157 q 970 -103 934 -62 q 898 -21 851 10 l 851 10 l 789 -57 q 821 -80 847 -109 q 873 -139 889 -179 q 904 -220 904 -273 l 904 -273 q 904 -337 880 -386 q 855 -435 808 -462 q 761 -490 692 -490 l 692 -490 q 661 -490 636 -487 q 611 -484 587 -476 l 587 -476 l 560 -465 q 518 -446 486 -411 q 453 -376 434 -328 q 415 -281 415 -225 l 415 -225 q 415 -163 431 -129 q 446 -95 471 -81 q 496 -68 524 -68 l 524 -68 q 553 -68 578 -81 q 603 -94 618 -128 q 632 -162 632 -223 l 632 -223 q 632 -278 614 -326 q 596 -374 563 -411 q 530 -448 486 -468 l 486 -468 l 464 -477 q 442 -484 421 -487 q 399 -490 373 -490 l 373 -490 q 298 -490 248 -462 q 197 -434 171 -386 q 145 -338 145 -275 l 145 -275 q 145 -225 159 -185 q 173 -145 199 -114 q 225 -83 262 -57 l 262 -57 l 197 10 q 154 -19 118 -59 q 82 -99 60 -153 q 38 -208 38 -278 l 38 -278 q 38 -338 58 -390 q 78 -443 119 -483 q 159 -523 220 -545 q 281 -568 363 -568 l 363 -568 q 414 -568 458 -558 q 501 -548 542 -526 l 542 -526 l 568 -509 q 643 -467 691 -393 q 738 -319 738 -222 l 738 -222 q 738 -148 714 -95 q 689 -43 641 -15 q 593 12 524 12 z"},"ഥ":{"ha":921,"x_min":69,"x_max":860,"o":"m 69 -556 l 173 -556 l 173 -80 l 398 -80 l 398 0 l 69 0 l 69 -556 z m 600 -568 l 600 -568 q 664 -568 712 -551 q 760 -534 792 -502 l 792 -502 q 828 -469 844 -419 q 860 -370 860 -290 l 860 -290 l 860 0 l 346 0 l 346 -288 q 346 -345 353 -384 q 360 -424 375 -452 q 390 -480 413 -503 l 413 -503 q 445 -533 492 -550 q 539 -568 600 -568 z m 601 -487 l 601 -487 q 565 -487 538 -476 q 511 -465 492 -446 l 492 -446 q 472 -425 461 -389 q 450 -353 450 -280 l 450 -280 l 450 -80 l 756 -80 l 756 -271 q 756 -345 745 -385 q 733 -425 713 -446 l 713 -446 q 694 -465 667 -476 q 640 -487 601 -487 z"},"ദ":{"ha":662,"x_min":50,"x_max":625,"o":"m 388 -568 l 388 -568 q 463 -568 514 -547 q 564 -527 589 -491 q 614 -456 614 -412 l 614 -412 q 614 -365 591 -331 q 568 -298 514 -275 l 514 -275 l 511 -281 q 567 -264 596 -228 q 625 -192 625 -143 l 625 -143 q 625 -70 574 -29 q 523 11 430 11 l 430 11 q 393 11 365 8 q 337 4 315 0 l 315 0 l 333 -79 q 356 -75 376 -72 q 396 -69 417 -69 l 417 -69 q 468 -69 494 -87 q 520 -105 520 -148 l 520 -148 q 520 -165 514 -180 q 507 -196 491 -209 l 491 -209 q 476 -221 453 -228 q 430 -236 382 -236 l 382 -236 l 334 -236 l 334 -316 l 380 -316 q 416 -316 443 -322 q 470 -329 487 -345 l 487 -345 q 498 -355 504 -369 q 509 -383 509 -402 l 509 -402 q 509 -444 477 -465 q 445 -487 385 -487 l 385 -487 q 306 -487 256 -451 q 205 -416 181 -355 q 156 -295 156 -216 l 156 -216 q 156 -165 162 -112 q 168 -60 181 -13 l 181 -13 l 83 4 q 67 -45 59 -106 q 50 -168 50 -220 l 50 -220 q 50 -325 88 -403 q 125 -481 201 -524 q 276 -568 388 -568 z"},"ധ":{"ha":935,"x_min":38,"x_max":897,"o":"m 639 12 l 639 12 q 593 12 561 0 q 528 -12 505 -33 q 481 -55 461 -82 l 461 -82 l 474 -81 q 441 -33 398 -10 q 354 12 289 12 l 289 12 q 209 12 153 -24 q 97 -61 68 -123 q 38 -186 38 -262 l 38 -262 q 38 -328 56 -381 q 73 -435 107 -480 q 140 -525 189 -566 l 189 -566 l 258 -500 q 223 -471 198 -436 q 172 -402 158 -360 q 144 -318 144 -265 l 144 -265 q 144 -207 163 -163 q 182 -119 216 -94 q 250 -70 294 -70 l 294 -70 q 332 -70 356 -83 q 380 -97 394 -121 l 394 -121 q 407 -142 412 -172 q 416 -202 416 -257 l 416 -257 l 416 -556 l 520 -556 l 520 -256 q 520 -202 525 -172 q 529 -142 542 -120 l 542 -120 q 557 -96 581 -83 q 605 -70 640 -70 l 640 -70 q 682 -70 717 -94 q 751 -118 771 -161 q 791 -205 791 -264 l 791 -264 q 791 -319 777 -361 q 763 -404 737 -438 q 711 -472 678 -499 l 678 -499 l 749 -566 q 793 -529 827 -485 q 860 -442 879 -388 q 897 -334 897 -263 l 897 -263 q 897 -183 866 -121 q 835 -59 778 -23 q 720 12 639 12 z"},"ന":{"ha":935,"x_min":38,"x_max":897,"o":"m 296 -568 l 296 -568 q 342 -568 375 -556 q 407 -544 431 -523 q 455 -503 474 -475 l 474 -475 l 461 -475 q 494 -524 538 -546 q 582 -568 647 -568 l 647 -568 q 726 -568 782 -532 q 838 -496 868 -434 q 897 -372 897 -294 l 897 -294 q 897 -229 880 -175 q 862 -122 829 -76 q 795 -31 746 9 l 746 9 l 677 -56 q 712 -85 738 -119 q 763 -154 777 -196 q 791 -239 791 -291 l 791 -291 q 791 -350 772 -394 q 753 -438 719 -462 q 685 -486 641 -486 l 641 -486 q 604 -486 580 -473 q 556 -460 541 -436 l 541 -436 q 528 -415 524 -384 q 519 -354 519 -300 l 519 -300 l 519 0 l 415 0 l 415 -300 q 415 -354 411 -384 q 407 -415 393 -436 l 393 -436 q 378 -461 354 -473 q 330 -486 296 -486 l 296 -486 q 253 -486 219 -462 q 184 -438 164 -394 q 144 -351 144 -293 l 144 -293 q 144 -238 159 -195 q 173 -152 199 -118 q 224 -85 257 -58 l 257 -58 l 186 9 q 142 -28 109 -71 q 76 -114 57 -168 q 38 -223 38 -293 l 38 -293 q 38 -374 70 -435 q 101 -497 159 -532 q 216 -568 296 -568 z"},"ഩ":{"ha":1052,"x_min":41,"x_max":1014,"o":"m 370 -568 l 370 -568 q 456 -568 509 -541 q 562 -515 600 -470 l 600 -470 l 582 -482 q 614 -527 658 -547 q 702 -568 764 -568 l 764 -568 q 843 -568 899 -532 q 955 -496 985 -434 q 1014 -372 1014 -294 l 1014 -294 q 1014 -228 997 -174 q 979 -121 946 -76 q 912 -31 863 9 l 863 9 l 795 -56 q 830 -85 855 -119 q 880 -154 894 -196 q 908 -239 908 -291 l 908 -291 q 908 -350 889 -394 q 870 -438 837 -462 q 803 -486 759 -486 l 759 -486 q 721 -486 698 -473 q 674 -460 659 -436 l 659 -436 q 646 -415 641 -384 q 636 -354 636 -296 l 636 -296 l 636 0 l 532 0 l 532 -294 q 532 -359 521 -394 q 510 -429 488 -449 l 488 -449 q 467 -468 440 -477 q 413 -486 369 -486 l 369 -486 q 299 -486 247 -455 q 195 -424 166 -368 q 137 -313 137 -239 l 137 -239 l 137 -231 q 137 -175 152 -138 q 166 -102 191 -84 q 215 -67 248 -67 l 248 -67 q 272 -67 290 -77 q 307 -88 317 -109 q 327 -130 327 -160 l 327 -160 q 327 -206 304 -230 q 280 -255 239 -255 l 239 -255 q 201 -255 167 -234 q 132 -214 101 -181 l 101 -181 l 87 -254 q 116 -288 162 -311 q 208 -334 261 -334 l 261 -334 q 311 -334 349 -314 q 386 -294 407 -257 q 427 -220 427 -168 l 427 -168 q 427 -112 406 -71 q 384 -31 344 -9 q 304 12 248 12 l 248 12 q 194 12 146 -14 q 98 -40 70 -96 q 41 -152 41 -241 l 41 -241 q 41 -348 85 -420 q 129 -493 204 -530 q 278 -568 370 -568 z"},"പ":{"ha":919,"x_min":31,"x_max":850,"o":"m 240 -351 l 240 -351 q 311 -351 357 -324 q 403 -298 426 -257 q 448 -217 448 -172 l 448 -172 q 448 -135 436 -105 q 424 -76 408 -61 l 408 -61 l 387 -80 l 746 -80 l 746 -556 l 850 -556 l 850 0 l 341 0 l 305 -54 q 323 -73 335 -97 q 347 -122 347 -159 l 347 -159 q 347 -209 320 -240 q 293 -271 240 -271 l 240 -271 q 206 -271 182 -256 q 158 -241 146 -217 q 133 -193 133 -163 l 133 -163 q 133 -127 148 -99 q 162 -72 188 -49 l 188 -49 l 122 8 q 82 -25 57 -68 q 31 -111 31 -167 l 31 -167 q 31 -222 57 -263 q 83 -304 130 -327 q 177 -351 240 -351 z"},"ഫ":{"ha":1165,"x_min":31,"x_max":1103,"o":"m 240 -351 l 240 -351 q 311 -351 357 -324 q 403 -298 426 -257 q 448 -217 448 -172 l 448 -172 q 448 -135 436 -105 q 424 -76 408 -61 l 408 -61 l 386 -80 l 669 -80 l 669 0 l 341 0 l 305 -54 q 323 -73 335 -97 q 347 -122 347 -159 l 347 -159 q 347 -209 320 -240 q 293 -271 240 -271 l 240 -271 q 206 -271 182 -256 q 158 -241 146 -217 q 133 -193 133 -163 l 133 -163 q 133 -127 148 -99 q 162 -71 188 -49 l 188 -49 l 122 8 q 81 -25 56 -68 q 31 -111 31 -167 l 31 -167 q 31 -222 57 -263 q 83 -304 130 -327 q 177 -351 240 -351 z m 843 -568 l 843 -568 q 908 -568 956 -551 q 1003 -534 1036 -502 l 1036 -502 q 1071 -469 1087 -419 q 1103 -370 1103 -290 l 1103 -290 l 1103 0 l 589 0 l 589 -288 q 589 -345 597 -384 q 604 -424 619 -452 q 634 -480 657 -503 l 657 -503 q 689 -533 736 -550 q 782 -568 843 -568 z m 845 -487 l 845 -487 q 809 -487 782 -476 q 754 -465 735 -446 l 735 -446 q 715 -425 704 -389 q 693 -353 693 -280 l 693 -280 l 693 -80 l 999 -80 l 999 -271 q 999 -345 988 -385 q 976 -425 956 -446 l 956 -446 q 937 -465 910 -476 q 883 -487 845 -487 z"},"ബ":{"ha":1346,"x_min":41,"x_max":1277,"o":"m 370 -568 l 370 -568 q 456 -568 509 -541 q 562 -515 600 -470 l 600 -470 l 621 -420 l 636 -261 l 636 0 l 532 0 l 532 -295 q 532 -359 521 -394 q 510 -429 488 -449 l 488 -449 q 467 -468 440 -477 q 413 -486 369 -486 l 369 -486 q 299 -486 247 -455 q 195 -424 166 -368 q 137 -313 137 -239 l 137 -239 l 137 -231 q 137 -175 152 -138 q 166 -102 191 -84 q 215 -67 248 -67 l 248 -67 q 272 -67 290 -77 q 307 -88 317 -109 q 327 -130 327 -160 l 327 -160 q 327 -206 304 -230 q 280 -255 239 -255 l 239 -255 q 201 -255 167 -234 q 132 -214 101 -181 l 101 -181 l 87 -254 q 116 -288 162 -311 q 208 -334 261 -334 l 261 -334 q 311 -334 349 -314 q 386 -294 407 -257 q 427 -220 427 -168 l 427 -168 q 427 -112 406 -71 q 384 -31 344 -9 q 304 12 248 12 l 248 12 q 194 12 146 -14 q 98 -40 70 -96 q 41 -152 41 -241 l 41 -241 q 41 -348 85 -420 q 129 -493 204 -530 q 278 -568 370 -568 z m 1173 -556 l 1277 -556 l 1277 0 l 841 0 l 803 -56 q 833 -88 856 -121 q 879 -154 893 -195 q 907 -236 907 -291 l 907 -291 q 907 -350 889 -394 q 870 -438 837 -462 q 803 -486 759 -486 l 759 -486 q 721 -486 698 -473 q 674 -460 659 -436 l 659 -436 q 646 -415 641 -384 q 636 -354 636 -296 l 636 -296 l 636 0 l 532 0 l 532 -253 l 583 -422 l 582 -482 q 614 -527 658 -547 q 701 -568 764 -568 l 764 -568 q 843 -568 899 -532 q 955 -496 984 -434 q 1013 -372 1013 -294 l 1013 -294 q 1013 -242 1003 -201 q 992 -161 975 -129 q 957 -97 934 -69 l 934 -69 l 909 -80 l 1173 -80 l 1173 -556 z"},"ഭ":{"ha":679,"x_min":50,"x_max":646,"o":"m 411 -568 l 411 -568 q 480 -568 533 -551 q 586 -535 616 -503 q 646 -471 646 -424 l 646 -424 q 646 -401 640 -381 q 634 -362 621 -348 l 621 -348 q 605 -329 579 -318 q 552 -308 497 -308 l 497 -308 l 467 -308 q 432 -308 415 -306 q 398 -304 389 -299 l 389 -299 q 380 -295 376 -287 q 372 -280 372 -271 l 372 -271 q 372 -247 398 -240 q 423 -234 466 -234 l 466 -234 l 479 -234 q 530 -234 562 -225 q 594 -217 613 -199 l 613 -199 q 630 -185 638 -164 q 646 -144 646 -116 l 646 -116 q 646 -79 626 -50 q 606 -21 565 -4 q 524 12 460 12 l 460 12 q 423 12 387 8 q 351 3 319 -5 q 287 -14 263 -24 l 263 -24 l 298 -100 q 336 -85 375 -77 q 413 -69 455 -69 l 455 -69 q 507 -69 527 -81 q 547 -94 547 -114 l 547 -114 q 547 -140 528 -147 q 508 -155 474 -155 l 474 -155 l 459 -155 q 390 -155 352 -167 q 314 -179 296 -202 l 296 -202 q 286 -215 280 -231 q 274 -247 274 -269 l 274 -269 q 274 -293 283 -314 q 291 -335 310 -350 l 310 -350 q 331 -368 365 -377 q 399 -387 456 -387 l 456 -387 l 494 -387 q 521 -387 533 -394 q 545 -402 545 -424 l 545 -424 q 545 -457 509 -472 q 472 -487 409 -487 l 409 -487 q 319 -487 264 -451 q 208 -416 182 -355 q 156 -295 156 -216 l 156 -216 q 156 -165 162 -112 q 168 -60 181 -13 l 181 -13 l 83 4 q 67 -45 59 -106 q 50 -168 50 -220 l 50 -220 q 50 -325 90 -403 q 129 -481 210 -524 q 290 -568 411 -568 z"},"മ":{"ha":750,"x_min":59,"x_max":691,"o":"m 366 -568 l 366 -568 q 450 -568 509 -549 q 568 -530 607 -495 l 607 -495 q 637 -470 655 -437 q 673 -405 682 -362 q 691 -320 691 -263 l 691 -263 l 691 0 l 59 0 l 59 -265 q 59 -319 68 -361 q 76 -403 95 -436 q 113 -469 140 -494 l 140 -494 q 179 -530 234 -549 q 288 -568 366 -568 z m 311 -487 l 311 -487 q 273 -487 244 -467 q 214 -448 195 -415 l 195 -415 q 180 -389 172 -350 q 163 -312 163 -256 l 163 -256 l 163 -68 l 156 -69 q 221 -119 273 -174 q 325 -230 355 -287 q 385 -344 385 -399 l 385 -399 q 385 -425 378 -444 q 370 -464 354 -475 q 338 -487 311 -487 z m 489 -386 l 489 -386 q 489 -330 464 -276 q 439 -223 394 -169 q 348 -115 286 -59 l 286 -59 l 277 -75 q 305 -78 333 -79 q 360 -80 383 -80 l 383 -80 l 587 -80 l 587 -250 q 587 -322 573 -368 q 559 -415 528 -444 q 497 -473 446 -488 l 446 -488 l 448 -495 q 465 -474 477 -449 q 489 -424 489 -386 z"},"യ":{"ha":1067,"x_min":38,"x_max":1026,"o":"m 683 12 l 683 12 q 637 12 594 3 q 551 -6 506 -29 l 506 -29 q 500 -32 491 -36 q 481 -40 475 -43 l 475 -43 q 418 -82 384 -129 q 350 -176 335 -229 q 319 -282 319 -337 l 319 -337 q 319 -376 328 -408 q 337 -440 352 -466 l 352 -466 l 360 -476 q 381 -509 410 -529 q 438 -549 472 -558 q 506 -568 542 -568 l 542 -568 q 646 -568 704 -506 q 761 -444 761 -332 l 761 -332 q 761 -241 721 -169 q 681 -98 614 -53 l 614 -53 q 605 -47 598 -42 q 590 -38 580 -33 l 580 -33 q 537 -10 489 1 q 440 12 387 12 l 387 12 q 303 12 239 -13 q 174 -39 129 -85 q 84 -132 61 -195 q 38 -259 38 -334 l 38 -334 q 38 -405 65 -457 q 92 -509 144 -538 q 195 -568 266 -568 l 266 -568 q 326 -568 371 -546 q 415 -525 444 -485 l 444 -485 l 368 -425 q 353 -452 329 -470 q 304 -488 266 -488 l 266 -488 q 230 -488 202 -470 q 174 -453 159 -418 q 143 -383 143 -333 l 143 -333 q 143 -261 172 -200 q 201 -140 257 -103 q 313 -66 394 -66 l 394 -66 q 417 -66 439 -68 q 461 -71 481 -76 l 481 -76 q 492 -80 504 -83 q 515 -86 525 -90 l 525 -90 q 559 -107 589 -140 q 618 -174 637 -222 q 656 -271 656 -332 l 656 -332 q 656 -390 640 -424 q 624 -458 598 -473 q 571 -488 542 -488 l 542 -488 q 506 -488 480 -470 q 453 -453 439 -418 q 424 -383 424 -332 l 424 -332 q 424 -279 440 -230 q 456 -182 486 -144 q 516 -107 556 -86 l 556 -86 q 566 -82 574 -82 q 581 -82 591 -79 l 591 -79 q 608 -74 632 -70 q 656 -66 683 -66 l 683 -66 q 761 -66 814 -97 q 866 -129 894 -185 q 921 -241 921 -313 l 921 -313 q 921 -369 904 -420 q 886 -472 851 -515 l 851 -515 l 932 -568 q 980 -513 1003 -448 q 1026 -383 1026 -315 l 1026 -315 q 1026 -246 1006 -186 q 985 -127 943 -82 q 900 -38 835 -13 q 770 12 683 12 z"},"ര":{"ha":760,"x_min":38,"x_max":722,"o":"m 373 -568 l 373 -568 q 461 -568 526 -543 q 591 -519 635 -474 q 678 -430 700 -370 q 722 -310 722 -240 l 722 -240 q 722 -152 694 -96 q 665 -40 616 -14 q 566 12 501 12 l 501 12 q 432 12 388 -17 q 343 -47 322 -95 q 300 -143 300 -199 l 300 -199 q 300 -293 351 -349 q 402 -406 491 -406 l 491 -406 q 548 -406 591 -376 q 634 -347 659 -301 q 683 -256 686 -205 l 686 -205 l 652 -208 q 645 -238 627 -265 q 609 -292 580 -309 q 551 -327 514 -327 l 514 -327 q 455 -327 428 -292 q 401 -257 401 -199 l 401 -199 q 401 -160 412 -130 q 422 -101 445 -84 q 467 -68 503 -68 l 503 -68 q 541 -68 567 -86 q 593 -104 607 -143 q 621 -182 621 -245 l 621 -245 q 621 -251 620 -270 q 618 -290 614 -309 l 614 -309 q 613 -314 613 -321 q 613 -329 611 -333 l 611 -333 q 603 -374 574 -409 q 544 -444 496 -465 q 447 -486 378 -486 l 378 -486 q 304 -486 252 -461 q 200 -436 173 -389 q 145 -342 145 -275 l 145 -275 q 145 -225 159 -185 q 173 -145 200 -114 q 226 -83 262 -57 l 262 -57 l 197 10 q 154 -19 118 -59 q 82 -99 60 -154 q 38 -209 38 -278 l 38 -278 q 38 -334 58 -386 q 77 -439 118 -480 q 158 -521 222 -544 q 285 -568 373 -568 z"},"റ":{"ha":694,"x_min":38,"x_max":656,"o":"m 350 -568 l 350 -568 q 429 -568 487 -545 q 545 -523 583 -483 q 620 -443 638 -391 q 656 -339 656 -281 l 656 -281 q 656 -212 636 -158 q 615 -104 579 -62 q 543 -21 496 10 l 496 10 l 433 -57 q 465 -80 491 -110 q 517 -140 533 -181 q 548 -222 548 -273 l 548 -273 q 548 -336 525 -384 q 501 -432 456 -459 q 411 -486 349 -486 l 349 -486 q 286 -486 241 -458 q 195 -431 171 -383 q 146 -336 146 -275 l 146 -275 q 146 -225 160 -185 q 174 -145 200 -114 q 226 -83 262 -57 l 262 -57 l 197 9 q 154 -19 118 -59 q 82 -99 60 -154 q 38 -209 38 -278 l 38 -278 q 38 -338 58 -390 q 77 -443 116 -483 q 155 -523 214 -545 q 273 -568 350 -568 z"},"ല":{"ha":882,"x_min":62,"x_max":814,"o":"m 710 -556 l 814 -556 l 814 0 l 62 0 l 62 -310 q 62 -386 79 -430 q 96 -475 126 -504 l 126 -504 q 159 -536 206 -552 q 252 -568 312 -568 l 312 -568 q 374 -568 421 -552 q 467 -537 497 -506 l 497 -506 q 531 -473 546 -426 q 561 -380 561 -316 l 561 -316 l 561 -219 l 166 -219 l 166 -80 l 710 -80 l 710 -556 z m 311 -488 l 311 -488 q 235 -488 201 -446 q 166 -405 166 -322 l 166 -322 l 166 -300 l 457 -300 l 457 -321 q 457 -408 422 -448 q 387 -488 311 -488 z"},"ള":{"ha":742,"x_min":39,"x_max":704,"o":"m 401 -488 l 401 -488 q 346 -488 302 -479 q 257 -471 223 -454 q 189 -438 167 -416 q 144 -395 134 -368 l 134 -368 q 133 -365 135 -360 q 136 -355 135 -352 l 135 -352 q 132 -342 131 -332 q 129 -322 129 -311 l 129 -311 q 129 -255 151 -224 q 172 -194 215 -194 l 215 -194 q 256 -194 275 -217 q 294 -241 294 -274 l 294 -274 q 294 -295 286 -311 q 278 -328 262 -338 q 245 -348 218 -348 l 218 -348 q 177 -348 149 -327 q 121 -307 100 -284 l 100 -284 l 61 -328 q 78 -349 105 -370 q 131 -391 165 -405 q 199 -420 238 -420 l 238 -420 q 292 -420 326 -399 q 360 -379 376 -346 q 392 -313 392 -274 l 392 -274 q 392 -234 374 -198 q 355 -162 316 -140 q 277 -118 216 -118 l 216 -118 q 164 -118 124 -141 q 83 -165 61 -209 q 39 -254 39 -316 l 39 -316 q 39 -368 62 -414 q 85 -461 132 -495 q 178 -529 247 -548 q 316 -568 407 -568 l 407 -568 q 506 -568 569 -549 q 632 -531 663 -494 q 693 -458 693 -403 l 693 -403 q 693 -367 677 -339 q 660 -311 627 -291 q 593 -272 542 -262 l 542 -262 l 459 -288 l 459 -317 l 467 -317 q 499 -317 521 -320 q 543 -324 559 -336 l 559 -336 q 575 -348 582 -362 q 588 -376 588 -395 l 588 -395 q 588 -424 571 -444 q 553 -465 512 -476 q 471 -488 401 -488 z m 704 -148 l 704 -148 q 704 -115 692 -88 q 680 -61 659 -42 l 659 -42 q 642 -28 620 -18 q 598 -9 565 -4 q 531 0 479 0 l 479 0 l 274 0 q 232 0 212 3 q 192 6 180 12 l 180 12 q 165 19 159 31 q 153 42 153 57 l 153 57 q 153 71 158 83 q 162 94 174 101 l 174 101 q 186 110 208 115 q 229 119 272 119 l 272 119 l 686 119 l 686 201 l 263 201 q 209 201 171 193 q 132 184 106 169 l 106 169 q 77 151 63 124 q 48 97 48 63 l 48 63 q 48 27 62 -1 q 75 -30 105 -49 l 105 -49 q 120 -59 140 -66 q 159 -73 186 -76 q 213 -80 251 -80 l 251 -80 l 469 -80 q 510 -80 536 -84 q 562 -89 576 -102 l 576 -102 q 588 -111 594 -124 q 599 -138 599 -158 l 599 -158 q 599 -177 592 -192 q 585 -207 569 -218 l 569 -218 q 555 -227 534 -232 q 513 -237 476 -237 l 476 -237 l 459 -237 l 459 -302 l 567 -292 q 638 -275 671 -237 q 704 -200 704 -148 z"},"ഴ":{"ha":677,"x_min":36,"x_max":641,"o":"m 267 -406 l 267 -406 q 267 -475 315 -521 q 362 -568 454 -568 l 454 -568 q 522 -568 563 -542 q 604 -516 623 -475 q 641 -435 641 -391 l 641 -391 q 641 -324 608 -270 q 575 -216 513 -183 q 451 -151 365 -151 l 365 -151 l 337 -151 q 236 -151 169 -183 q 102 -216 69 -272 q 36 -329 36 -402 l 36 -402 q 36 -440 49 -482 q 62 -525 92 -569 l 92 -569 l 173 -526 q 154 -490 147 -462 q 140 -434 140 -405 l 140 -405 q 140 -344 166 -304 q 191 -265 236 -246 q 281 -228 339 -228 l 339 -228 l 364 -228 q 420 -228 459 -250 q 497 -273 518 -311 q 538 -349 538 -397 l 538 -397 q 538 -433 520 -462 q 501 -491 453 -491 l 453 -491 q 424 -491 405 -479 q 386 -467 377 -447 q 368 -428 368 -403 l 368 -403 q 368 -363 382 -329 q 395 -296 412 -264 q 429 -233 443 -200 q 456 -167 456 -127 l 456 -127 q 456 -95 443 -63 q 429 -31 393 -9 q 356 12 286 12 l 286 12 q 246 12 203 4 q 160 -5 118 -26 l 118 -26 l 152 -102 q 181 -87 212 -78 q 243 -69 277 -69 l 277 -69 q 326 -69 341 -88 q 356 -108 356 -132 l 356 -132 q 356 -167 343 -198 q 329 -229 312 -259 q 294 -290 281 -325 q 267 -361 267 -406 z"},"വ":{"ha":988,"x_min":38,"x_max":919,"o":"m 350 -568 l 350 -568 q 429 -568 487 -545 q 544 -523 582 -483 q 619 -444 637 -392 q 655 -341 655 -284 l 655 -284 q 655 -228 641 -185 q 627 -143 604 -109 q 581 -75 553 -44 l 553 -44 l 544 -80 l 815 -80 l 815 -556 l 919 -556 l 919 0 l 479 0 l 440 -62 q 469 -84 494 -113 q 518 -143 533 -182 q 548 -222 548 -273 l 548 -273 q 548 -336 525 -384 q 501 -432 456 -459 q 411 -486 348 -486 l 348 -486 q 285 -486 240 -458 q 195 -431 171 -383 q 146 -336 146 -275 l 146 -275 q 146 -225 160 -185 q 174 -145 200 -114 q 226 -83 262 -57 l 262 -57 l 197 10 q 154 -19 118 -59 q 82 -99 60 -154 q 38 -209 38 -278 l 38 -278 q 38 -338 58 -390 q 77 -443 116 -483 q 155 -523 214 -545 q 273 -568 350 -568 z"},"ശ":{"ha":1072,"x_min":38,"x_max":1033,"o":"m 700 -568 l 700 -568 q 778 -568 840 -545 q 901 -522 945 -479 q 988 -436 1011 -375 q 1033 -315 1033 -240 l 1033 -240 q 1033 -152 1005 -96 q 977 -40 927 -14 q 877 12 812 12 l 812 12 q 743 12 699 -17 q 654 -47 633 -95 q 611 -143 611 -199 l 611 -199 q 611 -293 662 -349 q 713 -406 802 -406 l 802 -406 q 859 -406 902 -376 q 945 -347 970 -301 q 994 -256 997 -205 l 997 -205 l 963 -208 q 956 -238 938 -265 q 919 -292 891 -309 q 862 -327 824 -327 l 824 -327 q 766 -327 739 -292 q 712 -257 712 -199 l 712 -199 q 712 -160 723 -130 q 733 -101 756 -84 q 778 -68 814 -68 l 814 -68 q 852 -68 878 -86 q 904 -104 918 -143 q 932 -182 932 -245 l 932 -245 q 932 -251 931 -270 q 929 -290 926 -309 l 926 -309 q 925 -314 927 -321 q 928 -329 926 -332 l 926 -332 q 916 -376 886 -411 q 856 -446 810 -466 q 764 -486 705 -486 l 705 -486 q 660 -486 629 -477 q 597 -468 575 -451 l 575 -451 q 539 -423 525 -374 q 511 -326 511 -260 l 511 -260 l 511 -247 q 511 -178 499 -131 q 486 -85 456 -52 l 456 -52 q 429 -22 388 -5 q 347 12 287 12 l 287 12 q 211 12 155 -21 q 99 -54 69 -116 q 38 -178 38 -263 l 38 -263 q 38 -331 56 -384 q 73 -438 107 -483 q 141 -528 190 -569 l 190 -569 l 258 -503 q 223 -474 198 -439 q 172 -405 158 -362 q 144 -319 144 -267 l 144 -267 q 144 -204 162 -160 q 179 -117 211 -93 q 242 -70 283 -70 l 283 -70 q 321 -70 344 -82 q 366 -94 379 -114 l 379 -114 q 395 -138 400 -178 q 405 -218 405 -260 l 405 -260 l 405 -275 q 405 -364 427 -417 q 449 -471 489 -505 l 489 -505 q 531 -539 582 -553 q 632 -568 700 -568 z"},"ഷ":{"ha":1188,"x_min":31,"x_max":1119,"o":"m 240 -351 l 240 -351 q 311 -351 357 -324 q 403 -298 426 -257 q 448 -217 448 -172 l 448 -172 q 448 -135 436 -105 q 424 -76 408 -61 l 408 -61 l 387 -80 l 694 -80 l 722 0 l 341 0 l 305 -54 q 323 -73 335 -97 q 347 -122 347 -159 l 347 -159 q 347 -209 320 -240 q 293 -271 240 -271 l 240 -271 q 206 -271 182 -256 q 158 -241 146 -217 q 133 -193 133 -163 l 133 -163 q 133 -127 148 -99 q 162 -72 188 -49 l 188 -49 l 122 8 q 82 -25 57 -68 q 31 -111 31 -167 l 31 -167 q 31 -222 57 -263 q 83 -304 130 -327 q 177 -351 240 -351 z m 1119 0 l 675 0 l 675 -382 q 675 -411 672 -432 q 668 -454 658 -467 l 658 -467 q 651 -476 640 -482 q 628 -488 610 -488 l 610 -488 q 581 -488 564 -470 q 547 -452 547 -415 l 547 -415 q 547 -388 558 -364 q 569 -341 598 -326 q 627 -312 678 -312 l 678 -312 l 709 -312 q 771 -312 818 -333 q 865 -355 902 -391 q 938 -427 966 -470 q 994 -513 1017 -556 l 1017 -556 l 1119 -556 l 1119 0 z m 613 -568 l 613 -568 q 648 -568 676 -560 q 704 -552 725 -536 l 725 -536 q 752 -515 766 -479 q 779 -444 779 -382 l 779 -382 l 779 -80 l 1015 -80 l 1015 -322 q 1015 -339 1016 -360 q 1017 -382 1018 -401 q 1019 -421 1021 -433 l 1021 -433 l 1023 -427 q 994 -365 947 -321 q 900 -278 843 -255 q 786 -233 725 -233 l 725 -233 l 684 -233 q 599 -233 546 -258 q 493 -283 469 -324 q 445 -366 445 -416 l 445 -416 q 445 -455 464 -489 q 483 -524 521 -546 q 558 -568 613 -568 z"},"സ":{"ha":1256,"x_min":38,"x_max":1217,"o":"m 643 -568 l 643 -568 q 692 -568 730 -553 q 768 -538 795 -507 l 795 -507 q 811 -490 823 -466 q 835 -442 842 -403 q 849 -365 849 -304 l 849 -304 l 849 -270 q 849 -215 855 -176 q 860 -138 875 -114 l 875 -114 q 888 -94 911 -82 q 933 -70 972 -70 l 972 -70 q 1014 -70 1046 -93 q 1077 -117 1094 -161 q 1111 -205 1111 -267 l 1111 -267 q 1111 -320 1098 -362 q 1084 -405 1059 -439 q 1034 -474 999 -503 l 999 -503 l 1066 -569 q 1116 -528 1150 -483 q 1183 -438 1200 -384 q 1217 -331 1217 -263 l 1217 -263 q 1217 -178 1187 -116 q 1156 -54 1101 -21 q 1045 12 968 12 l 968 12 q 908 12 867 -5 q 825 -22 798 -52 l 798 -52 q 778 -75 766 -102 q 754 -130 749 -166 q 744 -203 744 -250 l 744 -250 l 744 -293 q 744 -360 738 -395 q 731 -430 714 -451 l 714 -451 q 701 -469 681 -477 q 661 -486 631 -486 l 631 -486 q 604 -486 584 -477 q 563 -468 550 -451 l 550 -451 q 533 -431 526 -399 q 518 -368 518 -310 l 518 -310 l 518 0 l 414 0 l 414 -295 q 414 -352 410 -383 q 406 -414 391 -435 l 391 -435 q 376 -461 351 -473 q 326 -486 295 -486 l 295 -486 q 251 -486 217 -461 q 183 -437 164 -393 q 144 -350 144 -291 l 144 -291 q 144 -237 159 -194 q 173 -152 199 -118 q 224 -85 257 -58 l 257 -58 l 186 9 q 142 -28 109 -71 q 75 -115 57 -169 q 38 -224 38 -294 l 38 -294 q 38 -371 68 -433 q 98 -495 155 -531 q 212 -568 293 -568 l 293 -568 q 358 -568 399 -544 q 440 -521 471 -479 l 471 -479 l 465 -480 q 495 -523 538 -545 q 580 -568 643 -568 z"},"ഹ":{"ha":1227,"x_min":31,"x_max":1188,"o":"m 240 -351 l 240 -351 q 311 -351 357 -324 q 403 -298 426 -257 q 448 -217 448 -172 l 448 -172 q 448 -135 436 -105 q 424 -76 408 -61 l 408 -61 l 387 -80 l 693 -80 l 721 0 l 341 0 l 305 -54 q 323 -73 335 -97 q 347 -122 347 -159 l 347 -159 q 347 -209 320 -240 q 293 -271 240 -271 l 240 -271 q 206 -271 182 -256 q 158 -241 146 -217 q 133 -193 133 -163 l 133 -163 q 133 -127 148 -99 q 162 -72 188 -49 l 188 -49 l 122 8 q 82 -25 57 -68 q 31 -111 31 -167 l 31 -167 q 31 -222 57 -263 q 83 -304 130 -327 q 177 -351 240 -351 z m 882 -568 l 882 -568 q 961 -568 1019 -545 q 1077 -523 1115 -483 q 1152 -443 1170 -391 q 1188 -339 1188 -281 l 1188 -281 q 1188 -212 1168 -158 q 1147 -104 1112 -62 q 1076 -21 1029 10 l 1029 10 l 964 -57 q 997 -80 1024 -110 q 1050 -140 1066 -181 q 1081 -222 1081 -273 l 1081 -273 q 1081 -336 1057 -384 q 1033 -432 989 -459 q 944 -486 881 -486 l 881 -486 q 818 -486 773 -458 q 727 -431 703 -383 q 678 -336 678 -275 l 678 -275 q 678 -226 691 -188 q 704 -150 728 -119 q 752 -88 786 -62 l 786 -62 l 745 0 l 711 0 l 665 -52 q 641 -81 620 -114 q 598 -147 585 -188 q 572 -229 572 -280 l 572 -280 q 572 -339 591 -391 q 610 -443 649 -483 q 688 -523 746 -545 q 804 -568 882 -568 z"},"ഺ":{"ha":776,"x_min":20,"x_max":759,"o":"m 135 -80 l 759 -80 l 759 0 l 484 0 l 484 202 l 379 202 l 379 0 l 71 0 l 20 -59 l 210 -560 l 307 -530 l 135 -80 z"},"഻":{"ha":0,"x_min":-318,"x_max":-238,"o":"m -318 -589 l -318 -864 l -238 -864 l -238 -589 l -318 -589 z"},"഼":{"ha":0,"x_min":-258,"x_max":24,"o":"m -258 -723 l -258 -723 q -258 -779 -219 -817 q -181 -855 -118 -855 l -118 -855 q -53 -855 -14 -817 q 24 -780 24 -723 l 24 -723 q 24 -667 -14 -629 q -53 -591 -118 -591 l -118 -591 q -182 -591 -220 -629 q -258 -667 -258 -723 z m -179 -724 l -179 -724 q -179 -698 -163 -680 q -147 -662 -118 -662 l -118 -662 q -87 -662 -71 -680 q -56 -698 -56 -724 l -56 -724 q -56 -750 -72 -767 q -88 -784 -118 -784 l -118 -784 q -147 -784 -163 -767 q -179 -750 -179 -724 z"},"ഽ":{"ha":484,"x_min":-88,"x_max":572,"o":"m 387 -794 l 387 -794 q 441 -794 478 -774 q 515 -755 538 -721 q 561 -687 572 -645 l 572 -645 l 469 -625 q 462 -651 452 -671 q 441 -691 426 -702 q 410 -714 386 -714 l 386 -714 q 363 -714 346 -705 q 329 -696 318 -679 l 318 -679 q 306 -660 301 -628 q 295 -597 295 -537 l 295 -537 l 295 -22 q 295 50 284 100 q 273 150 243 186 l 243 186 q 220 213 184 229 q 148 244 96 244 l 96 244 q 43 244 6 224 q -31 204 -54 170 q -77 135 -88 94 l -88 94 l 15 74 q 22 100 33 121 q 43 141 59 153 q 74 164 98 164 l 98 164 q 122 164 139 155 q 155 145 166 128 l 166 128 q 179 108 184 79 q 188 49 188 -4 l 188 -4 l 188 -518 q 188 -603 199 -651 q 209 -699 239 -734 l 239 -734 q 261 -761 299 -777 q 336 -794 387 -794 z"},"ാ":{"ha":526,"x_min":18,"x_max":485,"o":"m 485 -280 l 485 -280 q 485 -222 473 -169 q 461 -117 433 -76 q 405 -35 359 -11 q 313 12 243 12 l 243 12 q 188 12 148 -5 q 108 -22 82 -49 q 55 -77 40 -109 q 25 -142 18 -173 l 18 -173 l 123 -192 q 130 -166 143 -137 q 156 -108 180 -88 q 204 -68 243 -68 l 243 -68 q 292 -68 322 -95 q 351 -122 365 -169 q 378 -217 378 -279 l 378 -279 q 378 -341 365 -388 q 351 -435 322 -461 q 293 -488 247 -488 l 247 -488 q 210 -488 186 -468 q 161 -449 147 -421 q 133 -393 126 -366 l 126 -366 l 22 -385 q 31 -418 48 -450 q 65 -482 92 -509 q 119 -536 159 -552 q 199 -568 253 -568 l 253 -568 q 319 -568 363 -544 q 407 -521 434 -480 q 461 -440 473 -388 q 485 -337 485 -280 z"},"ി":{"ha":242,"x_min":-219,"x_max":173,"o":"m -30 -845 l -30 -845 q 10 -845 40 -837 q 70 -829 94 -812 l 94 -812 q 124 -790 141 -761 q 158 -732 166 -686 q 173 -640 173 -564 l 173 -564 l 173 0 l 69 0 l 69 -540 q 69 -591 67 -628 q 64 -666 58 -691 q 52 -717 40 -732 l 40 -732 q 29 -748 13 -756 q -4 -765 -29 -765 l -29 -765 q -50 -765 -70 -756 q -90 -747 -102 -728 q -115 -709 -115 -677 l -115 -677 q -115 -668 -113 -658 q -112 -649 -111 -641 l -111 -641 l -212 -625 q -215 -637 -217 -650 q -219 -663 -219 -675 l -219 -675 q -219 -732 -193 -770 q -168 -808 -125 -826 q -82 -845 -30 -845 z"},"ീ":{"ha":242,"x_min":-287,"x_max":173,"o":"m -104 -845 l -104 -845 q -57 -845 -12 -836 q 32 -828 72 -803 l 72 -803 q 130 -767 152 -703 q 173 -640 173 -534 l 173 -534 l 173 0 l 69 0 l 69 -520 q 69 -569 66 -604 q 63 -640 56 -666 q 48 -693 34 -711 l 34 -711 q 13 -750 -22 -762 q -58 -775 -113 -775 l -113 -775 q -135 -775 -155 -767 q -175 -760 -187 -745 q -200 -731 -200 -707 l -200 -707 q -200 -686 -186 -668 q -172 -651 -141 -651 l -141 -651 q -106 -651 -92 -670 q -78 -690 -78 -714 l -78 -714 q -78 -737 -89 -758 q -100 -779 -119 -792 l -119 -792 l -16 -772 q -8 -762 -3 -745 q 1 -728 1 -708 l 1 -708 q 1 -673 -13 -643 q -27 -614 -59 -596 q -91 -578 -145 -578 l -145 -578 q -184 -578 -216 -593 q -249 -608 -268 -637 q -287 -666 -287 -708 l -287 -708 q -287 -748 -266 -779 q -245 -810 -204 -827 q -164 -845 -104 -845 z"},"ു":{"ha":346,"x_min":-28,"x_max":350,"o":"m 161 229 l 161 229 q 74 229 23 180 q -28 131 -28 53 l -28 53 q -28 1 -4 -38 q 20 -78 63 -100 q 106 -122 160 -122 l 160 -122 q 217 -122 260 -101 q 302 -80 326 -41 q 350 -2 350 53 l 350 53 q 350 107 326 147 q 302 186 260 208 q 217 229 161 229 z m 161 155 l 161 155 q 201 155 228 130 q 255 104 255 53 l 255 53 q 255 3 229 -22 q 202 -48 160 -48 l 160 -48 q 121 -48 95 -22 q 68 3 68 54 l 68 54 q 68 103 95 129 q 122 155 161 155 z m 115 -568 l 115 -568 q 177 -568 213 -545 q 248 -523 263 -484 q 278 -446 278 -401 l 278 -401 q 278 -336 260 -256 q 242 -176 215 -88 l 215 -88 l 118 -103 q 143 -186 158 -257 q 172 -328 172 -389 l 172 -389 q 172 -430 156 -458 q 140 -486 96 -486 l 96 -486 q 80 -486 65 -484 q 49 -482 37 -478 l 37 -478 l 19 -557 q 37 -562 62 -565 q 86 -568 115 -568 z"},"ൂ":{"ha":346,"x_min":-28,"x_max":350,"o":"m 161 229 l 161 229 q 73 229 23 180 q -28 131 -28 53 l -28 53 q -28 1 -4 -38 q 20 -78 63 -100 q 105 -122 161 -122 l 161 -122 q 216 -122 259 -101 q 302 -80 326 -41 q 350 -2 350 53 l 350 53 q 350 107 326 147 q 302 186 259 208 q 216 229 161 229 z m 160 -51 l 160 -51 q 114 -51 83 -25 q 51 1 51 54 l 51 54 q 51 106 82 132 q 113 158 161 158 l 161 158 q 206 158 239 132 q 271 105 271 53 l 271 53 q 271 1 239 -25 q 207 -51 160 -51 z m 161 99 l 161 99 q 104 99 76 67 q 48 34 48 -18 l 48 -18 q 48 -36 59 -55 q 69 -75 88 -98 l 88 -98 l 133 -70 q 115 -63 107 -49 q 99 -36 99 -24 l 99 -24 q 99 -8 106 4 q 113 15 128 21 q 142 26 162 26 l 162 26 q 181 26 194 20 q 207 14 215 3 q 223 -8 223 -24 l 223 -24 q 223 -34 216 -45 q 208 -57 191 -65 l 191 -65 l 235 -98 q 256 -74 266 -56 q 276 -39 276 -17 l 276 -17 q 276 12 265 39 q 254 65 229 82 q 204 99 161 99 z m 115 -568 l 115 -568 q 177 -568 213 -545 q 248 -523 263 -485 q 278 -447 278 -401 l 278 -401 q 278 -336 260 -256 q 242 -176 215 -88 l 215 -88 l 118 -103 q 143 -186 158 -257 q 172 -328 172 -389 l 172 -389 q 172 -430 157 -458 q 141 -486 96 -486 l 96 -486 q 80 -486 65 -484 q 49 -482 37 -478 l 37 -478 l 19 -557 q 37 -562 62 -565 q 86 -568 115 -568 z"},"ൃ":{"ha":257,"x_min":-146,"x_max":253,"o":"m 37 321 l 37 321 q -16 321 -57 304 q -98 286 -122 253 q -146 219 -146 171 l -146 171 q -146 105 -99 66 q -53 27 25 27 l 25 27 q 70 27 112 42 q 153 57 199 97 l 199 97 l 173 165 q 139 134 106 120 q 72 106 33 106 l 33 106 q -3 106 -25 123 q -47 139 -47 174 l -47 174 q -47 207 -24 224 q -1 241 38 241 l 38 241 q 72 241 98 229 q 123 217 138 192 q 152 166 152 123 l 152 123 q 152 91 144 56 q 135 21 122 -14 q 109 -50 96 -81 l 96 -81 q 75 -133 59 -186 q 43 -240 43 -301 l 43 -301 q 43 -369 65 -435 q 86 -501 117 -556 l 117 -556 l 226 -556 q 199 -509 182 -468 q 164 -427 156 -388 q 148 -349 148 -308 l 148 -308 q 148 -252 162 -204 q 176 -156 196 -107 l 196 -107 q 212 -66 225 -28 q 238 9 246 46 q 253 82 253 122 l 253 122 q 253 192 223 236 q 192 280 143 301 q 94 321 37 321 z"},"ൄ":{"ha":257,"x_min":-276,"x_max":252,"o":"m -23 321 l -23 321 q -102 321 -158 304 q -215 286 -245 249 q -276 211 -276 154 l -276 154 q -276 101 -242 68 q -208 34 -154 34 l -154 34 q -119 34 -97 48 q -76 61 -63 83 l -63 83 l -71 83 q -56 59 -35 47 q -14 34 18 34 l 18 34 q 53 34 74 46 q 95 58 106 77 q 116 95 120 115 q 123 135 123 151 l 123 151 l 123 177 l 49 177 l 49 165 q 49 135 41 121 q 33 106 11 106 l 11 106 q -15 106 -22 123 q -30 139 -30 164 l -30 164 l -30 177 l -105 177 l -105 165 q -105 137 -112 122 q -120 106 -144 106 l -144 106 q -165 106 -176 120 q -187 133 -187 156 l -187 156 q -187 202 -145 222 q -103 241 -22 241 l -22 241 q 53 241 101 213 q 148 185 148 122 l 148 122 q 148 89 140 55 q 132 20 120 -14 q 108 -49 95 -80 l 95 -80 q 74 -131 59 -185 q 43 -240 43 -301 l 43 -301 q 43 -369 65 -435 q 86 -501 117 -556 l 117 -556 l 226 -556 q 199 -509 182 -468 q 164 -427 156 -388 q 148 -349 148 -308 l 148 -308 q 148 -252 162 -204 q 176 -157 196 -107 l 196 -107 q 212 -66 225 -28 q 238 9 245 46 q 252 82 252 121 l 252 121 q 252 188 218 233 q 183 277 121 299 q 59 321 -23 321 z"},"െ":{"ha":737,"x_min":38,"x_max":698,"o":"m 246 12 l 246 12 q 191 12 144 -14 q 96 -40 67 -95 q 38 -150 38 -235 l 38 -235 q 38 -312 64 -373 q 90 -435 137 -478 q 184 -522 248 -545 q 311 -568 387 -568 l 387 -568 q 467 -568 526 -546 q 584 -524 623 -484 q 661 -445 680 -393 q 698 -341 698 -281 l 698 -281 q 698 -212 678 -158 q 657 -104 622 -62 q 586 -21 539 10 l 539 10 l 476 -57 q 508 -80 534 -110 q 560 -140 576 -180 q 591 -221 591 -273 l 591 -273 q 591 -338 567 -385 q 543 -433 496 -459 q 449 -486 380 -486 l 380 -486 q 309 -486 254 -452 q 198 -419 167 -361 q 135 -304 135 -231 l 135 -231 q 135 -174 150 -137 q 164 -101 189 -84 q 214 -67 246 -67 l 246 -67 q 270 -67 288 -77 q 306 -88 316 -109 q 326 -130 326 -160 l 326 -160 q 326 -205 302 -230 q 278 -255 238 -255 l 238 -255 q 200 -255 165 -235 q 130 -215 100 -181 l 100 -181 l 85 -254 q 114 -288 160 -311 q 205 -334 258 -334 l 258 -334 q 310 -334 348 -314 q 385 -294 406 -257 q 426 -220 426 -168 l 426 -168 q 426 -112 404 -71 q 382 -31 342 -9 q 302 12 246 12 z"},"േ":{"ha":612,"x_min":38,"x_max":575,"o":"m 373 12 l 373 12 q 306 12 246 -5 q 185 -22 138 -58 q 91 -94 65 -149 q 38 -205 38 -282 l 38 -282 q 38 -356 66 -410 q 93 -465 141 -500 q 188 -535 249 -551 q 309 -568 375 -568 l 375 -568 q 446 -568 490 -550 q 534 -532 555 -500 q 575 -469 575 -430 l 575 -430 q 575 -386 556 -356 q 536 -327 503 -311 q 469 -296 429 -296 l 429 -296 q 373 -296 340 -315 q 307 -334 293 -364 q 278 -395 278 -429 l 278 -429 q 278 -450 284 -467 q 289 -484 295 -496 l 295 -496 l 401 -515 q 382 -502 372 -479 q 362 -457 362 -433 l 362 -433 q 362 -411 376 -390 q 390 -369 425 -369 l 425 -369 q 456 -369 470 -386 q 484 -404 484 -427 l 484 -427 q 484 -462 459 -478 q 433 -495 398 -495 l 398 -495 q 383 -495 370 -495 q 356 -495 343 -493 l 343 -493 q 280 -489 235 -462 q 190 -436 167 -390 q 143 -344 143 -281 l 143 -281 q 143 -220 167 -172 q 190 -124 235 -95 q 279 -67 339 -64 l 339 -64 q 351 -63 364 -62 q 377 -62 389 -62 l 389 -62 q 415 -62 435 -69 q 455 -76 467 -91 q 478 -107 478 -131 l 478 -131 q 478 -155 465 -172 q 451 -189 420 -189 l 420 -189 q 385 -189 371 -168 q 356 -147 356 -124 l 356 -124 q 356 -100 366 -78 q 376 -57 395 -43 l 395 -43 l 290 -62 q 283 -73 278 -91 q 272 -109 272 -131 l 272 -131 q 272 -165 287 -194 q 301 -224 334 -242 q 367 -261 422 -261 l 422 -261 q 463 -261 497 -246 q 530 -231 550 -201 q 570 -172 570 -128 l 570 -128 q 570 -89 549 -57 q 528 -25 484 -6 q 440 12 373 12 z"},"ൈ":{"ha":1474,"x_min":38,"x_max":1435,"o":"m 246 12 l 246 12 q 191 12 144 -14 q 96 -40 67 -95 q 38 -150 38 -235 l 38 -235 q 38 -312 64 -373 q 90 -435 137 -478 q 184 -522 248 -545 q 311 -568 387 -568 l 387 -568 q 467 -568 526 -546 q 584 -524 623 -484 q 661 -445 680 -393 q 698 -341 698 -281 l 698 -281 q 698 -212 678 -158 q 657 -104 622 -62 q 586 -21 539 10 l 539 10 l 476 -57 q 508 -80 534 -110 q 560 -140 576 -180 q 591 -221 591 -273 l 591 -273 q 591 -338 567 -385 q 543 -433 496 -459 q 449 -486 380 -486 l 380 -486 q 309 -486 254 -452 q 198 -419 167 -361 q 135 -304 135 -231 l 135 -231 q 135 -174 150 -137 q 164 -101 189 -84 q 214 -67 246 -67 l 246 -67 q 270 -67 288 -77 q 306 -88 316 -109 q 326 -130 326 -160 l 326 -160 q 326 -205 302 -230 q 278 -255 238 -255 l 238 -255 q 200 -255 165 -235 q 130 -215 100 -181 l 100 -181 l 85 -254 q 114 -288 160 -311 q 205 -334 258 -334 l 258 -334 q 310 -334 348 -314 q 385 -294 406 -257 q 426 -220 426 -168 l 426 -168 q 426 -112 404 -71 q 382 -31 342 -9 q 302 12 246 12 z m 983 12 l 983 12 q 928 12 881 -14 q 833 -40 804 -95 q 775 -150 775 -235 l 775 -235 q 775 -312 801 -373 q 827 -435 874 -478 q 921 -522 985 -545 q 1048 -568 1124 -568 l 1124 -568 q 1204 -568 1263 -546 q 1321 -524 1360 -484 q 1398 -445 1417 -393 q 1435 -341 1435 -281 l 1435 -281 q 1435 -212 1415 -158 q 1394 -104 1359 -62 q 1323 -21 1276 10 l 1276 10 l 1213 -57 q 1245 -80 1271 -110 q 1297 -140 1313 -180 q 1328 -221 1328 -273 l 1328 -273 q 1328 -338 1304 -385 q 1280 -433 1233 -459 q 1186 -486 1117 -486 l 1117 -486 q 1046 -486 991 -452 q 935 -419 904 -361 q 872 -304 872 -231 l 872 -231 q 872 -174 887 -137 q 901 -101 926 -84 q 951 -67 983 -67 l 983 -67 q 1007 -67 1025 -77 q 1043 -88 1053 -109 q 1063 -130 1063 -160 l 1063 -160 q 1063 -205 1039 -230 q 1015 -255 975 -255 l 975 -255 q 937 -255 902 -235 q 867 -215 837 -181 l 837 -181 l 822 -254 q 851 -288 897 -311 q 942 -334 995 -334 l 995 -334 q 1047 -334 1085 -314 q 1122 -294 1143 -257 q 1163 -220 1163 -168 l 1163 -168 q 1163 -112 1141 -71 q 1119 -31 1079 -9 q 1039 12 983 12 z"},"ൊ":{"ha":1469,"x_min":38,"x_max":1429,"o":"m 246 12 l 246 12 q 191 12 144 -14 q 96 -40 67 -95 q 38 -150 38 -235 l 38 -235 q 38 -312 64 -373 q 90 -435 137 -478 q 184 -522 248 -545 q 311 -568 387 -568 l 387 -568 q 467 -568 526 -546 q 584 -524 623 -484 q 661 -445 680 -393 q 698 -341 698 -281 l 698 -281 q 698 -212 678 -158 q 657 -104 622 -62 q 586 -21 539 10 l 539 10 l 476 -57 q 508 -80 534 -110 q 560 -140 576 -180 q 591 -221 591 -273 l 591 -273 q 591 -338 567 -385 q 543 -433 496 -459 q 449 -486 380 -486 l 380 -486 q 309 -486 254 -452 q 198 -419 167 -361 q 135 -304 135 -231 l 135 -231 q 135 -174 150 -137 q 164 -101 189 -84 q 214 -67 246 -67 l 246 -67 q 270 -67 288 -77 q 306 -88 316 -109 q 326 -130 326 -160 l 326 -160 q 326 -205 302 -230 q 278 -255 238 -255 l 238 -255 q 200 -255 165 -235 q 130 -215 100 -181 l 100 -181 l 85 -254 q 114 -288 160 -311 q 205 -334 258 -334 l 258 -334 q 310 -334 348 -314 q 385 -294 406 -257 q 426 -220 426 -168 l 426 -168 q 426 -112 404 -71 q 382 -31 342 -9 q 302 12 246 12 z m 845 -227 l 845 -227 q 816 -227 796 -244 q 776 -261 776 -299 l 776 -299 q 776 -339 796 -355 q 816 -372 845 -372 l 845 -372 q 873 -372 893 -356 q 913 -340 913 -299 l 913 -299 q 913 -261 893 -244 q 873 -227 845 -227 z m 1429 -280 l 1429 -280 q 1429 -222 1417 -169 q 1405 -117 1377 -76 q 1349 -35 1303 -11 q 1257 12 1187 12 l 1187 12 q 1132 12 1092 -5 q 1052 -22 1026 -49 q 999 -77 984 -109 q 969 -142 962 -173 l 962 -173 l 1067 -192 q 1074 -166 1087 -137 q 1100 -108 1124 -88 q 1148 -68 1187 -68 l 1187 -68 q 1236 -68 1266 -95 q 1295 -122 1309 -169 q 1322 -217 1322 -279 l 1322 -279 q 1322 -341 1309 -388 q 1295 -435 1266 -461 q 1237 -488 1191 -488 l 1191 -488 q 1154 -488 1130 -468 q 1105 -449 1091 -421 q 1077 -393 1070 -366 l 1070 -366 l 966 -385 q 975 -418 992 -450 q 1009 -482 1036 -509 q 1063 -536 1103 -552 q 1143 -568 1197 -568 l 1197 -568 q 1263 -568 1307 -544 q 1351 -521 1378 -480 q 1405 -440 1417 -388 q 1429 -337 1429 -280 z"},"ോ":{"ha":1329,"x_min":38,"x_max":1288,"o":"m 373 12 l 373 12 q 306 12 246 -5 q 185 -22 138 -58 q 91 -94 65 -149 q 38 -205 38 -282 l 38 -282 q 38 -356 66 -410 q 93 -465 141 -500 q 188 -535 249 -551 q 309 -568 375 -568 l 375 -568 q 446 -568 490 -550 q 534 -532 555 -500 q 575 -469 575 -430 l 575 -430 q 575 -386 556 -356 q 536 -327 503 -311 q 469 -296 429 -296 l 429 -296 q 373 -296 340 -315 q 307 -334 293 -364 q 278 -395 278 -429 l 278 -429 q 278 -450 284 -467 q 289 -484 295 -496 l 295 -496 l 401 -515 q 382 -502 372 -479 q 362 -457 362 -433 l 362 -433 q 362 -411 376 -390 q 390 -369 425 -369 l 425 -369 q 456 -369 470 -386 q 484 -404 484 -427 l 484 -427 q 484 -462 459 -478 q 433 -495 398 -495 l 398 -495 q 383 -495 370 -495 q 356 -495 343 -493 l 343 -493 q 280 -489 235 -462 q 190 -436 167 -390 q 143 -344 143 -281 l 143 -281 q 143 -220 167 -172 q 190 -124 235 -95 q 279 -67 339 -64 l 339 -64 q 351 -63 364 -62 q 377 -62 389 -62 l 389 -62 q 415 -62 435 -69 q 455 -76 467 -91 q 478 -107 478 -131 l 478 -131 q 478 -155 465 -172 q 451 -189 420 -189 l 420 -189 q 385 -189 371 -168 q 356 -147 356 -124 l 356 -124 q 356 -100 366 -78 q 376 -57 395 -43 l 395 -43 l 290 -62 q 283 -73 278 -91 q 272 -109 272 -131 l 272 -131 q 272 -165 287 -194 q 301 -224 334 -242 q 367 -261 422 -261 l 422 -261 q 463 -261 497 -246 q 530 -231 550 -201 q 570 -172 570 -128 l 570 -128 q 570 -89 549 -57 q 528 -25 484 -6 q 440 12 373 12 z m 705 -227 l 705 -227 q 676 -227 656 -244 q 636 -261 636 -299 l 636 -299 q 636 -339 656 -355 q 676 -372 705 -372 l 705 -372 q 733 -372 753 -356 q 773 -340 773 -299 l 773 -299 q 773 -261 753 -244 q 733 -227 705 -227 z m 1288 -280 l 1288 -280 q 1288 -222 1276 -169 q 1264 -117 1236 -76 q 1208 -35 1162 -11 q 1116 12 1046 12 l 1046 12 q 991 12 951 -5 q 911 -22 885 -49 q 858 -77 843 -109 q 828 -142 821 -173 l 821 -173 l 926 -192 q 933 -166 946 -137 q 959 -108 983 -88 q 1007 -68 1046 -68 l 1046 -68 q 1095 -68 1125 -95 q 1154 -122 1168 -169 q 1181 -217 1181 -279 l 1181 -279 q 1181 -341 1168 -388 q 1154 -435 1125 -461 q 1096 -488 1050 -488 l 1050 -488 q 1013 -488 989 -468 q 964 -449 950 -421 q 936 -393 929 -366 l 929 -366 l 825 -385 q 834 -418 851 -450 q 868 -482 895 -509 q 922 -536 962 -552 q 1002 -568 1056 -568 l 1056 -568 q 1122 -568 1166 -544 q 1210 -521 1237 -480 q 1264 -440 1276 -388 q 1288 -337 1288 -280 z"},"ൌ":{"ha":1731,"x_min":38,"x_max":1693,"o":"m 246 12 l 246 12 q 191 12 144 -14 q 96 -40 67 -95 q 38 -150 38 -235 l 38 -235 q 38 -312 64 -373 q 90 -435 137 -478 q 184 -522 248 -545 q 311 -568 387 -568 l 387 -568 q 467 -568 526 -546 q 584 -524 623 -484 q 661 -445 680 -393 q 698 -341 698 -281 l 698 -281 q 698 -212 678 -158 q 657 -104 622 -62 q 586 -21 539 10 l 539 10 l 476 -57 q 508 -80 534 -110 q 560 -140 576 -180 q 591 -221 591 -273 l 591 -273 q 591 -338 567 -385 q 543 -433 496 -459 q 449 -486 380 -486 l 380 -486 q 309 -486 254 -452 q 198 -419 167 -361 q 135 -304 135 -231 l 135 -231 q 135 -174 150 -137 q 164 -101 189 -84 q 214 -67 246 -67 l 246 -67 q 270 -67 288 -77 q 306 -88 316 -109 q 326 -130 326 -160 l 326 -160 q 326 -205 302 -230 q 278 -255 238 -255 l 238 -255 q 200 -255 165 -235 q 130 -215 100 -181 l 100 -181 l 85 -254 q 114 -288 160 -311 q 205 -334 258 -334 l 258 -334 q 310 -334 348 -314 q 385 -294 406 -257 q 426 -220 426 -168 l 426 -168 q 426 -112 404 -71 q 382 -31 342 -9 q 302 12 246 12 z m 845 -227 l 845 -227 q 816 -227 796 -244 q 776 -261 776 -299 l 776 -299 q 776 -339 796 -355 q 816 -372 845 -372 l 845 -372 q 873 -372 893 -356 q 913 -340 913 -299 l 913 -299 q 913 -261 893 -244 q 873 -227 845 -227 z m 1480 -568 l 1480 -568 q 1547 -568 1594 -535 q 1641 -503 1667 -443 q 1692 -384 1692 -306 l 1692 -306 q 1692 -205 1660 -134 q 1627 -63 1564 -25 q 1500 12 1407 12 l 1407 12 q 1333 12 1280 -1 q 1227 -15 1176 -41 l 1176 -41 l 1222 -119 q 1263 -96 1304 -83 q 1344 -70 1400 -70 l 1400 -70 q 1471 -70 1512 -101 q 1553 -132 1570 -185 q 1586 -238 1586 -305 l 1586 -305 q 1586 -400 1556 -443 q 1525 -487 1475 -487 l 1475 -487 q 1447 -487 1428 -476 q 1409 -465 1398 -446 l 1398 -446 q 1389 -430 1387 -407 q 1384 -385 1384 -344 l 1384 -344 l 1384 -259 l 1280 -259 l 1280 -333 q 1280 -375 1277 -403 q 1273 -431 1263 -447 l 1263 -447 q 1250 -468 1231 -477 q 1212 -487 1189 -487 l 1189 -487 q 1139 -487 1115 -454 q 1090 -421 1090 -374 l 1090 -374 q 1090 -342 1094 -319 q 1098 -296 1105 -276 l 1105 -276 l 1006 -255 q 996 -283 991 -317 q 986 -351 986 -378 l 986 -378 q 986 -430 1007 -473 q 1028 -516 1072 -542 q 1116 -568 1183 -568 l 1183 -568 q 1238 -568 1275 -547 q 1311 -526 1336 -489 l 1336 -489 l 1323 -490 q 1353 -532 1391 -550 q 1429 -568 1480 -568 z"},"്":{"ha":0,"x_min":-302,"x_max":77,"o":"m -113 -592 l -113 -592 q -175 -592 -217 -613 q -260 -634 -281 -670 q -302 -707 -302 -755 l -302 -755 q -302 -774 -299 -792 q -296 -810 -292 -822 l -292 -822 l -202 -805 q -205 -796 -206 -783 q -208 -770 -208 -759 l -208 -759 q -208 -726 -195 -706 q -182 -686 -160 -678 q -138 -670 -112 -670 l -112 -670 q -84 -670 -62 -678 q -41 -686 -28 -706 q -16 -726 -16 -759 l -16 -759 q -16 -770 -17 -783 q -19 -796 -22 -805 l -22 -805 l 67 -822 q 71 -810 74 -792 q 77 -774 77 -755 l 77 -755 q 77 -707 56 -670 q 34 -634 -8 -613 q -50 -592 -113 -592 z"},"ൎ":{"ha":0,"x_min":-343,"x_max":-222,"o":"m -343 -815 l -222 -815 l -232 -630 l -333 -630 l -343 -815 z"},"൏":{"ha":1276,"x_min":45,"x_max":1234,"o":"m 598 -568 l 598 -568 q 684 -568 737 -541 q 790 -515 828 -470 l 828 -470 l 810 -482 q 842 -527 886 -547 q 929 -568 990 -568 l 990 -568 q 1071 -568 1125 -527 q 1179 -487 1207 -412 q 1234 -338 1234 -233 l 1234 -233 q 1234 -79 1172 25 q 1110 129 979 182 q 848 234 639 234 l 639 234 q 496 234 394 210 q 292 186 224 142 q 156 98 117 39 q 78 -20 62 -89 q 45 -159 45 -234 l 45 -234 q 45 -311 65 -386 q 84 -462 120 -537 l 120 -537 l 210 -500 q 176 -434 162 -366 q 147 -299 147 -237 l 147 -237 q 147 -178 158 -121 q 168 -65 198 -16 q 227 32 282 69 q 337 106 425 127 q 512 147 640 147 l 640 147 q 778 147 872 121 q 966 95 1023 46 q 1079 -4 1104 -75 q 1129 -147 1129 -238 l 1129 -238 q 1129 -318 1112 -373 q 1094 -428 1063 -457 q 1031 -486 986 -486 l 986 -486 q 949 -486 926 -473 q 902 -460 886 -436 l 886 -436 q 874 -415 869 -384 q 864 -354 864 -296 l 864 -296 l 864 0 l 760 0 l 760 -294 q 760 -359 749 -394 q 738 -429 716 -449 l 716 -449 q 695 -468 668 -477 q 641 -486 596 -486 l 596 -486 q 527 -486 475 -455 q 423 -424 394 -368 q 365 -313 365 -239 l 365 -239 l 365 -231 q 365 -175 380 -138 q 394 -102 419 -84 q 443 -67 476 -67 l 476 -67 q 500 -67 518 -77 q 535 -88 545 -109 q 555 -130 555 -160 l 555 -160 q 555 -206 532 -230 q 508 -255 467 -255 l 467 -255 q 429 -255 395 -234 q 360 -214 329 -181 l 329 -181 l 315 -254 q 344 -288 390 -311 q 436 -334 489 -334 l 489 -334 q 539 -334 577 -314 q 614 -294 635 -257 q 655 -220 655 -168 l 655 -168 q 655 -112 633 -71 q 611 -31 571 -9 q 531 12 476 12 l 476 12 q 421 12 374 -14 q 326 -40 297 -96 q 268 -152 268 -241 l 268 -241 q 268 -348 313 -420 q 357 -493 432 -530 q 506 -568 598 -568 z"},"ൔ":{"ha":664,"x_min":59,"x_max":652,"o":"m 190 -794 l 190 -794 q 227 -794 255 -784 q 282 -775 299 -760 l 299 -760 q 324 -738 333 -709 q 342 -680 342 -635 l 342 -635 l 342 -518 q 342 -471 348 -432 q 354 -393 374 -357 q 393 -321 433 -281 l 433 -281 l 458 -256 q 492 -220 540 -177 q 587 -134 652 -78 l 652 -78 l 613 0 l 59 0 l 59 -265 q 59 -319 68 -361 q 76 -403 95 -436 q 113 -469 140 -494 l 140 -494 q 178 -529 229 -548 q 280 -568 342 -568 l 342 -568 q 403 -568 447 -543 q 490 -519 513 -478 q 536 -437 536 -387 l 536 -387 q 536 -344 518 -301 q 500 -259 468 -222 l 468 -222 l 447 -202 q 425 -178 398 -153 q 371 -128 339 -102 q 307 -77 271 -51 l 271 -51 l 275 -75 q 304 -77 331 -78 q 358 -80 381 -80 l 381 -80 l 469 -80 q 484 -80 502 -80 q 519 -80 536 -79 q 553 -78 567 -75 l 567 -75 l 543 -62 q 499 -100 463 -132 q 426 -165 397 -195 l 397 -195 l 375 -217 q 322 -270 293 -315 q 264 -361 254 -407 q 243 -454 243 -508 l 243 -508 l 243 -623 q 243 -654 238 -671 q 232 -688 220 -697 l 220 -697 q 212 -705 199 -709 q 186 -713 168 -713 l 168 -713 q 147 -713 128 -710 q 109 -707 96 -702 l 96 -702 l 75 -779 q 94 -785 125 -789 q 155 -794 190 -794 z m 163 -256 l 163 -68 l 155 -70 q 208 -107 251 -140 q 294 -174 328 -206 q 361 -238 384 -269 l 384 -269 l 404 -288 q 419 -313 426 -337 q 432 -361 432 -387 l 432 -387 q 432 -419 419 -441 q 405 -464 381 -476 q 356 -489 321 -489 l 321 -489 q 274 -489 244 -468 q 214 -448 195 -415 l 195 -415 q 185 -397 178 -374 q 170 -351 167 -322 q 163 -293 163 -256 l 163 -256 z"},"ൕ":{"ha":1065,"x_min":38,"x_max":1025,"o":"m 702 12 l 702 12 q 662 12 630 8 q 597 4 568 -5 q 539 -14 509 -29 l 509 -29 q 503 -32 493 -36 q 483 -40 478 -43 l 478 -43 q 421 -82 386 -128 q 351 -175 335 -227 q 319 -280 319 -337 l 319 -337 q 319 -376 328 -408 q 337 -440 352 -466 l 352 -466 l 360 -476 q 381 -509 410 -529 q 438 -549 472 -558 q 506 -568 542 -568 l 542 -568 q 646 -568 704 -506 q 761 -444 761 -332 l 761 -332 q 761 -272 743 -219 q 725 -167 692 -125 q 659 -83 614 -53 l 614 -53 q 605 -47 598 -42 q 590 -38 580 -33 l 580 -33 q 537 -10 489 1 q 440 12 387 12 l 387 12 q 303 12 239 -13 q 174 -39 129 -85 q 84 -132 61 -195 q 38 -259 38 -334 l 38 -334 q 38 -405 65 -457 q 92 -509 144 -538 q 195 -568 266 -568 l 266 -568 q 326 -568 371 -546 q 415 -525 444 -485 l 444 -485 l 368 -425 q 353 -452 329 -470 q 304 -488 266 -488 l 266 -488 q 230 -488 202 -470 q 174 -453 159 -418 q 143 -383 143 -333 l 143 -333 q 143 -261 172 -200 q 201 -140 257 -103 q 313 -66 394 -66 l 394 -66 q 417 -66 440 -68 q 462 -71 483 -76 l 483 -76 q 494 -80 505 -83 q 515 -86 525 -90 l 525 -90 q 559 -107 589 -140 q 618 -174 637 -222 q 656 -271 656 -332 l 656 -332 q 656 -390 640 -424 q 624 -458 598 -473 q 571 -488 542 -488 l 542 -488 q 506 -488 480 -470 q 453 -453 439 -418 q 424 -383 424 -332 l 424 -332 q 424 -278 441 -229 q 457 -181 488 -144 q 519 -107 559 -86 l 559 -86 q 569 -82 577 -82 q 584 -82 594 -79 l 594 -79 q 611 -74 636 -70 q 661 -66 701 -66 l 701 -66 q 779 -66 827 -93 q 875 -120 897 -163 q 919 -207 919 -258 l 919 -258 q 919 -301 907 -336 q 895 -372 875 -403 q 854 -435 829 -468 l 829 -468 q 799 -507 779 -537 q 759 -568 749 -597 q 738 -627 738 -662 l 738 -662 q 738 -690 752 -721 q 765 -752 799 -773 q 833 -794 894 -794 l 894 -794 q 931 -794 961 -789 q 991 -785 1008 -780 l 1008 -780 l 986 -702 q 973 -707 955 -710 q 936 -713 913 -713 l 913 -713 q 875 -713 859 -694 q 842 -676 842 -650 l 842 -650 q 842 -631 851 -611 q 860 -591 878 -567 q 896 -544 922 -511 l 922 -511 q 953 -472 976 -432 q 999 -393 1012 -351 q 1025 -310 1025 -265 l 1025 -265 q 1025 -217 1013 -174 q 1000 -132 975 -98 q 950 -64 912 -39 q 873 -14 821 -1 q 768 12 702 12 z"},"ൖ":{"ha":751,"x_min":36,"x_max":715,"o":"m 230 -162 l 230 -162 q 230 -134 241 -113 q 252 -93 276 -81 q 300 -69 338 -69 l 338 -69 q 394 -69 412 -87 q 430 -106 430 -135 l 430 -135 q 430 -169 418 -199 q 405 -229 389 -259 q 372 -289 359 -323 q 346 -358 346 -403 l 346 -403 q 346 -446 366 -483 q 385 -521 426 -544 q 466 -568 528 -568 l 528 -568 q 596 -568 637 -542 q 678 -516 697 -475 q 715 -435 715 -392 l 715 -392 q 715 -325 680 -270 q 645 -216 577 -183 q 509 -151 407 -151 l 407 -151 l 376 -151 q 324 -151 283 -158 q 241 -166 203 -181 l 203 -181 l 169 -190 q 126 -211 97 -242 q 67 -274 52 -314 q 36 -355 36 -402 l 36 -402 q 36 -440 49 -482 q 62 -525 92 -569 l 92 -569 l 173 -526 q 154 -491 147 -462 q 140 -434 140 -402 l 140 -402 q 140 -362 152 -332 q 163 -303 184 -282 l 184 -282 l 220 -263 q 249 -245 291 -236 q 332 -228 374 -228 l 374 -228 l 409 -228 q 479 -228 524 -250 q 568 -273 590 -311 q 612 -350 612 -397 l 612 -397 q 612 -433 594 -462 q 575 -491 527 -491 l 527 -491 q 498 -491 479 -479 q 460 -467 451 -447 q 442 -428 442 -403 l 442 -403 q 442 -364 456 -330 q 469 -297 486 -265 q 503 -234 517 -200 q 530 -166 530 -127 l 530 -127 q 530 -103 522 -78 q 514 -54 494 -33 q 473 -13 435 0 q 396 12 336 12 l 336 12 q 276 12 230 -7 q 184 -26 159 -66 q 134 -107 134 -170 l 134 -170 q 134 -218 150 -264 q 165 -310 189 -356 q 212 -402 238 -447 l 238 -447 q 266 -496 283 -530 q 300 -564 308 -590 q 316 -617 316 -642 l 316 -642 q 316 -673 299 -693 q 282 -713 240 -713 l 240 -713 q 220 -713 202 -710 q 183 -707 170 -702 l 170 -702 l 149 -779 q 168 -785 199 -789 q 230 -794 264 -794 l 264 -794 q 326 -794 360 -772 q 394 -750 407 -719 q 420 -688 420 -660 l 420 -660 q 420 -632 415 -607 q 410 -582 398 -554 q 386 -526 366 -490 q 346 -454 315 -402 l 315 -402 q 296 -368 280 -339 q 264 -310 253 -282 q 242 -254 236 -225 q 230 -196 230 -162 z"},"ൗ":{"ha":779,"x_min":35,"x_max":741,"o":"m 529 -568 l 529 -568 q 596 -568 643 -535 q 690 -503 716 -443 q 741 -384 741 -306 l 741 -306 q 741 -205 709 -134 q 676 -63 613 -25 q 549 12 456 12 l 456 12 q 382 12 329 -1 q 276 -15 225 -41 l 225 -41 l 271 -119 q 312 -96 353 -83 q 393 -70 449 -70 l 449 -70 q 520 -70 561 -101 q 602 -132 619 -185 q 635 -238 635 -305 l 635 -305 q 635 -400 605 -443 q 574 -487 524 -487 l 524 -487 q 496 -487 477 -476 q 458 -465 447 -446 l 447 -446 q 438 -430 436 -407 q 433 -385 433 -344 l 433 -344 l 433 -259 l 329 -259 l 329 -333 q 329 -375 326 -403 q 322 -431 312 -447 l 312 -447 q 299 -468 280 -477 q 261 -487 238 -487 l 238 -487 q 188 -487 164 -454 q 139 -421 139 -374 l 139 -374 q 139 -342 143 -319 q 147 -296 154 -276 l 154 -276 l 55 -255 q 45 -283 40 -317 q 35 -351 35 -378 l 35 -378 q 35 -430 56 -473 q 77 -516 121 -542 q 165 -568 232 -568 l 232 -568 q 287 -568 324 -547 q 360 -526 385 -489 l 385 -489 l 372 -490 q 402 -532 440 -550 q 478 -568 529 -568 z"},"൘":{"ha":1257,"x_min":38,"x_max":1214,"o":"m 622 12 l 622 12 q 567 12 523 -10 q 479 -33 448 -77 l 448 -77 l 457 -76 q 427 -34 389 -11 q 350 12 287 12 l 287 12 q 211 12 156 -22 q 100 -57 69 -119 q 38 -181 38 -263 l 38 -263 q 38 -334 57 -388 q 76 -442 109 -485 q 142 -529 186 -566 l 186 -566 l 257 -499 q 224 -471 199 -437 q 173 -404 159 -361 q 144 -319 144 -264 l 144 -264 q 144 -202 164 -158 q 184 -115 216 -92 q 248 -70 287 -70 l 287 -70 q 321 -70 343 -82 q 364 -94 378 -118 l 378 -118 q 392 -140 396 -172 q 400 -205 400 -255 l 400 -255 l 400 -556 l 504 -556 l 504 -250 q 504 -189 512 -157 q 520 -126 538 -106 l 538 -106 q 552 -89 575 -79 q 598 -70 622 -70 l 622 -70 q 651 -70 672 -78 q 693 -87 706 -103 l 706 -103 q 724 -123 732 -155 q 739 -187 739 -241 l 739 -241 l 739 -556 l 843 -556 l 843 -261 l 793 -77 q 768 -35 727 -11 q 686 12 622 12 z m 965 12 l 965 12 q 906 12 864 -8 q 821 -29 786 -77 l 786 -77 l 749 -241 l 749 -546 l 843 -546 l 843 -261 q 843 -203 847 -172 q 851 -142 864 -120 l 864 -120 q 879 -95 903 -82 q 927 -70 961 -70 l 961 -70 q 1004 -70 1038 -96 q 1071 -122 1090 -177 q 1109 -232 1109 -321 l 1109 -321 q 1109 -394 1094 -459 q 1079 -525 1046 -580 q 1012 -636 958 -676 q 904 -716 827 -738 q 750 -761 646 -761 l 646 -761 q 572 -761 510 -752 q 447 -744 397 -731 l 397 -731 l 383 -815 q 424 -825 465 -832 q 506 -839 551 -842 q 596 -845 646 -845 l 646 -845 q 769 -845 863 -819 q 956 -793 1023 -745 q 1090 -698 1132 -633 q 1174 -568 1194 -490 q 1214 -412 1214 -323 l 1214 -323 q 1214 -209 1185 -134 q 1155 -60 1099 -24 q 1043 12 965 12 z"},"൙":{"ha":1165,"x_min":38,"x_max":1146,"o":"m 373 -568 l 373 -568 q 461 -568 526 -543 q 591 -518 635 -473 q 678 -429 700 -369 q 722 -310 722 -240 l 722 -240 q 722 -152 694 -96 q 665 -40 616 -14 q 566 12 501 12 l 501 12 q 434 12 391 -12 q 348 -36 328 -74 q 307 -112 307 -155 l 307 -155 q 307 -203 327 -237 q 347 -272 381 -293 l 381 -293 q 404 -308 431 -317 q 457 -326 496 -330 q 535 -334 594 -334 l 594 -334 l 727 -334 l 727 -253 l 602 -253 q 538 -253 505 -248 q 471 -243 446 -227 l 446 -227 q 428 -216 419 -199 q 410 -182 410 -155 l 410 -155 q 410 -117 433 -92 q 456 -68 501 -68 l 501 -68 q 539 -68 566 -86 q 593 -104 607 -143 q 621 -182 621 -245 l 621 -245 q 621 -260 620 -276 q 618 -293 615 -306 l 615 -306 l 613 -323 q 603 -370 574 -407 q 544 -444 496 -465 q 447 -486 378 -486 l 378 -486 q 304 -486 252 -461 q 200 -436 173 -389 q 145 -342 145 -275 l 145 -275 q 145 -225 159 -185 q 173 -145 200 -114 q 226 -83 262 -57 l 262 -57 l 197 10 q 154 -19 118 -59 q 82 -99 60 -154 q 38 -209 38 -278 l 38 -278 q 38 -334 58 -386 q 77 -439 118 -480 q 158 -521 222 -544 q 285 -568 373 -568 z m 970 -556 l 970 -556 q 1032 -556 1071 -535 q 1109 -514 1128 -481 q 1146 -448 1146 -409 l 1146 -409 q 1146 -366 1131 -337 q 1115 -309 1089 -290 l 1089 -290 q 1069 -277 1046 -268 q 1023 -260 994 -256 q 964 -253 923 -253 l 923 -253 l 661 -253 l 661 -334 l 921 -334 q 956 -334 977 -337 q 997 -340 1010 -347 l 1010 -347 q 1027 -355 1036 -369 q 1045 -383 1045 -407 l 1045 -407 q 1045 -438 1027 -457 q 1008 -477 971 -477 l 971 -477 q 930 -477 909 -454 q 887 -432 887 -391 l 887 -391 q 887 -359 898 -334 q 909 -310 928 -286 l 928 -286 l 830 -281 q 814 -305 802 -336 q 790 -368 790 -405 l 790 -405 q 790 -453 814 -487 q 837 -521 878 -538 q 919 -556 970 -556 z"},"൚":{"ha":1102,"x_min":38,"x_max":1043,"o":"m 719 -568 l 719 -568 q 802 -568 862 -549 q 921 -530 960 -495 l 960 -495 q 989 -470 1008 -437 q 1026 -405 1035 -362 q 1043 -320 1043 -263 l 1043 -263 l 1043 0 l 519 0 l 519 -77 q 582 -127 632 -181 q 681 -235 710 -290 q 738 -346 738 -399 l 738 -399 q 738 -425 731 -444 q 723 -464 707 -475 q 691 -487 664 -487 l 664 -487 q 625 -487 595 -466 q 565 -445 549 -415 l 549 -415 q 531 -383 526 -348 q 520 -314 520 -263 l 520 -263 l 520 -230 l 415 -230 l 415 -300 q 415 -355 411 -385 q 407 -415 393 -436 l 393 -436 q 378 -461 354 -473 q 330 -486 296 -486 l 296 -486 q 253 -486 219 -462 q 184 -438 164 -394 q 144 -351 144 -293 l 144 -293 q 144 -238 159 -195 q 173 -152 199 -118 q 224 -85 257 -58 l 257 -58 l 186 9 q 142 -28 109 -71 q 76 -114 57 -168 q 38 -223 38 -293 l 38 -293 q 38 -374 70 -435 q 101 -497 159 -532 q 216 -568 297 -568 l 297 -568 q 351 -568 388 -551 q 424 -534 449 -507 q 473 -481 492 -450 l 492 -450 l 459 -448 q 485 -490 524 -516 q 562 -543 611 -555 q 660 -568 719 -568 z m 841 -386 l 841 -386 q 841 -330 816 -276 q 791 -223 746 -169 q 701 -115 638 -59 l 638 -59 l 629 -75 q 657 -78 685 -79 q 712 -80 736 -80 l 736 -80 l 939 -80 l 939 -250 q 939 -322 926 -368 q 912 -415 881 -444 q 849 -473 798 -488 l 798 -488 l 801 -495 q 818 -474 830 -449 q 841 -424 841 -386 z"},"൛":{"ha":988,"x_min":69,"x_max":949,"o":"m 637 12 l 637 12 q 559 12 502 -10 q 444 -33 407 -72 q 369 -112 351 -163 q 333 -215 333 -273 l 333 -273 q 333 -329 347 -371 q 361 -413 384 -447 q 407 -482 435 -513 l 435 -513 l 444 -476 l 173 -476 l 173 0 l 69 0 l 69 -556 l 509 -556 l 547 -494 q 519 -472 495 -443 q 470 -414 455 -375 q 439 -336 439 -283 l 439 -283 q 439 -221 463 -172 q 487 -124 532 -97 q 577 -70 640 -70 l 640 -70 q 703 -70 749 -97 q 794 -125 818 -173 q 842 -221 842 -281 l 842 -281 q 842 -332 828 -371 q 814 -411 789 -442 q 763 -474 726 -499 l 726 -499 l 790 -566 q 834 -539 870 -498 q 906 -457 928 -402 q 949 -348 949 -278 l 949 -278 q 949 -219 930 -166 q 911 -114 872 -74 q 833 -34 774 -11 q 715 12 637 12 z"},"൜":{"ha":1562,"x_min":38,"x_max":1523,"o":"m 941 -568 l 941 -568 q 994 -568 1035 -554 q 1075 -540 1103 -508 l 1103 -508 q 1118 -491 1130 -466 q 1141 -441 1148 -401 q 1155 -361 1155 -298 l 1155 -298 l 1155 -270 q 1155 -215 1161 -176 q 1166 -138 1181 -114 l 1181 -114 q 1194 -94 1217 -82 q 1239 -70 1278 -70 l 1278 -70 q 1320 -70 1351 -93 q 1382 -117 1400 -161 q 1417 -205 1417 -267 l 1417 -267 q 1417 -320 1404 -362 q 1390 -405 1365 -439 q 1340 -474 1305 -503 l 1305 -503 l 1372 -569 q 1422 -528 1456 -483 q 1489 -438 1506 -384 q 1523 -331 1523 -263 l 1523 -263 q 1523 -178 1493 -116 q 1462 -54 1406 -21 q 1350 12 1273 12 l 1273 12 q 1214 12 1173 -5 q 1131 -22 1104 -52 l 1104 -52 q 1084 -75 1072 -102 q 1060 -130 1055 -166 q 1050 -202 1050 -248 l 1050 -248 l 1050 -293 q 1050 -360 1044 -395 q 1037 -431 1021 -451 l 1021 -451 q 1007 -469 987 -477 q 967 -486 942 -486 l 942 -486 q 917 -486 897 -478 q 876 -471 862 -452 l 862 -452 q 846 -431 840 -394 q 834 -358 834 -286 l 834 -286 l 834 -259 q 834 -197 828 -156 q 821 -116 809 -91 q 797 -67 782 -49 l 782 -49 q 755 -17 715 -2 q 675 12 621 12 l 621 12 q 567 12 527 -2 q 487 -17 459 -48 l 459 -48 q 444 -66 432 -91 q 420 -116 413 -156 q 406 -196 406 -259 l 406 -259 l 406 -287 q 406 -342 402 -380 q 397 -419 381 -442 l 381 -442 q 368 -463 346 -474 q 324 -486 283 -486 l 283 -486 q 243 -486 211 -463 q 179 -440 162 -396 q 144 -353 144 -290 l 144 -290 q 144 -238 158 -195 q 171 -152 197 -118 q 222 -84 257 -55 l 257 -55 l 190 12 q 141 -30 107 -74 q 73 -119 56 -173 q 38 -227 38 -294 l 38 -294 q 38 -379 69 -440 q 99 -502 156 -535 q 212 -568 288 -568 l 288 -568 q 348 -568 390 -551 q 431 -535 458 -504 l 458 -504 q 478 -482 490 -454 q 501 -426 507 -390 q 512 -355 512 -306 l 512 -306 l 512 -264 q 512 -197 519 -161 q 525 -126 541 -105 l 541 -105 q 555 -88 575 -79 q 595 -70 619 -70 l 619 -70 q 645 -70 665 -78 q 685 -86 699 -104 l 699 -104 q 715 -125 722 -160 q 728 -196 728 -262 l 728 -262 l 728 -298 q 728 -361 735 -400 q 741 -440 753 -465 q 765 -490 780 -508 l 780 -508 q 807 -540 847 -554 q 886 -568 941 -568 z"},"൝":{"ha":2063,"x_min":9,"x_max":2024,"o":"m 799 -568 l 799 -568 q 852 -568 893 -554 q 933 -540 961 -508 l 961 -508 q 976 -491 988 -466 q 1000 -441 1007 -401 q 1013 -361 1013 -298 l 1013 -298 l 1013 -264 q 1013 -197 1020 -161 q 1026 -126 1042 -105 l 1042 -105 q 1056 -88 1077 -79 q 1097 -70 1120 -70 l 1120 -70 q 1146 -70 1167 -78 q 1187 -86 1200 -104 l 1200 -104 q 1216 -125 1223 -160 q 1229 -196 1229 -262 l 1229 -262 l 1229 -298 q 1229 -361 1236 -400 q 1242 -440 1254 -465 q 1266 -490 1281 -508 l 1281 -508 q 1308 -540 1348 -554 q 1388 -568 1442 -568 l 1442 -568 q 1495 -568 1536 -554 q 1576 -540 1604 -508 l 1604 -508 q 1620 -491 1632 -466 q 1643 -441 1650 -401 q 1656 -361 1656 -298 l 1656 -298 l 1656 -270 q 1656 -215 1662 -176 q 1667 -138 1682 -114 l 1682 -114 q 1695 -94 1718 -82 q 1740 -70 1779 -70 l 1779 -70 q 1821 -70 1853 -93 q 1884 -117 1901 -161 q 1918 -205 1918 -267 l 1918 -267 q 1918 -320 1905 -362 q 1891 -405 1866 -439 q 1841 -474 1806 -503 l 1806 -503 l 1873 -569 q 1923 -528 1957 -483 q 1990 -438 2007 -384 q 2024 -331 2024 -263 l 2024 -263 q 2024 -178 1994 -116 q 1963 -54 1907 -21 q 1851 12 1774 12 l 1774 12 q 1715 12 1674 -5 q 1632 -22 1605 -52 l 1605 -52 q 1585 -75 1573 -102 q 1561 -130 1556 -166 q 1551 -202 1551 -248 l 1551 -248 l 1551 -293 q 1551 -360 1545 -395 q 1538 -431 1522 -451 l 1522 -451 q 1508 -469 1488 -477 q 1468 -486 1444 -486 l 1444 -486 q 1419 -486 1398 -478 q 1377 -471 1364 -452 l 1364 -452 q 1348 -431 1342 -394 q 1335 -358 1335 -286 l 1335 -286 l 1335 -259 q 1335 -197 1329 -156 q 1322 -116 1311 -91 q 1299 -67 1283 -49 l 1283 -49 q 1256 -17 1216 -2 q 1176 12 1122 12 l 1122 12 q 1068 12 1028 -2 q 988 -17 960 -48 l 960 -48 q 945 -66 933 -91 q 921 -116 915 -156 q 908 -196 908 -259 l 908 -259 l 908 -294 q 908 -361 902 -396 q 895 -431 879 -451 l 879 -451 q 865 -469 845 -477 q 825 -486 800 -486 l 800 -486 q 775 -486 755 -478 q 734 -471 720 -452 l 720 -452 q 704 -431 698 -394 q 692 -358 692 -286 l 692 -286 l 692 -245 q 692 -171 679 -127 q 666 -84 638 -53 l 638 -53 q 609 -20 569 -4 q 528 12 468 12 l 468 12 q 401 12 358 -16 q 315 -44 286 -93 l 286 -93 l 305 -79 q 285 -52 261 -31 q 236 -10 203 1 q 169 12 124 12 l 124 12 q 92 12 65 5 q 38 -2 9 -16 l 9 -16 l 41 -93 q 59 -83 80 -76 q 100 -70 126 -70 l 126 -70 q 160 -70 185 -83 q 209 -96 225 -122 l 225 -122 q 238 -144 242 -173 q 245 -203 245 -261 l 245 -261 l 245 -555 l 350 -556 l 350 -241 q 350 -188 358 -155 q 365 -123 383 -103 l 383 -103 q 396 -88 418 -79 q 439 -70 466 -70 l 466 -70 q 500 -70 523 -83 q 546 -96 559 -115 l 559 -115 q 574 -137 580 -174 q 586 -212 586 -283 l 586 -283 l 586 -298 q 586 -361 593 -400 q 599 -440 611 -465 q 623 -490 638 -508 l 638 -508 q 665 -540 705 -554 q 744 -568 799 -568 z"},"൞":{"ha":1418,"x_min":38,"x_max":1390,"o":"m 373 -568 l 373 -568 q 461 -568 526 -543 q 591 -518 635 -473 q 678 -429 700 -369 q 722 -310 722 -240 l 722 -240 q 722 -152 694 -96 q 665 -40 616 -14 q 566 12 501 12 l 501 12 q 434 12 391 -12 q 348 -36 328 -74 q 307 -112 307 -155 l 307 -155 q 307 -203 327 -237 q 347 -272 381 -293 l 381 -293 q 404 -308 431 -317 q 457 -326 496 -330 q 535 -334 594 -334 l 594 -334 l 661 -334 l 661 -253 l 602 -253 q 538 -253 505 -248 q 471 -243 446 -227 l 446 -227 q 428 -216 419 -199 q 410 -182 410 -155 l 410 -155 q 410 -117 433 -92 q 456 -68 501 -68 l 501 -68 q 539 -68 566 -86 q 593 -104 607 -143 q 621 -182 621 -245 l 621 -245 q 621 -260 620 -276 q 618 -293 615 -306 l 615 -306 l 613 -323 q 603 -370 574 -407 q 544 -444 496 -465 q 447 -486 378 -486 l 378 -486 q 304 -486 252 -461 q 200 -436 173 -389 q 145 -342 145 -275 l 145 -275 q 145 -225 159 -185 q 173 -145 200 -114 q 226 -83 262 -57 l 262 -57 l 197 10 q 154 -19 118 -59 q 82 -99 60 -154 q 38 -209 38 -278 l 38 -278 q 38 -334 58 -386 q 77 -439 118 -480 q 158 -521 222 -544 q 285 -568 373 -568 z m 1182 -206 l 1182 -206 q 1111 -206 1065 -232 q 1018 -258 996 -299 q 973 -341 973 -384 l 973 -384 q 973 -422 985 -451 q 997 -481 1013 -496 l 1013 -496 l 1034 -477 l 826 -477 l 866 -496 q 880 -480 890 -455 q 899 -431 899 -402 l 899 -402 q 899 -345 872 -312 q 844 -280 797 -266 q 749 -253 689 -253 l 689 -253 l 648 -253 l 648 -334 l 685 -334 q 719 -334 746 -338 q 773 -343 789 -359 q 804 -375 804 -407 l 804 -407 q 804 -429 798 -445 q 791 -462 778 -479 l 778 -479 l 806 -556 l 1080 -556 l 1116 -503 q 1098 -484 1087 -459 q 1075 -434 1075 -397 l 1075 -397 q 1075 -348 1102 -317 q 1129 -286 1181 -286 l 1181 -286 q 1216 -286 1240 -300 q 1263 -315 1276 -339 q 1288 -364 1288 -393 l 1288 -393 q 1288 -429 1274 -457 q 1260 -485 1233 -507 l 1233 -507 l 1299 -565 q 1340 -531 1365 -488 q 1390 -446 1390 -389 l 1390 -389 q 1390 -335 1364 -293 q 1338 -252 1292 -229 q 1245 -206 1182 -206 z"},"ൟ":{"ha":1383,"x_min":29,"x_max":1353,"o":"m 29 -269 l 29 -269 q 29 -324 68 -362 q 106 -400 170 -400 l 170 -400 q 234 -400 273 -362 q 311 -325 311 -269 l 311 -269 q 311 -213 273 -175 q 234 -137 170 -137 l 170 -137 q 105 -137 67 -175 q 29 -213 29 -269 z m 109 -270 l 109 -270 q 109 -243 125 -225 q 140 -208 170 -208 l 170 -208 q 200 -208 216 -225 q 231 -243 231 -270 l 231 -270 q 231 -295 216 -312 q 200 -329 170 -329 l 170 -329 q 140 -329 125 -312 q 109 -295 109 -270 z m 1072 -269 l 1072 -269 q 1072 -324 1111 -362 q 1149 -400 1212 -400 l 1212 -400 q 1276 -400 1315 -362 q 1353 -325 1353 -269 l 1353 -269 q 1353 -213 1315 -175 q 1277 -137 1212 -137 l 1212 -137 q 1148 -137 1110 -175 q 1072 -213 1072 -269 z m 1151 -270 l 1151 -270 q 1151 -243 1167 -225 q 1182 -208 1212 -208 l 1212 -208 q 1242 -208 1258 -225 q 1274 -243 1274 -270 l 1274 -270 q 1274 -295 1258 -312 q 1242 -329 1212 -329 l 1212 -329 q 1183 -329 1167 -312 q 1151 -295 1151 -270 z m 684 -568 l 684 -568 q 771 -568 837 -543 q 902 -519 946 -474 q 989 -430 1011 -370 q 1033 -310 1033 -240 l 1033 -240 q 1033 -152 1005 -96 q 976 -40 927 -14 q 877 12 812 12 l 812 12 q 743 12 699 -17 q 654 -47 632 -95 q 610 -143 610 -199 l 610 -199 q 610 -293 662 -349 q 713 -406 802 -406 l 802 -406 q 859 -406 902 -376 q 944 -347 969 -301 q 994 -256 997 -205 l 997 -205 l 963 -208 q 956 -238 938 -265 q 919 -292 891 -309 q 862 -327 825 -327 l 825 -327 q 766 -327 739 -292 q 712 -257 712 -199 l 712 -199 q 712 -160 723 -130 q 733 -101 756 -84 q 778 -68 814 -68 l 814 -68 q 852 -68 878 -86 q 904 -104 918 -143 q 932 -182 932 -245 l 932 -245 q 932 -251 931 -270 q 929 -290 925 -309 l 925 -309 q 924 -314 924 -321 q 924 -329 922 -333 l 922 -333 q 914 -374 885 -409 q 855 -444 807 -465 q 758 -486 688 -486 l 688 -486 q 615 -486 563 -461 q 511 -436 484 -389 q 456 -342 456 -275 l 456 -275 q 456 -225 470 -185 q 484 -145 511 -114 q 537 -83 572 -57 l 572 -57 l 508 10 q 465 -19 429 -59 q 393 -99 371 -154 q 349 -209 349 -278 l 349 -278 q 349 -334 369 -386 q 388 -439 429 -480 q 469 -521 533 -544 q 596 -568 684 -568 z"},"ൠ":{"ha":912,"x_min":36,"x_max":876,"o":"m 682 -568 l 682 -568 q 771 -568 824 -512 q 876 -457 876 -356 l 876 -356 q 876 -286 850 -233 q 823 -181 774 -143 l 774 -143 q 747 -123 711 -109 q 674 -96 627 -89 l 627 -89 l 500 -97 l 407 -96 l 300 -86 q 254 -91 220 -101 q 186 -111 158 -129 l 158 -129 q 99 -167 68 -224 q 36 -282 36 -354 l 36 -354 q 36 -421 61 -469 q 86 -517 132 -542 q 177 -568 241 -568 l 241 -568 q 302 -568 342 -545 q 381 -522 400 -484 q 419 -446 419 -401 l 419 -401 q 419 -356 400 -320 q 381 -285 344 -264 q 306 -244 250 -244 l 250 -244 q 204 -244 170 -258 q 135 -272 111 -293 q 86 -315 69 -335 l 69 -335 l 95 -408 q 110 -388 128 -368 q 145 -348 170 -334 q 195 -321 233 -321 l 233 -321 q 278 -321 299 -344 q 320 -367 320 -404 l 320 -404 q 320 -441 299 -465 q 277 -490 235 -490 l 235 -490 q 201 -490 178 -474 q 154 -458 143 -429 q 131 -400 131 -361 l 131 -361 q 131 -346 133 -333 q 134 -320 138 -308 l 138 -308 l 132 -293 q 148 -252 175 -225 q 201 -199 239 -184 q 276 -170 325 -164 q 374 -159 433 -159 l 433 -159 l 474 -159 q 537 -159 588 -165 q 638 -171 676 -185 q 714 -200 740 -226 q 766 -252 781 -293 l 781 -293 l 775 -307 q 777 -319 779 -331 q 781 -344 781 -354 l 781 -354 q 781 -399 770 -429 q 758 -459 736 -474 q 713 -490 681 -490 l 681 -490 q 637 -490 615 -465 q 592 -441 592 -404 l 592 -404 q 592 -367 614 -344 q 635 -321 679 -321 l 679 -321 q 717 -321 742 -333 q 767 -346 785 -365 q 803 -385 818 -404 l 818 -404 l 843 -333 q 827 -314 803 -293 q 778 -272 744 -258 q 709 -244 662 -244 l 662 -244 q 606 -244 569 -264 q 531 -285 512 -321 q 493 -358 493 -403 l 493 -403 q 493 -446 514 -484 q 534 -522 576 -545 q 618 -568 682 -568 z m 460 224 l 460 224 q 334 224 250 205 q 165 185 123 143 q 81 100 81 30 l 81 30 q 81 -15 107 -46 q 133 -78 177 -97 q 220 -116 276 -124 q 332 -133 392 -133 l 392 -133 l 515 -133 q 578 -133 636 -124 q 693 -116 737 -97 q 780 -78 806 -45 q 831 -13 831 33 l 831 33 q 831 93 794 136 q 757 179 676 202 q 594 224 460 224 z m 459 145 l 459 145 q 557 145 616 133 q 675 120 702 95 q 728 69 728 32 l 728 32 q 728 -5 706 -27 q 684 -50 647 -61 q 610 -73 563 -77 q 515 -82 461 -82 l 461 -82 l 448 -82 q 375 -82 316 -72 q 256 -63 221 -39 q 185 -15 185 31 l 185 31 q 185 71 212 96 q 238 121 299 133 q 359 145 459 145 z m 542 -45 l 542 -45 q 576 -45 597 -32 q 618 -20 629 -1 q 640 17 644 37 q 647 57 647 73 l 647 73 l 647 98 l 572 98 l 572 87 q 572 57 564 43 q 556 28 533 28 l 533 28 q 510 28 502 43 q 493 58 493 84 l 493 84 l 493 98 l 418 98 l 418 85 q 418 59 410 44 q 402 28 379 28 l 379 28 q 355 28 348 44 q 340 60 340 87 l 340 87 l 340 98 l 265 98 l 265 73 q 265 57 269 37 q 273 17 284 -1 q 294 -20 315 -32 q 336 -45 371 -45 l 371 -45 q 403 -45 423 -33 q 443 -22 456 -1 l 456 -1 q 471 -22 492 -33 q 512 -45 542 -45 z"},"ൡ":{"ha":1365,"x_min":41,"x_max":1337,"o":"m 370 -568 l 370 -568 q 456 -568 510 -541 q 563 -515 605 -464 l 605 -464 l 617 -390 l 636 -228 l 636 0 l 532 0 l 532 -295 q 532 -359 521 -394 q 510 -429 488 -449 l 488 -449 q 467 -468 440 -477 q 413 -486 369 -486 l 369 -486 q 299 -486 247 -455 q 195 -424 166 -368 q 137 -313 137 -239 l 137 -239 l 137 -231 q 137 -175 152 -138 q 166 -102 191 -84 q 215 -67 248 -67 l 248 -67 q 272 -67 290 -77 q 307 -88 317 -109 q 327 -130 327 -160 l 327 -160 q 327 -206 304 -230 q 280 -255 239 -255 l 239 -255 q 201 -255 167 -234 q 132 -214 101 -181 l 101 -181 l 87 -254 q 116 -288 162 -311 q 208 -334 261 -334 l 261 -334 q 311 -334 349 -314 q 386 -294 407 -257 q 427 -220 427 -168 l 427 -168 q 427 -112 406 -71 q 384 -31 344 -9 q 304 12 248 12 l 248 12 q 194 12 146 -14 q 98 -40 70 -96 q 41 -152 41 -241 l 41 -241 q 41 -348 85 -420 q 129 -493 204 -530 q 278 -568 370 -568 z m 818 -568 l 818 -568 q 906 -568 971 -538 q 1036 -509 1078 -456 q 1119 -403 1135 -333 l 1135 -333 q 1141 -307 1144 -280 q 1146 -254 1146 -225 l 1146 -225 q 1146 -144 1120 -91 q 1093 -38 1044 -13 q 994 12 926 12 l 926 12 q 859 12 816 -14 q 772 -41 752 -84 q 731 -127 731 -174 l 731 -174 q 731 -274 802 -331 q 873 -388 1004 -388 l 1004 -388 q 1018 -388 1031 -387 q 1043 -387 1055 -385 l 1055 -385 l 1087 -382 q 1166 -370 1222 -330 q 1277 -290 1307 -229 q 1337 -168 1337 -94 l 1337 -94 q 1337 -28 1317 27 q 1297 81 1257 120 q 1216 159 1156 180 q 1096 201 1016 201 l 1016 201 q 964 201 920 193 q 876 184 844 173 l 844 173 l 876 93 q 905 105 939 112 q 973 118 1016 118 l 1016 118 q 1078 118 1120 101 q 1161 84 1187 55 q 1212 26 1224 -12 q 1235 -51 1235 -94 l 1235 -94 q 1235 -145 1222 -183 q 1208 -221 1182 -248 q 1155 -275 1117 -292 l 1117 -292 l 1079 -299 q 1062 -304 1043 -306 q 1023 -309 1005 -309 l 1005 -309 q 949 -309 911 -293 q 873 -278 853 -248 q 833 -219 833 -173 l 833 -173 q 833 -147 843 -122 q 852 -98 874 -83 q 896 -68 931 -68 l 931 -68 q 988 -68 1018 -107 q 1047 -146 1047 -226 l 1047 -226 q 1047 -256 1043 -284 q 1039 -313 1031 -339 l 1031 -339 l 1025 -361 q 1010 -398 983 -426 q 956 -454 915 -470 q 874 -486 817 -486 l 817 -486 q 782 -486 750 -477 q 717 -468 691 -446 l 691 -446 q 674 -431 662 -410 q 649 -389 643 -357 q 636 -325 636 -274 l 636 -274 l 636 -206 l 572 -456 q 599 -491 634 -516 q 669 -541 715 -554 q 761 -568 818 -568 z"},"ൢ":{"ha":0,"x_min":-845,"x_max":-34,"o":"m -606 -22 l -606 -22 q -549 -22 -507 -4 q -465 13 -434 48 l -434 48 l -400 161 l -400 332 l -487 332 l -487 177 q -487 130 -496 106 q -506 82 -525 69 l -525 69 q -539 57 -560 52 q -581 46 -610 46 l -610 46 q -643 46 -675 57 q -707 67 -730 88 q -754 108 -761 139 l -761 139 q -763 149 -764 159 q -765 168 -765 182 l -765 182 q -765 233 -743 253 q -722 272 -696 272 l -696 272 q -666 272 -650 257 q -634 242 -634 212 l -634 212 q -634 184 -650 170 q -667 155 -695 155 l -695 155 q -726 155 -752 171 q -779 186 -802 209 l -802 209 l -815 156 q -789 129 -753 110 q -718 90 -679 90 l -679 90 q -616 90 -584 124 q -552 158 -552 211 l -552 211 q -552 267 -588 302 q -624 337 -696 337 l -696 337 q -766 337 -805 293 q -845 248 -845 172 l -845 172 q -845 113 -813 70 q -781 26 -726 2 q -672 -22 -606 -22 z m -273 -21 l -273 -21 q -202 -21 -148 4 q -95 29 -64 73 q -34 117 -34 178 l -34 178 q -34 262 -77 300 q -121 337 -190 337 l -190 337 q -237 337 -269 319 q -301 300 -316 270 q -332 240 -332 206 l -332 206 q -332 167 -316 138 q -301 109 -271 94 q -241 78 -200 78 l -200 78 q -162 78 -134 96 q -107 114 -90 144 q -73 173 -68 208 l -68 208 l -94 206 q -101 182 -122 162 q -144 141 -179 141 l -179 141 q -216 141 -233 159 q -251 176 -251 205 l -251 205 q -251 235 -235 253 q -220 271 -187 271 l -187 271 q -152 271 -133 248 q -115 225 -115 173 l -115 173 q -115 169 -116 159 q -117 149 -119 140 l -119 140 l -124 121 q -130 102 -150 85 q -170 68 -200 57 q -231 46 -270 46 l -270 46 q -304 46 -327 53 q -351 60 -366 73 l -366 73 q -386 93 -393 120 q -400 146 -400 187 l -400 187 l -476 162 q -476 105 -452 65 q -429 24 -384 2 q -339 -21 -273 -21 z"},"ൣ":{"ha":0,"x_min":-845,"x_max":88,"o":"m -606 -22 l -606 -22 q -549 -22 -507 -4 q -465 13 -434 48 l -434 48 l -400 161 l -400 332 l -487 332 l -487 177 q -487 130 -496 106 q -506 82 -525 69 l -525 69 q -539 57 -560 52 q -581 46 -610 46 l -610 46 q -643 46 -675 57 q -707 67 -730 88 q -754 108 -761 139 l -761 139 q -763 149 -764 159 q -765 168 -765 182 l -765 182 q -765 233 -743 253 q -722 272 -696 272 l -696 272 q -666 272 -650 257 q -634 242 -634 212 l -634 212 q -634 184 -650 170 q -667 155 -695 155 l -695 155 q -726 155 -752 171 q -779 186 -802 209 l -802 209 l -815 156 q -789 129 -753 110 q -718 90 -679 90 l -679 90 q -616 90 -584 124 q -552 158 -552 211 l -552 211 q -552 267 -588 302 q -624 337 -696 337 l -696 337 q -766 337 -805 293 q -845 248 -845 172 l -845 172 q -845 113 -813 70 q -781 26 -726 2 q -672 -22 -606 -22 z m -273 -21 l -273 -21 q -208 -21 -154 2 q -101 24 -69 69 q -37 113 -37 181 l -37 181 q -37 234 -56 269 q -75 304 -109 321 q -144 337 -190 337 l -190 337 q -238 337 -270 321 q -302 304 -317 276 q -332 247 -332 213 l -332 213 q -332 151 -287 113 q -242 75 -145 75 l -145 75 q -133 75 -119 76 q -106 76 -92 77 l -92 77 q -48 83 -7 104 q 34 124 61 164 q 88 204 88 269 l 88 269 q 88 293 82 320 q 75 346 63 363 l 63 363 l -12 335 q -4 322 0 303 q 4 283 4 267 l 4 267 q 4 222 -15 191 q -35 160 -71 146 l -71 146 l -90 145 q -103 142 -115 141 q -128 139 -142 139 l -142 139 q -196 139 -223 160 q -251 181 -251 215 l -251 215 q -251 239 -236 255 q -221 271 -188 271 l -188 271 q -155 271 -136 249 q -117 227 -117 176 l -117 176 q -117 162 -119 148 q -121 133 -126 120 l -126 120 l -136 100 q -148 82 -168 70 q -189 58 -215 52 q -241 46 -270 46 l -270 46 q -304 46 -327 53 q -351 60 -366 73 l -366 73 q -386 93 -393 120 q -400 146 -400 187 l -400 187 l -476 162 q -476 120 -463 86 q -450 52 -424 29 q -399 5 -361 -8 q -323 -21 -273 -21 z"},"൦":{"ha":589,"x_min":39,"x_max":550,"o":"m 295 -41 l 295 -41 q 216 -41 159 -71 q 101 -102 70 -156 q 39 -211 39 -283 l 39 -283 q 39 -355 71 -409 q 103 -463 161 -493 q 218 -523 294 -523 l 294 -523 q 372 -523 430 -493 q 487 -464 519 -410 q 550 -356 550 -283 l 550 -283 q 550 -210 518 -156 q 486 -102 429 -71 q 371 -41 295 -41 z m 295 -123 l 295 -123 q 337 -123 371 -140 q 405 -158 425 -193 q 445 -229 445 -283 l 445 -283 q 445 -363 402 -402 q 359 -442 294 -442 l 294 -442 q 230 -442 187 -402 q 144 -363 144 -281 l 144 -281 q 144 -204 187 -163 q 230 -123 295 -123 z"},"൧":{"ha":921,"x_min":11,"x_max":860,"o":"m 399 119 l 399 201 l 235 201 q 174 201 135 193 q 96 184 70 169 l 70 169 q 41 151 26 124 q 11 97 11 63 l 11 63 q 11 27 25 -1 q 38 -30 68 -49 l 68 -49 q 84 -59 103 -66 q 122 -73 150 -76 q 177 -80 215 -80 l 215 -80 l 452 -80 l 465 0 l 235 0 q 194 0 175 3 q 155 5 144 11 l 144 11 q 129 18 122 30 q 115 42 115 57 l 115 57 q 115 87 138 101 l 138 101 q 150 110 172 115 q 193 119 235 119 l 235 119 l 399 119 z m 600 -568 l 600 -568 q 664 -568 712 -551 q 760 -534 792 -502 l 792 -502 q 828 -469 844 -419 q 860 -370 860 -290 l 860 -290 l 860 0 l 346 0 l 346 -288 q 346 -345 353 -384 q 360 -424 375 -452 q 390 -480 413 -503 l 413 -503 q 445 -533 492 -550 q 539 -568 600 -568 z m 601 -487 l 601 -487 q 565 -487 538 -476 q 511 -465 492 -446 l 492 -446 q 472 -425 461 -389 q 450 -353 450 -280 l 450 -280 l 450 -80 l 756 -80 l 756 -271 q 756 -345 745 -385 q 733 -425 713 -446 l 713 -446 q 694 -465 667 -476 q 640 -487 601 -487 z"},"൨":{"ha":880,"x_min":38,"x_max":863,"o":"m 350 -568 l 350 -568 q 429 -568 487 -545 q 544 -523 582 -483 q 619 -444 637 -392 q 655 -341 655 -284 l 655 -284 q 655 -228 641 -185 q 627 -143 604 -109 q 581 -75 553 -44 l 553 -44 l 544 -80 l 863 -80 l 863 0 l 479 0 l 440 -62 q 469 -84 494 -113 q 518 -143 533 -182 q 548 -222 548 -273 l 548 -273 q 548 -336 525 -384 q 501 -432 456 -459 q 411 -486 348 -486 l 348 -486 q 285 -486 240 -458 q 195 -431 171 -383 q 146 -336 146 -275 l 146 -275 q 146 -225 160 -185 q 174 -145 200 -114 q 226 -83 262 -57 l 262 -57 l 197 10 q 154 -19 118 -59 q 82 -99 60 -154 q 38 -209 38 -278 l 38 -278 q 38 -338 58 -390 q 77 -443 116 -483 q 155 -523 214 -545 q 273 -568 350 -568 z"},"൩":{"ha":1113,"x_min":38,"x_max":1095,"o":"m 296 -568 l 296 -568 q 342 -568 375 -556 q 407 -544 431 -523 q 455 -503 474 -475 l 474 -475 l 461 -475 q 494 -524 538 -546 q 582 -568 647 -568 l 647 -568 q 726 -568 782 -532 q 838 -496 868 -434 q 897 -372 897 -294 l 897 -294 q 897 -238 885 -195 q 873 -153 852 -118 q 831 -83 801 -49 l 801 -49 l 759 0 l 725 0 l 686 -56 q 717 -87 740 -120 q 763 -154 777 -195 q 791 -236 791 -291 l 791 -291 q 791 -350 772 -394 q 753 -438 719 -462 q 685 -486 641 -486 l 641 -486 q 604 -486 580 -473 q 556 -460 541 -436 l 541 -436 q 528 -415 524 -384 q 519 -354 519 -300 l 519 -300 l 519 0 l 415 0 l 415 -301 q 415 -354 411 -384 q 407 -415 393 -436 l 393 -436 q 378 -461 354 -473 q 330 -486 296 -486 l 296 -486 q 253 -486 219 -462 q 184 -438 164 -394 q 144 -351 144 -293 l 144 -293 q 144 -238 159 -195 q 173 -152 199 -118 q 224 -85 257 -58 l 257 -58 l 186 9 q 142 -28 109 -71 q 76 -114 57 -168 q 38 -223 38 -293 l 38 -293 q 38 -374 70 -435 q 101 -497 159 -532 q 216 -568 296 -568 z m 742 0 l 800 -80 l 1095 -80 l 1095 0 l 742 0 z"},"൪":{"ha":818,"x_min":38,"x_max":813,"o":"m 371 -568 l 371 -568 q 449 -568 508 -547 q 566 -527 612 -486 l 612 -486 q 667 -440 699 -373 q 731 -307 731 -227 l 731 -227 q 731 -152 705 -98 q 679 -45 629 -16 q 578 12 506 12 l 506 12 q 437 12 390 -14 q 343 -40 319 -85 q 294 -130 294 -185 l 294 -185 q 294 -254 324 -303 q 353 -353 410 -394 q 466 -436 543 -480 l 543 -480 q 601 -512 638 -533 q 674 -554 691 -574 q 707 -595 707 -622 l 707 -622 q 707 -640 701 -657 q 695 -674 684 -689 l 684 -689 l 780 -734 q 796 -712 805 -684 q 813 -656 813 -626 l 813 -626 q 813 -579 788 -545 q 763 -511 716 -481 q 669 -452 600 -416 l 600 -416 q 534 -379 490 -345 q 445 -311 422 -272 q 399 -234 399 -185 l 399 -185 q 399 -124 430 -96 q 460 -69 506 -69 l 506 -69 q 547 -69 573 -86 q 599 -104 612 -138 q 624 -173 624 -225 l 624 -225 q 624 -283 601 -341 q 578 -399 528 -438 l 528 -438 q 499 -461 461 -474 q 423 -487 373 -487 l 373 -487 q 303 -487 252 -462 q 200 -437 173 -390 q 145 -343 145 -275 l 145 -275 q 145 -225 159 -185 q 173 -145 200 -114 q 226 -83 262 -57 l 262 -57 l 197 10 q 154 -19 118 -59 q 82 -99 60 -154 q 38 -209 38 -278 l 38 -278 q 38 -335 58 -387 q 77 -439 118 -480 q 158 -521 221 -544 q 283 -568 371 -568 z"},"൫":{"ha":1008,"x_min":43,"x_max":964,"o":"m 513 -725 l 513 -725 q 629 -725 714 -692 q 798 -659 854 -598 q 910 -538 937 -455 q 964 -373 964 -274 l 964 -274 q 964 -205 949 -132 q 933 -60 890 12 l 890 12 l 801 -33 q 821 -67 834 -107 q 847 -147 853 -190 q 859 -234 859 -275 l 859 -275 q 859 -352 839 -418 q 818 -484 776 -534 q 733 -584 668 -612 q 602 -641 511 -641 l 511 -641 q 401 -641 320 -595 q 238 -550 194 -463 q 149 -377 149 -255 l 149 -255 q 149 -188 164 -125 q 179 -63 212 -13 q 245 36 301 65 q 357 94 438 94 l 438 94 q 544 94 594 52 q 643 9 643 -63 l 643 -63 q 643 -104 627 -137 q 610 -170 577 -190 q 543 -210 491 -210 l 491 -210 l 478 -210 l 478 -290 l 502 -290 q 538 -290 565 -295 q 591 -301 607 -316 l 607 -316 q 619 -327 625 -342 q 631 -357 631 -376 l 631 -376 q 631 -416 603 -438 q 574 -461 520 -461 l 520 -461 q 465 -461 430 -435 q 395 -409 379 -365 q 362 -322 362 -269 l 362 -269 q 362 -204 382 -148 q 402 -92 442 -44 l 442 -44 l 353 9 q 306 -57 282 -125 q 257 -194 257 -271 l 257 -271 q 257 -353 290 -414 q 322 -475 382 -509 q 441 -543 523 -543 l 523 -543 q 593 -543 641 -521 q 688 -500 712 -463 q 736 -427 736 -382 l 736 -382 q 736 -352 725 -325 q 714 -299 691 -278 q 667 -258 626 -243 l 626 -243 l 616 -254 q 681 -227 714 -179 q 747 -131 747 -63 l 747 -63 q 747 16 710 70 q 673 123 604 151 q 534 178 437 178 l 437 178 q 319 178 230 128 q 141 77 92 -19 q 43 -116 43 -252 l 43 -252 q 43 -373 81 -462 q 118 -551 183 -609 q 248 -668 333 -696 q 418 -725 513 -725 z"},"൬":{"ha":1257,"x_min":38,"x_max":1214,"o":"m 622 -568 l 622 -568 q 686 -568 727 -545 q 768 -522 793 -479 l 793 -479 l 843 -295 l 843 0 l 739 0 l 739 -316 q 739 -369 732 -401 q 724 -433 706 -454 l 706 -454 q 693 -470 672 -478 q 651 -486 622 -486 l 622 -486 q 598 -486 575 -476 q 552 -467 538 -451 l 538 -451 q 520 -430 512 -398 q 504 -367 504 -306 l 504 -306 l 504 0 l 400 0 l 400 -301 q 400 -352 396 -384 q 392 -417 378 -439 l 378 -439 q 364 -463 343 -474 q 321 -486 287 -486 l 287 -486 q 248 -486 216 -463 q 184 -441 164 -397 q 144 -354 144 -293 l 144 -293 q 144 -238 159 -195 q 173 -152 199 -118 q 224 -85 257 -58 l 257 -58 l 186 10 q 142 -28 109 -71 q 76 -114 57 -168 q 38 -223 38 -293 l 38 -293 q 38 -376 69 -438 q 100 -500 156 -534 q 211 -568 287 -568 l 287 -568 q 350 -568 389 -545 q 427 -522 457 -480 l 457 -480 l 448 -479 q 479 -523 523 -545 q 567 -568 622 -568 z m 965 -568 l 965 -568 q 1082 -568 1148 -483 q 1214 -399 1214 -228 l 1214 -228 q 1214 -91 1177 5 q 1139 100 1058 151 q 976 201 843 201 l 843 201 q 813 201 782 199 q 751 197 721 191 l 721 191 l 731 109 q 753 113 780 116 q 806 118 836 118 l 836 118 q 919 118 972 91 q 1024 64 1054 17 q 1084 -30 1096 -92 q 1107 -155 1107 -227 l 1107 -227 q 1107 -317 1089 -374 q 1070 -432 1037 -459 q 1004 -486 961 -486 l 961 -486 q 927 -486 903 -474 q 879 -462 864 -436 l 864 -436 q 851 -415 847 -384 q 843 -354 843 -295 l 843 -295 l 843 -10 l 749 -10 l 749 -316 l 786 -479 q 821 -528 864 -548 q 906 -568 965 -568 z"},"൭":{"ha":764,"x_min":38,"x_max":721,"o":"m 387 -568 l 387 -568 q 473 -568 536 -542 q 599 -517 640 -470 q 681 -423 701 -355 q 721 -288 721 -205 l 721 -205 q 721 -115 698 -40 q 675 35 628 89 q 580 143 508 172 q 435 201 336 201 l 336 201 q 305 201 274 199 q 242 197 211 191 l 211 191 l 221 109 q 243 113 271 116 q 299 118 329 118 l 329 118 q 411 118 466 92 q 521 66 554 21 q 586 -24 600 -82 q 614 -141 614 -207 l 614 -207 q 614 -344 553 -415 q 492 -486 380 -486 l 380 -486 q 309 -486 254 -453 q 198 -420 167 -364 q 135 -308 135 -238 l 135 -238 l 135 -229 q 135 -174 150 -138 q 164 -102 189 -84 q 214 -67 246 -67 l 246 -67 q 270 -67 288 -78 q 306 -89 316 -110 q 326 -131 326 -160 l 326 -160 q 326 -205 302 -230 q 278 -255 238 -255 l 238 -255 q 203 -255 171 -238 q 139 -221 111 -191 l 111 -191 l 85 -254 q 114 -288 160 -311 q 205 -334 258 -334 l 258 -334 q 310 -334 348 -314 q 385 -294 406 -257 q 426 -220 426 -168 l 426 -168 q 426 -112 404 -71 q 382 -31 342 -9 q 302 12 246 12 l 246 12 q 191 12 144 -14 q 96 -40 67 -95 q 38 -150 38 -235 l 38 -235 q 38 -338 84 -412 q 129 -487 208 -527 q 287 -568 387 -568 z"},"൮":{"ha":985,"x_min":38,"x_max":916,"o":"m 350 -568 l 350 -568 q 429 -568 487 -545 q 544 -523 582 -483 q 619 -444 637 -392 q 655 -341 655 -284 l 655 -284 q 655 -228 641 -185 q 627 -143 604 -109 q 581 -75 553 -44 l 553 -44 l 544 -80 l 812 -80 l 812 -556 l 916 -556 l 916 -146 l 842 0 l 479 0 l 440 -62 q 469 -84 494 -113 q 518 -143 533 -182 q 548 -222 548 -273 l 548 -273 q 548 -336 525 -384 q 501 -432 456 -459 q 411 -486 348 -486 l 348 -486 q 285 -486 240 -458 q 195 -431 171 -383 q 146 -336 146 -275 l 146 -275 q 146 -225 160 -185 q 174 -145 200 -114 q 226 -83 262 -57 l 262 -57 l 197 10 q 154 -19 118 -59 q 82 -99 60 -154 q 38 -209 38 -278 l 38 -278 q 38 -338 58 -390 q 77 -443 116 -483 q 155 -523 214 -545 q 273 -568 350 -568 z m 577 201 l 577 201 q 550 201 520 199 q 490 197 462 191 l 462 191 l 474 109 q 493 113 518 116 q 543 118 569 118 l 569 118 q 642 118 689 103 q 735 87 762 62 q 788 36 799 4 q 810 -28 812 -61 l 812 -61 l 916 -188 l 916 -119 q 916 -58 908 -13 q 899 32 882 65 q 864 97 836 123 l 836 123 q 796 161 732 181 q 667 201 577 201 z"},"൯":{"ha":1153,"x_min":38,"x_max":1149,"o":"m 296 -568 l 296 -568 q 341 -568 375 -557 q 408 -546 435 -524 q 461 -502 484 -468 l 484 -468 l 520 -228 l 520 0 l 415 0 l 415 -294 q 415 -353 411 -384 q 407 -415 393 -436 l 393 -436 q 378 -461 354 -473 q 330 -486 296 -486 l 296 -486 q 253 -486 219 -462 q 184 -438 164 -394 q 144 -351 144 -293 l 144 -293 q 144 -238 159 -195 q 173 -152 199 -118 q 224 -85 257 -58 l 257 -58 l 186 9 q 142 -28 109 -71 q 76 -114 57 -168 q 38 -223 38 -293 l 38 -293 q 38 -374 70 -435 q 101 -497 159 -532 q 216 -568 296 -568 z m 707 -568 l 707 -568 q 785 -568 844 -547 q 902 -527 949 -486 l 949 -486 q 1004 -440 1036 -373 q 1068 -307 1068 -227 l 1068 -227 q 1068 -152 1042 -98 q 1016 -45 966 -16 q 916 12 843 12 l 843 12 q 774 12 727 -14 q 679 -40 655 -85 q 631 -130 631 -185 l 631 -185 q 631 -254 661 -303 q 690 -353 746 -394 q 802 -436 880 -480 l 880 -480 q 938 -512 974 -533 q 1010 -554 1027 -574 q 1044 -595 1044 -622 l 1044 -622 q 1044 -640 1038 -657 q 1031 -674 1021 -689 l 1021 -689 l 1117 -734 q 1133 -712 1141 -684 q 1149 -656 1149 -626 l 1149 -626 q 1149 -579 1125 -545 q 1100 -511 1053 -481 q 1006 -452 937 -416 l 937 -416 q 871 -379 827 -345 q 782 -311 759 -272 q 736 -234 736 -185 l 736 -185 q 736 -124 767 -96 q 797 -69 843 -69 l 843 -69 q 884 -69 910 -86 q 935 -104 948 -138 q 961 -173 961 -225 l 961 -225 q 961 -283 938 -341 q 915 -399 865 -438 l 865 -438 q 836 -461 798 -474 q 759 -487 709 -487 l 709 -487 q 660 -487 629 -477 q 597 -467 576 -447 l 576 -447 q 559 -431 546 -408 q 533 -386 527 -351 q 520 -316 520 -260 l 520 -260 l 520 -76 l 427 -76 l 427 -296 l 458 -455 q 483 -491 518 -516 q 553 -542 600 -555 q 647 -568 707 -568 z"},"൰":{"ha":1100,"x_min":-36,"x_max":1061,"o":"m 231 -556 l 335 -556 l 335 -141 l 332 -114 q 332 -29 316 28 q 300 84 267 123 l 267 123 q 234 160 182 181 q 130 201 57 201 l 57 201 q 35 201 11 199 q -13 197 -36 191 l -36 191 l -27 109 q -11 113 7 116 q 25 118 46 118 l 46 118 q 99 118 133 104 q 167 89 188 66 l 188 66 q 210 41 221 3 q 231 -35 231 -100 l 231 -100 l 231 -556 z m 807 12 l 807 12 q 743 12 702 -11 q 660 -35 628 -77 l 628 -77 l 636 -79 q 604 -33 560 -10 q 515 12 458 12 l 458 12 q 414 12 382 0 q 350 -13 326 -36 q 302 -59 284 -90 l 284 -90 l 260 -258 l 259 -536 l 335 -536 l 335 -242 q 335 -188 342 -156 q 349 -124 368 -103 l 368 -103 q 382 -88 404 -79 q 426 -70 458 -70 l 458 -70 q 488 -70 510 -80 q 532 -90 547 -106 l 547 -106 q 566 -127 574 -158 q 582 -190 582 -251 l 582 -251 l 582 -556 l 686 -556 l 686 -261 q 686 -205 691 -174 q 695 -143 708 -121 l 708 -121 q 724 -95 749 -82 q 774 -70 805 -70 l 805 -70 q 849 -70 883 -94 q 917 -119 936 -163 q 955 -208 955 -266 l 955 -266 q 955 -321 941 -363 q 927 -405 902 -439 q 876 -473 842 -499 l 842 -499 l 914 -566 q 958 -529 991 -486 q 1024 -443 1043 -388 q 1061 -334 1061 -263 l 1061 -263 q 1061 -186 1032 -123 q 1002 -61 945 -24 q 888 12 807 12 z"},"൱":{"ha":934,"x_min":38,"x_max":892,"o":"m 296 -568 l 296 -568 q 342 -568 375 -556 q 407 -544 431 -523 q 455 -503 474 -475 l 474 -475 l 519 -228 l 519 0 l 415 0 l 415 -294 q 415 -353 411 -384 q 407 -415 393 -436 l 393 -436 q 378 -461 354 -473 q 330 -486 296 -486 l 296 -486 q 253 -486 219 -462 q 184 -438 164 -394 q 144 -351 144 -293 l 144 -293 q 144 -238 159 -195 q 173 -152 199 -118 q 224 -85 257 -58 l 257 -58 l 186 9 q 142 -28 109 -71 q 76 -114 57 -168 q 38 -223 38 -293 l 38 -293 q 38 -374 70 -435 q 101 -497 159 -532 q 216 -568 296 -568 z m 642 -568 l 642 -568 q 721 -568 777 -531 q 832 -494 862 -418 q 892 -342 892 -228 l 892 -228 q 892 -91 854 5 q 816 100 735 151 q 653 201 521 201 l 521 201 q 491 201 460 199 q 428 197 398 191 l 398 191 l 408 109 q 430 113 457 116 q 483 118 514 118 l 514 118 q 596 118 649 91 q 701 64 731 17 q 761 -30 773 -92 q 785 -155 785 -227 l 785 -227 q 785 -317 766 -374 q 747 -432 715 -459 q 682 -486 638 -486 l 638 -486 q 604 -486 580 -474 q 556 -462 541 -436 l 541 -436 q 528 -415 524 -384 q 519 -354 519 -295 l 519 -295 l 519 -10 l 426 -10 l 426 -316 l 463 -479 q 499 -528 541 -548 q 583 -568 642 -568 z"},"൲":{"ha":1453,"x_min":38,"x_max":1433,"o":"m 1257 -556 l 1257 -556 q 1319 -556 1358 -535 q 1397 -514 1415 -481 q 1433 -448 1433 -409 l 1433 -409 q 1433 -366 1418 -337 q 1403 -309 1376 -290 l 1376 -290 q 1357 -277 1334 -268 q 1311 -260 1281 -256 q 1251 -253 1211 -253 l 1211 -253 l 1012 -253 l 1012 -334 l 1208 -334 q 1243 -334 1264 -337 q 1284 -340 1298 -347 l 1298 -347 q 1314 -355 1323 -369 q 1332 -383 1332 -407 l 1332 -407 q 1332 -438 1314 -457 q 1295 -477 1258 -477 l 1258 -477 q 1217 -477 1196 -454 q 1174 -432 1174 -391 l 1174 -391 q 1174 -359 1185 -334 q 1196 -310 1215 -286 l 1215 -286 l 1117 -281 q 1102 -305 1090 -336 q 1078 -368 1078 -405 l 1078 -405 q 1078 -453 1102 -487 q 1125 -521 1166 -538 q 1207 -556 1257 -556 z m 296 -568 l 296 -568 q 341 -568 373 -557 q 405 -546 432 -524 q 458 -503 483 -469 l 483 -469 l 519 -228 l 519 0 l 415 0 l 415 -294 q 415 -353 411 -384 q 407 -415 393 -436 l 393 -436 q 378 -461 354 -473 q 330 -486 296 -486 l 296 -486 q 253 -486 219 -462 q 184 -438 164 -394 q 144 -351 144 -293 l 144 -293 q 144 -238 159 -195 q 173 -152 199 -118 q 224 -85 257 -58 l 257 -58 l 186 9 q 142 -28 109 -71 q 76 -114 57 -168 q 38 -223 38 -293 l 38 -293 q 38 -374 70 -435 q 101 -497 159 -532 q 216 -568 296 -568 z m 693 -568 l 693 -568 q 765 -568 823 -545 q 881 -522 923 -478 q 965 -434 987 -374 q 1009 -314 1009 -241 l 1009 -241 q 1009 -152 981 -96 q 952 -40 903 -14 q 853 12 787 12 l 787 12 q 719 12 677 -12 q 634 -37 614 -75 q 594 -113 594 -155 l 594 -155 q 594 -203 614 -237 q 634 -272 668 -293 l 668 -293 q 691 -308 717 -317 q 743 -326 783 -330 q 822 -334 881 -334 l 881 -334 l 1149 -334 l 1149 -253 l 888 -253 q 824 -253 791 -248 q 758 -243 733 -227 l 733 -227 q 716 -217 707 -199 q 697 -182 697 -155 l 697 -155 q 697 -117 720 -92 q 743 -68 788 -68 l 788 -68 q 827 -68 854 -86 q 880 -104 894 -143 q 908 -182 908 -245 l 908 -245 q 908 -259 907 -275 q 905 -292 902 -307 l 902 -307 l 900 -324 q 890 -370 862 -407 q 834 -444 791 -465 q 748 -486 691 -486 l 691 -486 q 658 -486 631 -478 q 603 -471 583 -456 l 583 -456 q 561 -442 548 -420 q 534 -398 527 -364 q 519 -330 519 -277 l 519 -277 l 519 -206 l 454 -211 l 454 -458 q 480 -491 513 -516 q 546 -541 591 -554 q 635 -568 693 -568 z"},"൳":{"ha":792,"x_min":38,"x_max":770,"o":"m 244 12 l 244 12 q 187 12 140 -14 q 93 -40 66 -91 q 38 -143 38 -218 l 38 -218 q 38 -311 71 -371 q 103 -431 162 -465 l 162 -465 q 200 -488 242 -500 q 284 -512 338 -517 q 391 -522 459 -522 l 459 -522 l 770 -522 l 770 -437 l 491 -437 q 411 -437 359 -433 q 306 -430 272 -419 q 237 -409 209 -390 l 209 -390 q 182 -372 164 -343 q 146 -315 138 -276 l 138 -276 l 137 -259 q 136 -248 136 -238 q 135 -228 135 -216 l 135 -216 q 135 -166 149 -132 q 162 -99 187 -83 q 211 -67 243 -67 l 243 -67 q 269 -67 288 -77 q 306 -88 316 -109 q 326 -130 326 -160 l 326 -160 q 326 -205 302 -230 q 278 -255 238 -255 l 238 -255 q 203 -255 171 -238 q 139 -221 111 -191 l 111 -191 l 110 -278 q 138 -301 177 -317 q 215 -334 258 -334 l 258 -334 q 310 -334 348 -314 q 385 -294 406 -257 q 426 -220 426 -168 l 426 -168 q 426 -112 405 -71 q 383 -31 342 -9 q 301 12 244 12 z"},"൴":{"ha":951,"x_min":38,"x_max":913,"o":"m 497 -791 l 601 -791 l 601 -242 q 601 -199 604 -173 q 606 -147 612 -131 q 617 -116 624 -105 l 624 -105 q 638 -85 658 -76 q 677 -68 702 -68 l 702 -68 q 739 -68 762 -84 q 784 -101 795 -133 q 806 -165 806 -209 l 806 -209 q 806 -263 790 -308 q 774 -354 743 -389 q 712 -425 667 -448 q 622 -472 564 -482 l 564 -482 l 528 -483 q 513 -485 496 -486 q 479 -487 461 -487 l 461 -487 q 388 -487 328 -469 q 268 -451 225 -418 q 182 -385 159 -340 q 135 -295 135 -241 l 135 -241 l 135 -229 q 135 -174 150 -138 q 164 -102 189 -84 q 213 -67 246 -67 l 246 -67 q 270 -67 288 -77 q 306 -88 316 -109 q 326 -130 326 -161 l 326 -161 q 326 -206 302 -230 q 278 -255 238 -255 l 238 -255 q 203 -255 171 -238 q 139 -221 111 -191 l 111 -191 l 110 -278 q 138 -301 177 -317 q 215 -334 258 -334 l 258 -334 q 310 -334 348 -314 q 385 -294 406 -257 q 426 -220 426 -168 l 426 -168 q 426 -112 404 -71 q 382 -31 342 -9 q 302 12 246 12 l 246 12 q 191 12 144 -14 q 96 -40 67 -94 q 38 -148 38 -232 l 38 -232 q 38 -308 67 -370 q 96 -432 152 -476 q 207 -521 285 -544 q 363 -568 460 -568 l 460 -568 q 480 -568 499 -567 q 517 -567 536 -565 l 536 -565 l 577 -563 q 650 -552 712 -524 q 773 -497 818 -453 q 863 -409 888 -349 q 913 -289 913 -214 l 913 -214 q 913 -145 889 -94 q 865 -44 818 -16 q 771 12 701 12 l 701 12 q 658 12 621 1 q 584 -11 559 -35 l 559 -35 q 540 -52 526 -76 q 512 -100 505 -139 q 497 -178 497 -241 l 497 -241 l 497 -791 z"},"൵":{"ha":1270,"x_min":41,"x_max":1265,"o":"m 370 -568 l 370 -568 q 456 -568 510 -541 q 563 -515 605 -464 l 605 -464 l 614 -393 l 636 -228 l 636 0 l 532 0 l 532 -295 q 532 -359 521 -394 q 510 -429 488 -449 l 488 -449 q 467 -468 440 -477 q 413 -486 369 -486 l 369 -486 q 299 -486 247 -455 q 195 -424 166 -368 q 137 -313 137 -239 l 137 -239 l 137 -231 q 137 -175 152 -138 q 166 -102 191 -84 q 215 -67 248 -67 l 248 -67 q 272 -67 290 -77 q 307 -88 317 -109 q 327 -130 327 -160 l 327 -160 q 327 -206 304 -230 q 280 -255 239 -255 l 239 -255 q 201 -255 167 -234 q 132 -214 101 -181 l 101 -181 l 87 -254 q 116 -288 162 -311 q 208 -334 261 -334 l 261 -334 q 311 -334 349 -314 q 386 -294 407 -257 q 427 -220 427 -168 l 427 -168 q 427 -112 406 -71 q 384 -31 344 -9 q 304 12 248 12 l 248 12 q 194 12 146 -14 q 98 -40 70 -96 q 41 -152 41 -241 l 41 -241 q 41 -348 85 -420 q 129 -493 204 -530 q 278 -568 370 -568 z m 823 -568 l 823 -568 q 901 -568 960 -547 q 1019 -527 1065 -486 l 1065 -486 q 1120 -440 1152 -373 q 1184 -307 1184 -227 l 1184 -227 q 1184 -152 1158 -98 q 1132 -45 1082 -16 q 1032 12 959 12 l 959 12 q 890 12 843 -14 q 795 -40 771 -85 q 747 -130 747 -185 l 747 -185 q 747 -254 777 -303 q 806 -353 862 -394 q 918 -436 996 -480 l 996 -480 q 1054 -512 1091 -533 q 1127 -554 1144 -574 q 1160 -595 1160 -622 l 1160 -622 q 1160 -640 1154 -657 q 1148 -674 1137 -689 l 1137 -689 l 1233 -734 q 1249 -712 1257 -684 q 1265 -656 1265 -626 l 1265 -626 q 1265 -579 1241 -545 q 1216 -511 1169 -481 q 1122 -452 1053 -416 l 1053 -416 q 987 -379 943 -345 q 898 -311 875 -272 q 852 -234 852 -185 l 852 -185 q 852 -124 883 -96 q 913 -69 959 -69 l 959 -69 q 1000 -69 1026 -86 q 1051 -104 1064 -138 q 1077 -173 1077 -225 l 1077 -225 q 1077 -283 1054 -341 q 1031 -399 981 -438 l 981 -438 q 952 -461 914 -474 q 875 -487 825 -487 l 825 -487 q 776 -487 745 -477 q 714 -467 692 -447 l 692 -447 q 675 -431 662 -408 q 649 -386 643 -351 q 636 -316 636 -260 l 636 -260 l 636 -76 l 543 -76 l 543 -296 l 575 -455 q 599 -491 634 -516 q 669 -542 716 -555 q 763 -568 823 -568 z"},"൶":{"ha":1415,"x_min":31,"x_max":1357,"o":"m 240 -351 l 240 -351 q 311 -351 357 -324 q 403 -298 426 -257 q 448 -217 448 -172 l 448 -172 q 448 -135 436 -105 q 424 -76 408 -61 l 408 -61 l 387 -80 l 756 -80 l 756 0 l 341 0 l 305 -54 q 323 -73 335 -97 q 347 -122 347 -159 l 347 -159 q 347 -208 320 -239 q 293 -271 240 -271 l 240 -271 q 206 -271 182 -256 q 158 -241 146 -217 q 133 -193 133 -163 l 133 -163 q 133 -127 148 -99 q 162 -72 188 -49 l 188 -49 l 122 8 q 82 -25 57 -68 q 31 -111 31 -167 l 31 -167 q 31 -222 57 -263 q 83 -304 130 -327 q 177 -351 240 -351 z m 1032 -568 l 1032 -568 q 1115 -568 1175 -549 q 1234 -530 1273 -495 l 1273 -495 q 1302 -470 1321 -437 q 1339 -405 1348 -362 q 1357 -320 1357 -263 l 1357 -263 l 1357 0 l 725 0 l 725 -265 q 725 -319 734 -361 q 742 -403 760 -436 q 778 -469 806 -494 l 806 -494 q 845 -530 900 -549 q 954 -568 1032 -568 z m 977 -487 l 977 -487 q 939 -487 910 -467 q 880 -448 861 -415 l 861 -415 q 846 -389 838 -350 q 829 -312 829 -256 l 829 -256 l 829 -68 l 821 -69 q 887 -119 939 -174 q 991 -230 1021 -287 q 1051 -344 1051 -399 l 1051 -399 q 1051 -425 1044 -444 q 1036 -464 1020 -475 q 1004 -487 977 -487 z m 1154 -386 l 1154 -386 q 1154 -330 1130 -276 q 1105 -223 1060 -169 q 1014 -115 952 -59 l 952 -59 l 943 -75 q 970 -78 998 -79 q 1026 -80 1049 -80 l 1049 -80 l 1253 -80 l 1253 -250 q 1253 -322 1239 -368 q 1225 -415 1194 -444 q 1163 -473 1111 -488 l 1111 -488 l 1114 -495 q 1131 -474 1143 -449 q 1154 -424 1154 -386 z"},"൷":{"ha":1771,"x_min":31,"x_max":1751,"o":"m 240 -351 l 240 -351 q 311 -351 357 -324 q 403 -298 426 -257 q 448 -217 448 -172 l 448 -172 q 448 -135 436 -105 q 424 -76 408 -61 l 408 -61 l 387 -80 l 694 -80 l 737 0 l 341 0 l 305 -54 q 323 -73 335 -97 q 347 -122 347 -159 l 347 -159 q 347 -208 320 -239 q 293 -271 240 -271 l 240 -271 q 206 -271 182 -256 q 158 -241 146 -217 q 133 -193 133 -163 l 133 -163 q 133 -127 148 -99 q 162 -72 188 -49 l 188 -49 l 122 8 q 82 -25 57 -68 q 31 -111 31 -167 l 31 -167 q 31 -222 57 -263 q 83 -304 130 -327 q 177 -351 240 -351 z m 828 -568 l 828 -568 q 873 -568 906 -557 q 938 -546 964 -524 q 990 -503 1015 -469 l 1015 -469 l 1052 -276 l 1052 -230 l 948 -230 l 948 -294 q 948 -352 944 -383 q 939 -415 925 -436 l 925 -436 q 910 -461 887 -473 q 863 -486 828 -486 l 828 -486 q 785 -486 751 -462 q 717 -438 697 -394 q 677 -351 677 -293 l 677 -293 q 677 -217 705 -161 q 732 -105 784 -55 l 784 -55 l 745 0 l 686 0 l 651 -67 q 627 -97 609 -130 q 591 -164 581 -204 q 571 -245 571 -293 l 571 -293 q 571 -374 602 -435 q 633 -497 691 -532 q 749 -568 828 -568 z m 1231 -568 l 1231 -568 q 1304 -568 1363 -545 q 1421 -522 1463 -478 q 1505 -434 1528 -374 q 1550 -314 1550 -241 l 1550 -241 q 1550 -152 1522 -96 q 1493 -40 1444 -14 q 1394 12 1328 12 l 1328 12 q 1260 12 1218 -12 q 1175 -36 1155 -74 q 1135 -112 1135 -155 l 1135 -155 q 1135 -203 1155 -237 q 1174 -272 1208 -293 l 1208 -293 q 1231 -308 1258 -317 q 1284 -326 1323 -330 q 1362 -334 1422 -334 l 1422 -334 l 1481 -334 l 1481 -253 l 1429 -253 q 1365 -253 1332 -248 q 1298 -243 1273 -227 l 1273 -227 q 1257 -217 1248 -199 q 1238 -182 1238 -155 l 1238 -155 q 1238 -117 1261 -92 q 1284 -68 1329 -68 l 1329 -68 q 1367 -68 1394 -86 q 1420 -104 1435 -143 q 1449 -182 1449 -245 l 1449 -245 q 1449 -259 1447 -275 q 1445 -292 1442 -307 l 1442 -307 l 1440 -324 q 1430 -370 1402 -407 q 1374 -444 1330 -465 q 1286 -486 1227 -486 l 1227 -486 q 1191 -486 1164 -479 q 1136 -472 1115 -456 l 1115 -456 q 1094 -442 1080 -420 q 1066 -398 1059 -364 q 1052 -330 1052 -277 l 1052 -277 l 1052 -256 l 988 -256 l 987 -459 q 1014 -492 1048 -516 q 1081 -541 1127 -554 q 1172 -568 1231 -568 z m 1640 -448 l 1741 -465 q 1746 -453 1749 -436 q 1751 -420 1751 -402 l 1751 -402 q 1751 -364 1737 -335 q 1722 -307 1695 -289 l 1695 -289 q 1666 -270 1629 -261 q 1591 -253 1531 -253 l 1531 -253 l 1497 -253 l 1497 -334 l 1526 -334 q 1558 -334 1580 -337 q 1601 -340 1615 -348 l 1615 -348 q 1631 -355 1639 -370 q 1647 -386 1647 -409 l 1647 -409 q 1647 -417 1645 -429 q 1643 -441 1640 -448 l 1640 -448 z"},"൸":{"ha":2238,"x_min":9,"x_max":2179,"o":"m 1437 -568 l 1437 -568 q 1477 -568 1507 -558 q 1536 -549 1558 -532 q 1580 -515 1597 -493 q 1614 -472 1627 -449 l 1627 -449 l 1595 -449 q 1622 -490 1660 -516 q 1697 -543 1746 -555 q 1795 -568 1854 -568 l 1854 -568 q 1938 -568 1997 -549 q 2056 -530 2096 -495 l 2096 -495 q 2125 -470 2143 -437 q 2161 -405 2170 -362 q 2179 -320 2179 -263 l 2179 -263 l 2179 0 l 1654 0 l 1654 -77 q 1718 -127 1767 -181 q 1816 -235 1845 -290 q 1873 -346 1873 -399 l 1873 -399 q 1873 -425 1866 -444 q 1858 -464 1842 -475 q 1825 -487 1797 -487 l 1797 -487 q 1758 -487 1730 -468 q 1702 -450 1686 -422 l 1686 -422 q 1668 -391 1662 -354 q 1656 -318 1656 -263 l 1656 -263 l 1656 -230 l 1551 -230 l 1551 -293 q 1551 -360 1545 -395 q 1538 -431 1522 -451 l 1522 -451 q 1508 -469 1488 -477 q 1468 -486 1443 -486 l 1443 -486 q 1418 -486 1398 -478 q 1377 -471 1364 -452 l 1364 -452 q 1348 -431 1342 -394 q 1335 -358 1335 -286 l 1335 -286 l 1335 -259 q 1335 -197 1329 -156 q 1322 -116 1311 -91 q 1299 -67 1283 -49 l 1283 -49 q 1256 -17 1216 -2 q 1176 12 1122 12 l 1122 12 q 1068 12 1028 -2 q 988 -17 960 -48 l 960 -48 q 945 -66 933 -91 q 921 -116 915 -156 q 908 -196 908 -259 l 908 -259 l 908 -294 q 908 -361 902 -396 q 895 -431 879 -451 l 879 -451 q 865 -469 845 -477 q 825 -486 800 -486 l 800 -486 q 775 -486 755 -478 q 734 -471 720 -452 l 720 -452 q 704 -431 698 -394 q 692 -358 692 -286 l 692 -286 l 692 -245 q 692 -171 679 -127 q 666 -84 638 -53 l 638 -53 q 609 -20 569 -4 q 528 12 468 12 l 468 12 q 401 12 358 -16 q 315 -44 286 -93 l 286 -93 l 305 -79 q 285 -52 261 -31 q 236 -10 203 1 q 169 12 124 12 l 124 12 q 92 12 65 5 q 38 -2 9 -16 l 9 -16 l 41 -93 q 59 -83 80 -76 q 100 -70 126 -70 l 126 -70 q 160 -70 185 -83 q 209 -96 225 -122 l 225 -122 q 238 -144 242 -173 q 245 -203 245 -261 l 245 -261 l 245 -555 l 350 -556 l 350 -241 q 350 -188 358 -155 q 365 -123 383 -103 l 383 -103 q 396 -88 418 -79 q 439 -70 466 -70 l 466 -70 q 500 -70 523 -83 q 546 -96 559 -115 l 559 -115 q 575 -138 581 -175 q 586 -213 586 -286 l 586 -286 l 586 -298 q 586 -361 593 -400 q 599 -440 611 -465 q 623 -490 638 -508 l 638 -508 q 665 -540 705 -554 q 744 -568 799 -568 l 799 -568 q 852 -568 893 -554 q 933 -540 961 -508 l 961 -508 q 976 -491 988 -466 q 1000 -441 1007 -401 q 1013 -361 1013 -298 l 1013 -298 l 1013 -264 q 1013 -197 1020 -161 q 1026 -126 1042 -105 l 1042 -105 q 1056 -88 1077 -79 q 1097 -70 1120 -70 l 1120 -70 q 1146 -70 1167 -78 q 1187 -86 1200 -104 l 1200 -104 q 1216 -125 1223 -160 q 1229 -196 1229 -262 l 1229 -262 l 1229 -298 q 1229 -361 1236 -400 q 1242 -440 1254 -465 q 1266 -490 1281 -508 l 1281 -508 q 1308 -540 1348 -554 q 1387 -568 1437 -568 z m 1977 -386 l 1977 -386 q 1977 -330 1952 -276 q 1927 -223 1882 -169 q 1836 -115 1774 -59 l 1774 -59 l 1765 -75 q 1793 -78 1821 -79 q 1848 -80 1871 -80 l 1871 -80 l 2075 -80 l 2075 -250 q 2075 -322 2061 -368 q 2047 -415 2016 -444 q 1985 -473 1934 -488 l 1934 -488 l 1936 -495 q 1953 -474 1965 -449 q 1977 -424 1977 -386 z"},"൹":{"ha":1171,"x_min":38,"x_max":1149,"o":"m 296 -568 l 296 -568 q 341 -568 373 -557 q 405 -546 432 -524 q 458 -503 483 -469 l 483 -469 l 519 -228 l 519 0 l 415 0 l 415 -294 q 415 -353 411 -384 q 407 -415 393 -436 l 393 -436 q 378 -461 354 -473 q 330 -486 296 -486 l 296 -486 q 253 -486 219 -462 q 184 -438 164 -394 q 144 -351 144 -293 l 144 -293 q 144 -238 159 -195 q 173 -152 199 -118 q 224 -85 257 -58 l 257 -58 l 186 9 q 142 -28 109 -71 q 76 -114 57 -168 q 38 -223 38 -293 l 38 -293 q 38 -374 70 -435 q 101 -497 159 -532 q 216 -568 296 -568 z m 693 -568 l 693 -568 q 765 -568 823 -545 q 881 -522 923 -478 q 965 -434 987 -374 q 1009 -314 1009 -241 l 1009 -241 q 1009 -152 981 -96 q 952 -40 903 -14 q 853 12 787 12 l 787 12 q 719 12 677 -12 q 634 -37 614 -75 q 594 -113 594 -155 l 594 -155 q 594 -203 614 -237 q 634 -272 668 -293 l 668 -293 q 691 -308 717 -317 q 743 -326 783 -330 q 822 -334 881 -334 l 881 -334 l 1149 -334 l 1149 -253 l 888 -253 q 824 -253 791 -248 q 758 -243 733 -227 l 733 -227 q 716 -217 707 -199 q 697 -182 697 -155 l 697 -155 q 697 -117 720 -92 q 743 -68 788 -68 l 788 -68 q 827 -68 854 -86 q 880 -104 894 -143 q 908 -182 908 -245 l 908 -245 q 908 -259 907 -275 q 905 -292 902 -307 l 902 -307 l 900 -324 q 890 -370 862 -407 q 834 -444 791 -465 q 748 -486 691 -486 l 691 -486 q 658 -486 631 -478 q 603 -471 583 -456 l 583 -456 q 561 -442 548 -420 q 534 -398 527 -364 q 519 -330 519 -277 l 519 -277 l 519 -206 l 454 -211 l 454 -458 q 480 -491 513 -516 q 546 -541 591 -554 q 635 -568 693 -568 z"},"ൺ":{"ha":1566,"x_min":41,"x_max":1527,"o":"m 370 -568 l 370 -568 q 456 -568 509 -541 q 562 -515 600 -470 l 600 -470 l 579 -478 q 612 -524 659 -546 q 705 -568 761 -568 l 761 -568 q 830 -568 873 -543 q 916 -519 949 -471 l 949 -471 l 941 -442 l 988 -292 l 988 0 l 884 0 l 884 -315 q 884 -368 877 -400 q 870 -433 851 -453 l 851 -453 q 836 -469 814 -477 q 792 -486 760 -486 l 760 -486 q 731 -486 709 -476 q 687 -467 672 -450 l 672 -450 q 654 -430 646 -398 q 637 -366 637 -305 l 637 -305 l 637 0 l 533 0 l 533 -290 q 533 -358 522 -393 q 510 -429 488 -449 l 488 -449 q 467 -468 439 -477 q 410 -486 369 -486 l 369 -486 q 299 -486 247 -455 q 195 -424 166 -368 q 137 -313 137 -239 l 137 -239 l 137 -231 q 137 -175 152 -138 q 166 -102 191 -84 q 215 -67 248 -67 l 248 -67 q 272 -67 290 -77 q 307 -88 317 -109 q 327 -130 327 -160 l 327 -160 q 327 -206 304 -230 q 280 -255 239 -255 l 239 -255 q 201 -255 167 -234 q 132 -214 101 -181 l 101 -181 l 87 -254 q 116 -288 162 -311 q 208 -334 261 -334 l 261 -334 q 311 -334 349 -314 q 386 -294 407 -257 q 427 -220 427 -168 l 427 -168 q 427 -112 406 -71 q 384 -31 344 -9 q 304 12 248 12 l 248 12 q 194 12 146 -14 q 98 -40 70 -96 q 41 -152 41 -241 l 41 -241 q 41 -348 85 -420 q 129 -493 204 -530 q 278 -568 370 -568 z m 1315 12 l 1315 12 q 1248 12 1202 -15 q 1155 -42 1131 -94 q 1107 -146 1107 -220 l 1107 -220 q 1107 -273 1124 -320 q 1141 -368 1174 -412 q 1206 -457 1254 -499 l 1254 -499 l 1279 -528 q 1312 -557 1333 -585 q 1354 -613 1354 -647 l 1354 -647 q 1354 -674 1337 -693 q 1319 -713 1279 -713 l 1279 -713 q 1258 -713 1239 -710 q 1220 -707 1207 -702 l 1207 -702 l 1186 -779 q 1205 -785 1237 -789 q 1268 -794 1303 -794 l 1303 -794 q 1365 -794 1399 -773 q 1432 -752 1445 -722 q 1458 -692 1458 -667 l 1458 -667 q 1458 -615 1431 -572 q 1403 -529 1353 -485 l 1353 -485 l 1334 -461 q 1292 -426 1265 -386 q 1238 -346 1225 -303 q 1212 -260 1212 -217 l 1212 -217 q 1212 -162 1226 -129 q 1239 -97 1263 -82 q 1287 -68 1316 -68 l 1316 -68 q 1367 -68 1394 -105 q 1420 -142 1420 -218 l 1420 -218 q 1420 -266 1406 -314 q 1391 -362 1362 -401 q 1332 -440 1285 -463 l 1285 -463 q 1263 -475 1238 -481 q 1213 -487 1179 -487 l 1179 -487 q 1130 -487 1098 -477 q 1065 -467 1043 -448 l 1043 -448 q 1026 -431 1014 -408 q 1001 -386 995 -351 q 988 -316 988 -260 l 988 -260 l 988 -100 l 893 -100 l 893 -290 l 926 -456 q 951 -492 986 -517 q 1021 -542 1068 -555 q 1115 -568 1175 -568 l 1175 -568 q 1220 -568 1259 -560 q 1297 -552 1332 -535 l 1332 -535 q 1337 -534 1342 -531 q 1346 -528 1350 -526 l 1350 -526 q 1410 -494 1450 -445 q 1489 -396 1508 -339 q 1527 -282 1527 -225 l 1527 -225 q 1527 -113 1473 -50 q 1419 12 1315 12 z"},"ൻ":{"ha":1097,"x_min":38,"x_max":1059,"o":"m 296 -568 l 296 -568 q 341 -568 375 -557 q 408 -546 435 -524 q 461 -502 484 -468 l 484 -468 l 519 -228 l 519 0 l 415 0 l 415 -294 q 415 -353 411 -384 q 407 -415 393 -436 l 393 -436 q 378 -461 354 -473 q 330 -486 296 -486 l 296 -486 q 253 -486 219 -462 q 184 -438 164 -394 q 144 -351 144 -293 l 144 -293 q 144 -238 159 -195 q 173 -152 199 -118 q 224 -85 257 -58 l 257 -58 l 186 9 q 142 -28 109 -71 q 76 -114 57 -168 q 38 -223 38 -293 l 38 -293 q 38 -374 70 -435 q 101 -497 159 -532 q 216 -568 296 -568 z m 847 12 l 847 12 q 780 12 733 -15 q 686 -42 662 -94 q 638 -146 638 -220 l 638 -220 q 638 -273 655 -320 q 672 -368 705 -412 q 738 -457 786 -499 l 786 -499 l 811 -528 q 843 -557 864 -585 q 885 -613 885 -647 l 885 -647 q 885 -674 868 -693 q 851 -713 810 -713 l 810 -713 q 789 -713 770 -710 q 751 -707 739 -702 l 739 -702 l 718 -779 q 737 -785 769 -789 q 800 -794 834 -794 l 834 -794 q 896 -794 930 -773 q 964 -752 977 -722 q 990 -692 990 -667 l 990 -667 q 990 -615 963 -572 q 935 -529 885 -485 l 885 -485 l 866 -461 q 823 -426 796 -386 q 769 -346 757 -303 q 744 -260 744 -217 l 744 -217 q 744 -162 758 -129 q 771 -97 795 -82 q 818 -68 847 -68 l 847 -68 q 899 -68 926 -105 q 952 -142 952 -218 l 952 -218 q 952 -266 937 -314 q 922 -362 893 -401 q 863 -440 817 -463 l 817 -463 q 794 -475 770 -481 q 745 -487 710 -487 l 710 -487 q 661 -487 629 -477 q 597 -467 575 -448 l 575 -448 q 558 -431 545 -408 q 532 -386 526 -351 q 519 -316 519 -260 l 519 -260 l 519 -100 l 425 -100 l 425 -290 l 458 -456 q 483 -492 518 -517 q 553 -542 600 -555 q 647 -568 707 -568 l 707 -568 q 751 -568 790 -560 q 829 -552 864 -535 l 864 -535 q 868 -534 873 -531 q 878 -528 882 -526 l 882 -526 q 942 -494 982 -445 q 1021 -396 1040 -339 q 1059 -282 1059 -225 l 1059 -225 q 1059 -113 1005 -50 q 951 12 847 12 z"},"ർ":{"ha":761,"x_min":38,"x_max":722,"o":"m 510 12 l 510 12 q 443 12 397 -15 q 350 -42 326 -94 q 302 -146 302 -220 l 302 -220 q 302 -273 319 -320 q 335 -368 368 -412 q 401 -457 449 -499 l 449 -499 l 474 -528 q 507 -557 528 -585 q 549 -613 549 -647 l 549 -647 q 549 -674 532 -693 q 515 -713 474 -713 l 474 -713 q 453 -713 434 -710 q 415 -707 402 -702 l 402 -702 l 381 -779 q 400 -785 432 -789 q 464 -794 498 -794 l 498 -794 q 560 -794 594 -773 q 627 -752 641 -722 q 654 -692 654 -667 l 654 -667 q 654 -615 626 -572 q 598 -529 548 -485 l 548 -485 l 529 -461 q 487 -426 460 -386 q 433 -346 420 -303 q 407 -260 407 -217 l 407 -217 q 407 -162 421 -129 q 435 -97 459 -82 q 482 -68 511 -68 l 511 -68 q 563 -68 589 -105 q 615 -142 615 -218 l 615 -218 q 615 -254 607 -290 q 599 -327 583 -359 q 566 -392 541 -419 q 515 -446 480 -463 l 480 -463 q 457 -475 430 -481 q 403 -488 366 -488 l 366 -488 q 295 -488 246 -460 q 197 -433 171 -384 q 145 -336 145 -275 l 145 -275 q 145 -225 159 -185 q 173 -145 199 -114 q 225 -83 262 -57 l 262 -57 l 197 10 q 154 -19 118 -59 q 82 -99 60 -153 q 38 -208 38 -278 l 38 -278 q 38 -339 59 -391 q 79 -444 120 -483 q 160 -523 222 -545 q 283 -568 364 -568 l 364 -568 q 411 -568 452 -560 q 492 -552 527 -535 l 527 -535 q 532 -534 537 -531 q 541 -529 545 -526 l 545 -526 q 606 -494 645 -445 q 684 -396 703 -339 q 722 -282 722 -224 l 722 -224 q 722 -113 668 -50 q 614 12 510 12 z"},"ൽ":{"ha":1241,"x_min":38,"x_max":1202,"o":"m 755 -568 l 755 -568 q 807 -568 850 -563 q 893 -558 930 -548 q 967 -538 999 -521 l 999 -521 l 1026 -510 q 1116 -463 1159 -387 q 1202 -312 1202 -222 l 1202 -222 q 1202 -113 1148 -50 q 1094 12 990 12 l 990 12 q 923 12 877 -15 q 830 -42 806 -94 q 782 -146 782 -220 l 782 -220 q 782 -273 799 -320 q 815 -368 848 -412 q 881 -457 929 -499 l 929 -499 l 952 -527 q 985 -556 1007 -584 q 1029 -613 1029 -647 l 1029 -647 q 1029 -674 1012 -693 q 994 -713 954 -713 l 954 -713 q 933 -713 914 -710 q 895 -707 882 -702 l 882 -702 l 861 -779 q 880 -785 912 -789 q 943 -794 979 -794 l 979 -794 q 1040 -794 1074 -773 q 1107 -752 1121 -722 q 1134 -692 1134 -667 l 1134 -667 q 1134 -615 1106 -572 q 1078 -529 1029 -485 l 1029 -485 l 1009 -461 q 967 -426 940 -386 q 913 -346 900 -303 q 887 -260 887 -217 l 887 -217 q 887 -162 901 -129 q 915 -97 939 -82 q 962 -68 991 -68 l 991 -68 q 1043 -68 1069 -105 q 1095 -142 1095 -216 l 1095 -216 q 1095 -268 1079 -313 q 1063 -359 1032 -394 q 1000 -430 952 -452 l 952 -452 l 928 -461 q 891 -474 848 -480 q 805 -487 755 -487 l 755 -487 q 710 -487 666 -480 q 621 -474 580 -458 l 580 -458 l 555 -449 q 494 -420 455 -363 q 415 -307 415 -217 l 415 -217 q 415 -160 431 -127 q 446 -95 471 -81 q 496 -68 524 -68 l 524 -68 q 553 -68 578 -81 q 603 -94 618 -128 q 632 -162 632 -223 l 632 -223 q 632 -278 614 -326 q 596 -374 563 -411 q 530 -448 486 -468 l 486 -468 l 464 -477 q 442 -484 421 -487 q 399 -490 373 -490 l 373 -490 q 298 -490 248 -462 q 197 -434 171 -385 q 145 -337 145 -275 l 145 -275 q 145 -225 159 -185 q 173 -145 199 -114 q 225 -83 262 -57 l 262 -57 l 197 10 q 154 -19 118 -59 q 82 -99 60 -153 q 38 -208 38 -278 l 38 -278 q 38 -338 58 -390 q 78 -443 119 -483 q 159 -523 220 -545 q 281 -568 363 -568 l 363 -568 q 415 -568 458 -558 q 501 -549 542 -527 l 542 -527 l 568 -509 q 643 -467 691 -393 q 738 -319 738 -222 l 738 -222 q 738 -148 714 -95 q 689 -43 641 -15 q 593 12 523 12 l 523 12 q 455 12 407 -15 q 359 -43 334 -95 q 309 -147 309 -218 l 309 -218 q 309 -283 330 -335 q 351 -387 389 -428 q 427 -469 478 -499 l 478 -499 l 502 -514 q 555 -543 617 -555 q 678 -568 755 -568 z"},"ൾ":{"ha":1078,"x_min":38,"x_max":1040,"o":"m 815 -794 l 815 -794 q 877 -794 911 -773 q 944 -752 958 -722 q 971 -692 971 -667 l 971 -667 q 971 -615 943 -572 q 915 -529 865 -485 l 865 -485 l 847 -461 q 804 -426 777 -386 q 750 -346 738 -303 q 725 -260 725 -217 l 725 -217 q 725 -162 739 -129 q 752 -97 776 -82 q 799 -68 828 -68 l 828 -68 q 880 -68 907 -105 q 933 -143 933 -218 l 933 -218 q 933 -254 925 -290 q 917 -326 901 -358 q 885 -390 861 -417 q 837 -445 803 -464 l 803 -464 q 784 -475 758 -481 q 731 -488 701 -488 l 701 -488 q 663 -488 630 -478 q 597 -468 576 -451 l 576 -451 q 540 -423 526 -374 q 512 -326 512 -261 l 512 -261 l 512 -247 q 512 -201 506 -165 q 500 -130 489 -102 q 477 -74 457 -52 l 457 -52 q 430 -22 389 -5 q 348 12 287 12 l 287 12 q 212 12 156 -21 q 99 -54 69 -116 q 38 -178 38 -263 l 38 -263 q 38 -331 56 -384 q 73 -438 107 -483 q 141 -528 190 -569 l 190 -569 l 258 -503 q 223 -474 198 -439 q 172 -405 158 -362 q 144 -319 144 -267 l 144 -267 q 144 -204 162 -160 q 179 -117 211 -93 q 242 -70 283 -70 l 283 -70 q 322 -70 345 -82 q 367 -94 380 -114 l 380 -114 q 396 -138 401 -179 q 405 -220 405 -261 l 405 -261 l 405 -276 q 405 -364 428 -418 q 450 -472 490 -506 l 490 -506 q 531 -540 582 -554 q 632 -568 699 -568 l 699 -568 q 739 -568 776 -560 q 813 -552 844 -538 l 844 -538 l 864 -528 q 921 -497 960 -449 q 999 -401 1020 -343 q 1040 -285 1040 -224 l 1040 -224 q 1040 -113 986 -50 q 932 12 828 12 l 828 12 q 760 12 714 -15 q 667 -42 643 -94 q 619 -146 619 -220 l 619 -220 q 619 -273 636 -320 q 652 -368 685 -412 q 718 -457 766 -499 l 766 -499 l 791 -528 q 823 -557 845 -585 q 866 -613 866 -647 l 866 -647 q 866 -674 849 -693 q 832 -713 791 -713 l 791 -713 q 770 -713 751 -710 q 732 -707 719 -702 l 719 -702 l 698 -779 q 717 -785 749 -789 q 781 -794 815 -794 z"},"ൿ":{"ha":1248,"x_min":31,"x_max":1216,"o":"m 540 -568 l 540 -568 q 625 -568 679 -530 q 733 -493 759 -428 q 784 -363 784 -280 l 784 -280 q 784 -186 755 -120 q 726 -55 672 -21 q 617 12 541 12 l 541 12 q 483 12 437 -7 q 391 -26 359 -63 l 359 -63 q 327 -101 310 -156 q 293 -211 293 -280 l 293 -280 q 293 -414 359 -491 q 425 -568 540 -568 z m 540 -488 l 540 -488 q 467 -488 432 -436 q 396 -384 396 -279 l 396 -279 q 396 -209 412 -162 q 428 -115 460 -91 q 492 -68 538 -68 l 538 -68 q 585 -68 617 -91 q 648 -114 665 -161 q 681 -208 681 -279 l 681 -279 q 681 -350 665 -396 q 649 -443 618 -465 q 586 -488 540 -488 z m 220 12 l 220 12 q 128 12 80 -32 q 31 -77 31 -155 l 31 -155 q 31 -203 53 -237 q 75 -272 110 -293 l 110 -293 q 135 -307 165 -316 q 195 -326 237 -330 q 279 -334 340 -334 l 340 -334 l 962 -334 q 1023 -334 1070 -325 q 1116 -316 1153 -289 l 1153 -289 q 1180 -268 1198 -237 q 1216 -206 1216 -161 l 1216 -161 q 1216 -81 1170 -34 q 1124 12 1033 12 l 1033 12 q 939 12 891 -37 q 843 -86 843 -157 l 843 -157 q 843 -195 851 -225 q 859 -256 875 -287 l 875 -287 q 876 -289 877 -292 q 877 -295 878 -298 l 878 -298 q 892 -324 910 -356 q 927 -388 951 -431 l 951 -431 q 984 -487 1003 -524 q 1022 -561 1031 -588 q 1039 -616 1039 -642 l 1039 -642 q 1039 -672 1022 -692 q 1004 -713 963 -713 l 963 -713 q 942 -713 923 -710 q 904 -707 891 -702 l 891 -702 l 870 -779 q 890 -785 922 -789 q 953 -794 987 -794 l 987 -794 q 1049 -794 1083 -772 q 1117 -751 1130 -720 q 1143 -689 1143 -660 l 1143 -660 q 1143 -631 1138 -605 q 1133 -580 1121 -551 q 1108 -523 1087 -485 q 1066 -447 1034 -392 l 1034 -392 q 1020 -368 1008 -346 q 995 -324 984 -303 l 984 -303 q 981 -297 979 -291 q 976 -285 973 -279 l 973 -279 q 960 -251 952 -223 q 944 -195 944 -165 l 944 -165 q 944 -128 957 -107 q 970 -86 990 -77 q 1010 -68 1032 -68 l 1032 -68 q 1073 -68 1094 -89 q 1114 -111 1114 -155 l 1114 -155 q 1114 -183 1104 -200 q 1093 -218 1077 -229 l 1077 -229 q 1054 -245 1024 -249 q 993 -253 964 -253 l 964 -253 l 328 -253 q 264 -253 230 -248 q 196 -243 170 -227 l 170 -227 q 154 -217 144 -199 q 133 -181 133 -157 l 133 -157 q 133 -127 145 -107 q 156 -88 178 -78 q 200 -68 230 -68 l 230 -68 q 260 -68 292 -78 q 323 -88 358 -115 l 358 -115 l 412 -50 q 381 -28 352 -14 q 322 -1 291 6 q 259 12 220 12 z"},"!":{"ha":280,"x_min":71,"x_max":208,"o":"m 178 -212 l 102 -212 l 77 -714 l 203 -714 l 178 -212 z m 140 12 l 140 12 q 109 12 90 -5 q 71 -23 71 -60 l 71 -60 q 71 -96 90 -114 q 108 -133 140 -133 l 140 -133 q 170 -133 189 -114 q 208 -96 208 -60 l 208 -60 q 208 -24 189 -6 q 170 12 140 12 z"},"\"":{"ha":442,"x_min":69,"x_max":372,"o":"m 165 -542 l 93 -542 l 69 -800 l 188 -800 l 165 -542 z m 349 -542 l 277 -542 l 254 -800 l 372 -800 l 349 -542 z"},"#":{"ha":652,"x_min":27,"x_max":625,"o":"m 194 0 l 112 0 l 151 -206 l 27 -206 l 27 -283 l 166 -283 l 194 -429 l 63 -429 l 63 -506 l 208 -506 l 247 -714 l 330 -714 l 290 -506 l 419 -506 l 458 -714 l 540 -714 l 501 -506 l 625 -506 l 625 -429 l 486 -429 l 458 -283 l 590 -283 l 590 -206 l 443 -206 l 404 0 l 322 0 l 361 -206 l 233 -206 l 194 0 z m 276 -429 l 247 -283 l 376 -283 l 404 -429 l 276 -429 z"},"%":{"ha":852,"x_min":44,"x_max":808,"o":"m 272 0 l 183 0 l 579 -714 l 668 -714 l 272 0 z m 196 -276 l 196 -276 q 123 -276 84 -334 q 44 -393 44 -501 l 44 -501 q 44 -611 82 -668 q 119 -725 196 -725 l 196 -725 q 272 -725 312 -666 q 352 -608 352 -501 l 352 -501 q 352 -391 314 -333 q 275 -276 196 -276 z m 196 -350 l 196 -350 q 231 -350 248 -387 q 265 -425 265 -501 l 265 -501 q 265 -575 248 -612 q 231 -650 196 -650 l 196 -650 q 163 -650 147 -612 q 131 -575 131 -501 l 131 -501 q 131 -426 147 -388 q 163 -350 196 -350 z m 652 11 l 652 11 q 579 11 539 -47 q 499 -106 499 -214 l 499 -214 q 499 -324 537 -380 q 574 -437 652 -437 l 652 -437 q 727 -437 768 -379 q 808 -321 808 -214 l 808 -214 q 808 -104 769 -46 q 730 11 652 11 z m 652 -63 l 652 -63 q 687 -63 704 -100 q 720 -137 720 -214 l 720 -214 q 720 -288 704 -325 q 687 -362 652 -362 l 652 -362 q 618 -362 603 -325 q 587 -288 587 -214 l 587 -214 q 587 -138 603 -100 q 618 -63 652 -63 z"},"'":{"ha":257,"x_min":69,"x_max":188,"o":"m 165 -542 l 93 -542 l 69 -800 l 188 -800 l 165 -542 z"},"(":{"ha":312,"x_min":40,"x_max":282,"o":"m 40 -283 l 40 -283 q 40 -377 57 -470 q 73 -563 106 -647 q 139 -732 188 -800 l 188 -800 l 282 -800 q 237 -728 206 -643 q 174 -558 158 -466 q 142 -374 142 -282 l 142 -282 q 142 -190 157 -97 q 172 -5 204 82 q 235 168 282 244 l 282 244 l 188 244 q 139 173 106 87 q 73 1 57 -93 q 40 -187 40 -283 z"},")":{"ha":312,"x_min":30,"x_max":272,"o":"m 272 -273 l 272 -273 q 272 -180 256 -86 q 239 7 207 91 q 174 175 124 244 l 124 244 l 31 244 q 76 171 107 87 q 138 2 155 -90 q 171 -182 171 -274 l 171 -274 q 171 -367 156 -458 q 140 -550 109 -637 q 78 -724 30 -800 l 30 -800 l 124 -800 q 174 -729 207 -643 q 240 -557 256 -463 q 272 -369 272 -273 z"},"*":{"ha":549,"x_min":37,"x_max":511,"o":"m 220 -800 l 328 -800 l 308 -612 l 497 -665 l 511 -562 l 330 -549 l 449 -394 l 354 -344 l 274 -515 l 196 -344 l 100 -394 l 217 -549 l 37 -562 l 53 -665 l 241 -612 l 220 -800 z"},"+":{"ha":572,"x_min":49,"x_max":523,"o":"m 327 -111 l 245 -111 l 245 -312 l 49 -312 l 49 -393 l 245 -393 l 245 -595 l 327 -595 l 327 -393 l 523 -393 l 523 -312 l 327 -312 l 327 -111 z"},",":{"ha":262,"x_min":31,"x_max":196,"o":"m 80 -116 l 189 -116 l 196 -105 q 187 -70 173 -29 q 159 11 143 52 q 127 92 110 129 l 110 129 l 31 129 q 41 89 50 46 q 59 2 67 -40 q 75 -82 80 -116 l 80 -116 z"},"-":{"ha":322,"x_min":37,"x_max":285,"o":"m 285 -221 l 37 -221 l 37 -315 l 285 -315 l 285 -221 z"},".":{"ha":273,"x_min":68,"x_max":205,"o":"m 137 12 l 137 12 q 108 12 88 -5 q 68 -22 68 -60 l 68 -60 q 68 -100 88 -116 q 108 -133 137 -133 l 137 -133 q 165 -133 185 -117 q 205 -101 205 -60 l 205 -60 q 205 -22 185 -5 q 165 12 137 12 z"},"/":{"ha":403,"x_min":20,"x_max":383,"o":"m 117 244 l 20 244 l 286 -800 l 383 -800 l 117 244 z"},":":{"ha":273,"x_min":68,"x_max":205,"o":"m 137 12 l 137 12 q 108 12 88 -5 q 68 -22 68 -60 l 68 -60 q 68 -100 88 -116 q 108 -133 137 -133 l 137 -133 q 165 -133 185 -117 q 205 -101 205 -60 l 205 -60 q 205 -22 185 -5 q 165 12 137 12 z m 137 -407 l 137 -407 q 108 -407 88 -424 q 68 -441 68 -479 l 68 -479 q 68 -520 88 -536 q 108 -552 137 -552 l 137 -552 q 165 -552 185 -536 q 205 -520 205 -479 l 205 -479 q 205 -441 185 -424 q 165 -407 137 -407 z"},";":{"ha":274,"x_min":31,"x_max":205,"o":"m 80 -116 l 189 -116 l 196 -105 q 187 -70 173 -29 q 159 11 143 52 q 127 92 110 129 l 110 129 l 31 129 q 41 89 50 46 q 59 2 67 -40 q 75 -82 80 -116 l 80 -116 z m 137 -407 l 137 -407 q 108 -407 88 -424 q 68 -441 68 -479 l 68 -479 q 68 -520 88 -536 q 108 -552 137 -552 l 137 -552 q 165 -552 185 -536 q 205 -520 205 -479 l 205 -479 q 205 -441 185 -424 q 165 -407 137 -407 z"},"<":{"ha":572,"x_min":48,"x_max":523,"o":"m 523 -200 l 523 -111 l 48 -320 l 48 -376 l 523 -613 l 523 -524 l 159 -352 l 523 -200 z"},"=":{"ha":572,"x_min":53,"x_max":519,"o":"m 519 -211 l 53 -211 l 53 -292 l 519 -292 l 519 -211 z m 519 -412 l 53 -412 l 53 -493 l 519 -493 l 519 -412 z"},">":{"ha":572,"x_min":48,"x_max":523,"o":"m 523 -320 l 48 -111 l 48 -200 l 412 -352 l 48 -524 l 48 -613 l 523 -376 l 523 -320 z"},"?":{"ha":452,"x_min":38,"x_max":423,"o":"m 224 -725 l 224 -725 q 318 -725 371 -676 q 423 -627 423 -543 l 423 -543 q 423 -501 412 -470 q 400 -439 377 -412 q 354 -385 317 -353 l 317 -353 q 287 -326 270 -307 q 253 -288 247 -270 q 240 -252 240 -227 l 240 -227 l 240 -212 l 154 -212 l 154 -236 q 154 -271 162 -298 q 170 -325 189 -349 q 207 -374 240 -401 l 240 -401 q 271 -427 289 -447 q 306 -467 314 -488 q 321 -510 321 -540 l 321 -540 q 321 -583 294 -608 q 266 -634 217 -634 l 217 -634 q 178 -634 143 -623 q 108 -612 73 -594 l 73 -594 l 38 -676 q 80 -697 126 -711 q 172 -725 224 -725 z m 202 12 l 202 12 q 174 12 154 -5 q 133 -22 133 -60 l 133 -60 q 133 -100 154 -116 q 174 -133 202 -133 l 202 -133 q 230 -133 251 -116 q 271 -100 271 -60 l 271 -60 q 271 -22 251 -5 q 230 12 202 12 z"},"[":{"ha":325,"x_min":76,"x_max":286,"o":"m 286 244 l 76 244 l 76 -800 l 286 -800 l 286 -722 l 175 -722 l 175 166 l 286 166 l 286 244 z"},"\\":{"ha":403,"x_min":20,"x_max":383,"o":"m 383 244 l 286 244 l 20 -800 l 117 -800 l 383 244 z"},"]":{"ha":328,"x_min":39,"x_max":248,"o":"m 248 244 l 39 244 l 39 166 l 150 166 l 150 -722 l 39 -722 l 39 -800 l 248 -800 l 248 244 z"},"^":{"ha":588,"x_min":37,"x_max":551,"o":"m 126 -264 l 37 -264 l 264 -719 l 320 -719 l 551 -264 l 461 -264 l 293 -610 l 126 -264 z"},"_":{"ha":434,"x_min":-2,"x_max":436,"o":"m 436 155 l -2 155 l -2 90 l 436 90 l 436 155 z"},"{":{"ha":374,"x_min":28,"x_max":336,"o":"m 336 160 l 336 244 q 275 243 235 225 q 194 206 174 168 q 153 130 153 73 l 153 73 l 153 -129 q 153 -187 121 -210 q 88 -234 28 -234 l 28 -234 l 28 -322 q 89 -322 121 -346 q 153 -370 153 -427 l 153 -427 l 153 -629 q 153 -687 174 -724 q 194 -761 235 -780 q 275 -799 336 -800 l 336 -800 l 336 -716 q 296 -715 275 -696 q 254 -678 254 -624 l 254 -624 l 254 -419 q 254 -361 225 -326 q 195 -292 139 -282 l 139 -282 l 139 -276 q 195 -265 225 -230 q 254 -196 254 -138 l 254 -138 l 254 68 q 254 104 263 124 q 272 144 291 152 q 310 159 336 160 l 336 160 z"},"|":{"ha":551,"x_min":234,"x_max":317,"o":"m 317 244 l 234 244 l 234 -800 l 317 -800 l 317 244 z"},"}":{"ha":374,"x_min":39,"x_max":345,"o":"m 39 -716 l 39 -800 q 99 -799 140 -780 q 181 -761 202 -724 q 222 -687 222 -629 l 222 -629 l 222 -427 q 222 -370 254 -346 q 285 -322 345 -322 l 345 -322 l 345 -234 q 285 -234 254 -210 q 222 -187 222 -130 l 222 -130 l 222 73 q 222 130 202 168 q 181 206 140 225 q 99 243 39 244 l 39 244 l 39 160 q 79 158 100 140 q 120 121 120 68 l 120 68 l 120 -138 q 120 -197 150 -231 q 179 -265 235 -276 l 235 -276 l 235 -282 q 179 -292 150 -326 q 120 -361 120 -419 l 120 -419 l 120 -624 q 120 -659 111 -679 q 102 -699 84 -707 q 66 -716 39 -716 l 39 -716 z"},"~":{"ha":572,"x_min":48,"x_max":523,"o":"m 269 -314 l 269 -314 q 232 -330 210 -335 q 187 -341 165 -341 l 165 -341 q 135 -341 104 -324 q 73 -307 48 -282 l 48 -282 l 48 -370 q 73 -396 104 -409 q 134 -423 169 -423 l 169 -423 q 198 -423 227 -417 q 256 -411 299 -393 l 299 -393 q 339 -376 362 -370 q 385 -364 411 -364 l 411 -364 q 441 -364 469 -381 q 497 -398 523 -423 l 523 -423 l 523 -334 q 498 -309 469 -295 q 439 -282 402 -282 l 402 -282 q 373 -282 344 -288 q 315 -295 269 -314 z"}," ":{"ha":309,"x_min":0,"x_max":0,"o":""},"­":{"ha":322,"x_min":37,"x_max":285,"o":"m 285 -221 l 37 -221 l 37 -315 l 285 -315 l 285 -221 z"},"–":{"ha":500,"x_min":40,"x_max":460,"o":"m 460 -221 l 40 -221 l 40 -315 l 460 -315 l 460 -221 z"},"—":{"ha":1000,"x_min":40,"x_max":960,"o":"m 960 -221 l 40 -221 l 40 -315 l 960 -315 l 960 -221 z"},"‘":{"ha":243,"x_min":36,"x_max":200,"o":"m 152 -555 l 42 -555 l 36 -566 q 45 -602 59 -642 q 73 -682 90 -723 q 106 -764 122 -800 l 122 -800 l 200 -800 q 191 -760 182 -716 q 172 -673 165 -631 q 157 -590 152 -555 l 152 -555 z"},"’":{"ha":243,"x_min":37,"x_max":201,"o":"m 85 -800 l 194 -800 l 201 -789 q 192 -754 178 -713 q 164 -673 148 -632 q 132 -592 115 -555 l 115 -555 l 37 -555 q 44 -584 51 -616 q 58 -648 64 -680 q 70 -713 76 -743 q 81 -774 85 -800 l 85 -800 z"},"“":{"ha":443,"x_min":37,"x_max":400,"o":"m 352 -555 l 243 -555 l 236 -566 q 245 -602 259 -642 q 273 -682 290 -723 q 306 -764 322 -800 l 322 -800 l 400 -800 q 391 -760 382 -716 q 372 -673 365 -631 q 357 -590 352 -555 l 352 -555 z m 152 -555 l 43 -555 l 37 -566 q 46 -602 60 -642 q 74 -682 91 -723 q 107 -764 123 -800 l 123 -800 l 201 -800 q 192 -760 183 -716 q 173 -673 165 -631 q 157 -590 152 -555 l 152 -555 z"},"”":{"ha":443,"x_min":37,"x_max":400,"o":"m 285 -800 l 394 -800 l 400 -789 q 391 -754 377 -713 q 363 -673 347 -632 q 331 -592 315 -555 l 315 -555 l 236 -555 q 246 -594 255 -637 q 264 -681 272 -723 q 280 -766 285 -800 l 285 -800 z m 85 -800 l 194 -800 l 201 -789 q 192 -754 178 -713 q 164 -673 148 -632 q 132 -592 115 -555 l 115 -555 l 37 -555 q 44 -584 51 -616 q 58 -648 64 -680 q 70 -713 76 -743 q 81 -774 85 -800 l 85 -800 z"},"…":{"ha":819,"x_min":68,"x_max":751,"o":"m 137 12 l 137 12 q 108 12 88 -5 q 68 -22 68 -60 l 68 -60 q 68 -100 88 -116 q 108 -133 137 -133 l 137 -133 q 165 -133 185 -117 q 205 -101 205 -60 l 205 -60 q 205 -22 185 -5 q 165 12 137 12 z m 410 12 l 410 12 q 381 12 361 -5 q 341 -22 341 -60 l 341 -60 q 341 -100 361 -116 q 381 -133 410 -133 l 410 -133 q 438 -133 458 -117 q 478 -101 478 -60 l 478 -60 q 478 -22 458 -5 q 438 12 410 12 z m 683 12 l 683 12 q 654 12 634 -5 q 614 -22 614 -60 l 614 -60 q 614 -100 634 -116 q 654 -133 683 -133 l 683 -133 q 711 -133 731 -117 q 751 -101 751 -60 l 751 -60 q 751 -22 731 -5 q 711 12 683 12 z"},"×":{"ha":572,"x_min":64,"x_max":507,"o":"m 285 -410 l 450 -574 l 507 -517 l 343 -352 l 506 -189 l 449 -132 l 285 -296 l 124 -132 l 65 -190 l 229 -352 l 64 -516 l 123 -574 l 285 -410 z"},"÷":{"ha":572,"x_min":49,"x_max":523,"o":"m 523 -312 l 49 -312 l 49 -393 l 523 -393 l 523 -312 z m 286 -117 l 286 -117 q 258 -117 242 -133 q 225 -150 225 -182 l 225 -182 q 225 -215 242 -230 q 258 -246 286 -246 l 286 -246 q 312 -246 329 -230 q 345 -215 345 -182 l 345 -182 q 345 -150 328 -133 q 311 -117 286 -117 z m 286 -458 l 286 -458 q 259 -458 242 -474 q 225 -491 225 -523 l 225 -523 q 225 -556 242 -571 q 258 -587 286 -587 l 286 -587 q 312 -587 329 -571 q 345 -556 345 -523 l 345 -523 q 344 -490 328 -474 q 311 -458 286 -458 z"},"−":{"ha":572,"x_min":48,"x_max":523,"o":"m 523 -312 l 48 -312 l 48 -393 l 523 -393 l 523 -312 z"},"₹":{"ha":572,"x_min":67,"x_max":516,"o":"m 397 0 l 269 0 l 67 -270 l 79 -351 l 115 -351 q 164 -351 190 -360 q 216 -370 231 -389 l 231 -389 q 244 -405 252 -430 q 259 -455 259 -494 l 259 -494 q 259 -538 250 -565 q 241 -592 225 -608 l 225 -608 q 210 -624 189 -630 q 168 -636 132 -636 l 132 -636 l 67 -636 l 67 -714 l 516 -714 l 516 -636 l 312 -636 q 336 -613 350 -577 q 364 -542 364 -491 l 364 -491 q 364 -429 343 -384 q 322 -340 281 -312 q 240 -285 179 -273 l 179 -273 l 176 -286 l 397 0 z m 516 -459 l 67 -459 l 67 -537 l 516 -537 l 516 -459 z"},"꠰":{"ha":255,"x_min":75,"x_max":179,"o":"m 75 0 l 75 -556 l 179 -556 l 179 0 l 75 0 z"},"꠱":{"ha":466,"x_min":75,"x_max":390,"o":"m 75 0 l 75 -556 l 179 -556 l 179 0 l 75 0 z m 286 0 l 286 -556 l 390 -556 l 390 0 l 286 0 z"},"꠲":{"ha":676,"x_min":75,"x_max":601,"o":"m 75 0 l 75 -556 l 179 -556 l 179 0 l 75 0 z m 286 0 l 286 -556 l 390 -556 l 390 0 l 286 0 z m 497 0 l 497 -556 l 601 -556 l 601 0 l 497 0 z"},"॑":{"ha":0,"x_min":-318,"x_max":-238,"o":"m -318 -653 l -318 -864 l -238 -864 l -238 -653 l -318 -653 z"},"॒":{"ha":0,"x_min":-499,"x_max":-57,"o":"m -57 108 l -57 185 l -499 185 l -499 108 l -57 108 z"},"।":{"ha":361,"x_min":171,"x_max":276,"o":"m 276 49 l 171 49 l 171 -603 l 276 -603 l 276 49 z"},"॥":{"ha":603,"x_min":171,"x_max":517,"o":"m 517 49 l 413 49 l 413 -603 l 517 -603 l 517 49 z m 276 49 l 171 49 l 171 -603 l 276 -603 l 276 49 z"},"᳚":{"ha":0,"x_min":-382,"x_max":-174,"o":"m -382 -653 l -382 -864 l -308 -864 l -308 -653 l -382 -653 z m -248 -653 l -248 -864 l -174 -864 l -174 -653 l -248 -653 z"},"̇":{"ha":0,"x_min":-337,"x_max":-219,"o":"m -337 -701 l -337 -701 q -337 -733 -320 -747 q -303 -761 -278 -761 l -278 -761 q -254 -761 -236 -747 q -219 -733 -219 -701 l -219 -701 q -219 -669 -236 -655 q -254 -641 -278 -641 l -278 -641 q -303 -641 -320 -655 q -337 -669 -337 -701 z"},"̣":{"ha":0,"x_min":-337,"x_max":-219,"o":"m -337 136 l -337 136 q -337 104 -320 90 q -303 76 -278 76 l -278 76 q -254 76 -236 90 q -219 104 -219 136 l -219 136 q -219 167 -236 181 q -254 195 -278 195 l -278 195 q -303 195 -320 181 q -337 167 -337 136 z"},"‐":{"ha":322,"x_min":37,"x_max":285,"o":"m 285 -221 l 37 -221 l 37 -315 l 285 -315 l 285 -221 z"},"​":{"ha":0,"x_min":0,"x_max":0,"o":""},"‌":{"ha":0,"x_min":0,"x_max":0,"o":""},"‍":{"ha":0,"x_min":-161,"x_max":161,"o":"m 29 244 l -29 244 l -29 -565 l -121 -474 l -161 -514 l -40 -631 l -161 -748 l -121 -788 l 0 -669 l 121 -788 l 161 -748 l 40 -631 l 161 -514 l 121 -474 l 29 -565 l 29 244 z"},"◌":{"ha":562,"x_min":57,"x_max":504,"o":"m 89 -231 l 89 -231 q 57 -231 57 -264 l 57 -264 q 57 -295 89 -295 l 89 -295 q 121 -295 121 -264 l 121 -264 q 121 -231 89 -231 z m 138 -95 l 138 -95 q 106 -95 106 -127 l 106 -127 q 106 -158 138 -158 l 138 -158 q 169 -158 169 -127 l 169 -127 q 169 -95 138 -95 z m 281 -40 l 281 -40 q 249 -40 249 -72 l 249 -72 q 249 -104 281 -104 l 281 -104 q 312 -104 312 -72 l 312 -72 q 312 -40 281 -40 z m 138 -369 l 138 -369 q 106 -369 106 -401 l 106 -401 q 106 -432 138 -432 l 138 -432 q 169 -432 169 -401 l 169 -401 q 169 -369 138 -369 z m 423 -95 l 423 -95 q 391 -95 391 -127 l 391 -127 q 391 -158 423 -158 l 423 -158 q 455 -158 455 -127 l 455 -127 q 455 -95 423 -95 z m 281 -424 l 281 -424 q 249 -424 249 -456 l 249 -456 q 249 -487 281 -487 l 281 -487 q 312 -487 312 -456 l 312 -456 q 312 -424 281 -424 z m 472 -231 l 472 -231 q 441 -231 441 -264 l 441 -264 q 441 -295 472 -295 l 472 -295 q 504 -295 504 -264 l 504 -264 q 504 -231 472 -231 z m 423 -369 l 423 -369 q 391 -369 391 -401 l 391 -401 q 391 -432 423 -432 l 423 -432 q 455 -432 455 -401 l 455 -401 q 455 -369 423 -369 z"},"«":{"ha":540,"x_min":40,"x_max":501,"o":"m 40 -260 l 40 -273 l 212 -480 l 288 -438 l 149 -267 l 288 -96 l 212 -53 l 40 -260 z m 252 -260 l 252 -273 l 426 -480 l 501 -438 l 362 -267 l 501 -96 l 426 -53 l 252 -260 z"},"»":{"ha":540,"x_min":39,"x_max":500,"o":"m 500 -273 l 500 -260 l 327 -53 l 252 -96 l 391 -267 l 252 -438 l 327 -480 l 500 -273 z m 287 -273 l 287 -260 l 115 -53 l 39 -96 l 178 -267 l 39 -438 l 115 -480 l 287 -273 z"},"̈":{"ha":0,"x_min":-149,"x_max":148,"o":"m -149 -682 l -149 -682 q -149 -711 -133 -723 q -117 -736 -96 -736 l -96 -736 q -74 -736 -58 -723 q -42 -711 -42 -683 l -42 -683 q -42 -655 -58 -641 q -74 -628 -96 -628 l -96 -628 q -117 -628 -133 -641 q -149 -655 -149 -682 z m 42 -682 l 42 -682 q 42 -711 58 -723 q 73 -736 95 -736 l 95 -736 q 116 -736 132 -723 q 148 -711 148 -683 l 148 -683 q 148 -655 132 -641 q 116 -628 95 -628 l 95 -628 q 73 -628 58 -641 q 42 -655 42 -682 z"},"̀":{"ha":0,"x_min":-504,"x_max":-279,"o":"m -504 -766 l -381 -766 q -369 -744 -351 -716 q -333 -689 -313 -663 q -294 -637 -279 -618 l -279 -618 l -279 -606 l -350 -606 q -367 -620 -389 -639 q -412 -659 -434 -680 q -457 -702 -475 -722 q -494 -742 -504 -756 l -504 -756 l -504 -766 z"},"́":{"ha":0,"x_min":-326,"x_max":-101,"o":"m -101 -766 l -101 -756 q -112 -742 -130 -722 q -149 -702 -171 -680 q -194 -659 -216 -639 q -238 -620 -256 -606 l -256 -606 l -326 -606 l -326 -618 q -311 -637 -292 -663 q -273 -689 -255 -716 q -237 -744 -225 -766 l -225 -766 l -101 -766 z"},"̋":{"ha":0,"x_min":-133,"x_max":248,"o":"m 249 -766 l 249 -756 q 241 -743 225 -723 q 208 -703 187 -681 q 166 -659 145 -639 q 124 -620 107 -606 l 107 -606 l 48 -606 l 48 -618 q 62 -637 79 -663 q 95 -689 111 -716 q 127 -744 138 -766 l 138 -766 l 249 -766 z m 67 -766 l 67 -756 q 59 -743 43 -723 q 27 -703 6 -681 q -15 -659 -36 -639 q -57 -620 -74 -606 l -74 -606 l -133 -606 l -133 -618 q -119 -637 -102 -663 q -86 -689 -70 -716 q -55 -744 -44 -766 l -44 -766 l 67 -766 z"},"̄":{"ha":0,"x_min":-153,"x_max":154,"o":"m -153 -686 l 154 -686 l 154 -606 l -153 -606 l -153 -686 z"},"˙":{"ha":200,"x_min":40,"x_max":160,"o":"m 101 -744 l 101 -744 q 124 -744 142 -730 q 160 -716 160 -683 l 160 -683 q 160 -651 142 -636 q 124 -622 101 -622 l 101 -622 q 75 -622 58 -636 q 40 -651 40 -683 l 40 -683 q 40 -716 58 -730 q 75 -744 101 -744 z"},"°":{"ha":428,"x_min":50,"x_max":377,"o":"m 214 -408 l 214 -408 q 165 -408 129 -428 q 92 -448 71 -483 q 50 -519 50 -566 l 50 -566 q 50 -612 71 -648 q 91 -684 128 -704 q 164 -724 214 -724 l 214 -724 q 262 -724 299 -704 q 336 -684 357 -648 q 377 -613 377 -566 l 377 -566 q 377 -519 357 -483 q 336 -448 299 -428 q 262 -408 214 -408 z m 215 -477 l 215 -477 q 258 -477 281 -501 q 303 -526 303 -566 l 303 -566 q 303 -607 280 -631 q 257 -656 215 -656 l 215 -656 q 171 -656 148 -631 q 125 -607 125 -566 l 125 -566 q 125 -526 148 -501 q 171 -477 215 -477 z"},"A":{"ha":654,"x_min":0,"x_max":653,"o":"m 653 0 l 540 0 l 464 -206 l 188 -206 l 112 0 l 0 0 l 271 -717 l 383 -717 l 653 0 z m 434 -300 l 362 -501 q 359 -512 352 -534 q 344 -557 337 -580 q 330 -604 326 -619 l 326 -619 q 321 -599 315 -575 q 308 -552 302 -532 q 296 -513 292 -501 l 292 -501 l 220 -300 l 434 -300 z"},"Á":{"ha":654,"x_min":0,"x_max":653,"o":"m 653 0 l 540 0 l 464 -206 l 188 -206 l 112 0 l 0 0 l 271 -717 l 383 -717 l 653 0 z m 434 -300 l 362 -501 q 359 -512 352 -534 q 344 -557 337 -580 q 330 -604 326 -619 l 326 -619 q 321 -599 315 -575 q 308 -552 302 -532 q 296 -513 292 -501 l 292 -501 l 220 -300 l 434 -300 z m 493 -941 l 493 -931 q 482 -917 464 -897 q 445 -877 423 -855 q 400 -834 378 -814 q 356 -795 338 -781 l 338 -781 l 268 -781 l 268 -793 q 283 -812 302 -838 q 321 -864 339 -891 q 357 -919 369 -941 l 369 -941 l 493 -941 z"},"Ă":{"ha":654,"x_min":0,"x_max":653,"o":"m 653 0 l 540 0 l 464 -206 l 188 -206 l 112 0 l 0 0 l 271 -717 l 383 -717 l 653 0 z m 434 -300 l 362 -501 q 359 -512 352 -534 q 344 -557 337 -580 q 330 -604 326 -619 l 326 -619 q 321 -599 315 -575 q 308 -552 302 -532 q 296 -513 292 -501 l 292 -501 l 220 -300 l 434 -300 z m 428 -924 l 492 -924 q 489 -882 468 -849 q 446 -817 410 -799 q 373 -781 323 -781 l 323 -781 q 245 -781 204 -820 q 163 -859 159 -924 l 159 -924 l 222 -924 q 225 -897 238 -883 q 251 -870 273 -866 q 295 -862 325 -862 l 325 -862 q 350 -862 372 -866 q 394 -871 410 -884 q 425 -898 428 -924 l 428 -924 z"},"Â":{"ha":654,"x_min":0,"x_max":653,"o":"m 653 0 l 540 0 l 464 -206 l 188 -206 l 112 0 l 0 0 l 271 -717 l 383 -717 l 653 0 z m 434 -300 l 362 -501 q 359 -512 352 -534 q 344 -557 337 -580 q 330 -604 326 -619 l 326 -619 q 321 -599 315 -575 q 308 -552 302 -532 q 296 -513 292 -501 l 292 -501 l 220 -300 l 434 -300 z m 268 -941 l 382 -941 q 395 -919 418 -891 q 440 -864 465 -837 q 489 -811 507 -793 l 507 -793 l 507 -781 l 434 -781 q 408 -797 380 -820 q 351 -843 324 -870 l 324 -870 q 297 -843 270 -820 q 242 -798 216 -781 l 216 -781 l 144 -781 l 144 -793 q 163 -812 187 -838 q 210 -864 232 -891 q 254 -919 268 -941 l 268 -941 z"}}}
